G04 EAGLE Gerber X2 export*
%TF.Part,Single*%
%TF.FileFunction,Other,Top Layer*%
%TF.FilePolarity,Positive*%
%TF.GenerationSoftware,Autodesk,EAGLE,8.7.1*%
%TF.CreationDate,2018-04-17T03:08:08Z*%
G75*
%MOMM*%
%FSLAX34Y34*%
%LPD*%
%AMOC8*
5,1,8,0,0,1.08239X$1,22.5*%
G01*
%ADD10C,0.000000*%
%ADD11P,1.429621X8X292.500000*%
%ADD12P,1.429621X8X112.500000*%
%ADD13C,1.320800*%
%ADD14P,1.429621X8X22.500000*%
%ADD15C,1.308000*%
%ADD16C,2.850000*%
%ADD17C,1.879600*%
%ADD18C,1.320800*%
%ADD19C,1.508000*%
%ADD20C,0.406400*%
%ADD21C,0.654800*%
%ADD22P,0.708749X8X22.500000*%


D10*
X0Y0D02*
X500000Y0D01*
X500000Y500000D01*
X0Y500000D01*
X0Y0D01*
D11*
X340360Y447040D03*
X340360Y421640D03*
X152400Y139700D03*
X152400Y114300D03*
X280670Y44450D03*
X280670Y19050D03*
D12*
X179070Y21590D03*
X179070Y46990D03*
D13*
X335280Y243840D03*
D14*
X386080Y243840D03*
D13*
X132080Y16510D03*
D12*
X132080Y67310D03*
D15*
X411280Y44960D03*
X411280Y60960D03*
X411280Y76960D03*
X423280Y52960D03*
X423280Y68960D03*
D16*
X462280Y97460D03*
X462280Y24460D03*
D17*
X488950Y167640D03*
X488950Y193040D03*
X488950Y218440D03*
X488950Y243840D03*
X488950Y269240D03*
X488950Y294640D03*
X488950Y320040D03*
X488950Y345440D03*
X12700Y165100D03*
X12700Y190500D03*
X12700Y215900D03*
X12700Y241300D03*
X12700Y266700D03*
X12700Y292100D03*
X12700Y317500D03*
X12700Y342900D03*
D12*
X76200Y12700D03*
X76200Y38100D03*
X31750Y13970D03*
X31750Y39370D03*
D11*
X113030Y269240D03*
X113030Y167640D03*
X86360Y271780D03*
X86360Y170180D03*
D14*
X139700Y482600D03*
X241300Y482600D03*
D12*
X62230Y170180D03*
X62230Y271780D03*
D18*
X197866Y447040D02*
X211074Y447040D01*
X211074Y421640D02*
X197866Y421640D01*
X197866Y396240D02*
X211074Y396240D01*
X211074Y370840D02*
X197866Y370840D01*
X197866Y345440D02*
X211074Y345440D01*
X211074Y320040D02*
X197866Y320040D01*
X197866Y294640D02*
X211074Y294640D01*
X211074Y269240D02*
X197866Y269240D01*
X197866Y243840D02*
X211074Y243840D01*
X211074Y218440D02*
X197866Y218440D01*
X197866Y193040D02*
X211074Y193040D01*
X211074Y167640D02*
X197866Y167640D01*
X197866Y142240D02*
X211074Y142240D01*
X211074Y116840D02*
X197866Y116840D01*
X274066Y116840D02*
X287274Y116840D01*
X287274Y142240D02*
X274066Y142240D01*
X274066Y167640D02*
X287274Y167640D01*
X287274Y193040D02*
X274066Y193040D01*
X274066Y218440D02*
X287274Y218440D01*
X287274Y243840D02*
X274066Y243840D01*
X274066Y269240D02*
X287274Y269240D01*
X287274Y294640D02*
X274066Y294640D01*
X274066Y320040D02*
X287274Y320040D01*
X287274Y345440D02*
X274066Y345440D01*
X274066Y370840D02*
X287274Y370840D01*
X287274Y396240D02*
X274066Y396240D01*
X274066Y421640D02*
X287274Y421640D01*
X287274Y447040D02*
X274066Y447040D01*
D19*
X309250Y22860D03*
X389250Y22860D03*
D15*
X329250Y22860D03*
X349250Y22860D03*
X369250Y22860D03*
D11*
X227330Y20320D03*
X246380Y33020D03*
X227330Y45720D03*
D17*
X63500Y457200D03*
X114300Y457200D03*
X69850Y104140D03*
X19050Y104140D03*
X12700Y469900D03*
X12700Y444500D03*
X12700Y419100D03*
X12700Y393700D03*
X12700Y368300D03*
X165100Y200660D03*
X165100Y226060D03*
X165100Y251460D03*
D20*
X400276Y33956D02*
X411280Y44960D01*
X354972Y22860D02*
X349250Y22860D01*
X366068Y33956D02*
X400276Y33956D01*
X366068Y33956D02*
X354972Y22860D01*
X329250Y22860D02*
X307660Y44450D01*
X280670Y44450D01*
X269240Y33020D01*
X246380Y33020D01*
X280670Y116840D02*
X412750Y116840D01*
X487808Y191898D01*
X487808Y193040D01*
X227330Y20320D02*
X180340Y20320D01*
X179070Y21590D01*
X137160Y21590D01*
X132080Y16510D01*
X80010Y16510D01*
X76200Y12700D01*
X203200Y44450D02*
X227330Y20320D01*
X203200Y44450D02*
X203200Y88900D01*
X177800Y114300D01*
X177800Y139700D01*
X180340Y142240D01*
X204470Y142240D01*
X177800Y139700D02*
X152400Y139700D01*
X204470Y142240D02*
X218440Y142240D01*
X241300Y165100D01*
X241300Y317500D01*
X243840Y320040D01*
X280670Y320040D01*
X241300Y317500D02*
X241300Y431800D01*
X254000Y444500D01*
X256540Y447040D01*
X280670Y447040D01*
X254000Y444500D02*
X241300Y457200D01*
X241300Y482600D01*
X152400Y139700D02*
X63500Y139700D01*
X12700Y190500D01*
X280670Y447040D02*
X340360Y447040D01*
X57880Y444500D02*
X12700Y444500D01*
X57880Y444500D02*
X58134Y444246D01*
X119666Y444246D02*
X119920Y444500D01*
X165100Y444500D01*
X119666Y444246D02*
X58134Y444246D01*
D21*
X165100Y444500D03*
X165100Y482600D03*
D20*
X241300Y482600D01*
X62230Y240030D02*
X12700Y190500D01*
X62230Y240030D02*
X62230Y271780D01*
X172720Y243840D02*
X204470Y243840D01*
X172720Y243840D02*
X165100Y251460D01*
X182880Y218440D02*
X204470Y218440D01*
X182880Y218440D02*
X165100Y200660D01*
X280670Y243840D02*
X335280Y243840D01*
X139700Y482600D02*
X88900Y482600D01*
X63500Y457200D01*
X25400Y457200D01*
X12700Y469900D01*
X175260Y447040D02*
X204470Y447040D01*
X175260Y447040D02*
X139700Y482600D01*
X91440Y421640D02*
X204470Y421640D01*
X91440Y421640D02*
X12700Y342900D01*
X91440Y396240D02*
X204470Y396240D01*
X91440Y396240D02*
X12700Y317500D01*
X201930Y317500D02*
X204470Y320040D01*
X201930Y317500D02*
X38100Y317500D01*
X12700Y292100D01*
X40640Y294640D02*
X204470Y294640D01*
X40640Y294640D02*
X12700Y266700D01*
X189230Y152400D02*
X204470Y167640D01*
X189230Y152400D02*
X127000Y152400D01*
D22*
X127000Y152400D03*
X127000Y127000D03*
D20*
X50800Y127000D01*
D22*
X50800Y127000D03*
D20*
X12700Y33020D02*
X31750Y13970D01*
X12700Y63500D02*
X38100Y88900D01*
X38100Y101600D01*
D22*
X38100Y101600D03*
D20*
X12700Y63500D02*
X12700Y33020D01*
X204470Y116840D02*
X232410Y88900D01*
X419100Y88900D01*
X423280Y84720D01*
X423280Y68960D01*
X441960Y396240D02*
X280670Y396240D01*
X441960Y396240D02*
X487808Y350392D01*
X487808Y342900D01*
X438150Y370840D02*
X280670Y370840D01*
X438150Y370840D02*
X487808Y321182D01*
X487808Y320040D01*
X391160Y294640D02*
X280670Y294640D01*
X391160Y294640D02*
X431800Y254000D01*
D22*
X431800Y254000D03*
D20*
X396240Y269240D02*
X280670Y269240D01*
X396240Y269240D02*
X411480Y254000D01*
X410210Y252730D01*
D22*
X410210Y252730D03*
X368300Y63500D03*
D20*
X408740Y63500D01*
X411280Y60960D01*
X412750Y193040D02*
X280670Y193040D01*
X412750Y193040D02*
X487808Y268098D01*
X487808Y269240D01*
X412750Y167640D02*
X280670Y167640D01*
X412750Y167640D02*
X487808Y242698D01*
X487808Y243840D01*
X412750Y142240D02*
X280670Y142240D01*
X412750Y142240D02*
X487808Y217298D01*
X487808Y218440D01*
X438150Y345440D02*
X280670Y345440D01*
X438150Y345440D02*
X487808Y295782D01*
X487808Y294640D01*
M02*
