M48
;GenerationSoftware,Autodesk,EAGLE,8.7.1*%
;CreationDate,2018-04-17T03:08:07Z*%
FMAT,2
ICI,OFF
METRIC,TZ,000.000
T7C0.350
T6C0.800
T5C0.813
T4C1.000
T3C1.016
T2C1.900
%
G90
M71
T2
X46228Y9746
X46228Y2446
T3
X48895Y34544
X48895Y16764
X48895Y19304
X48895Y21844
X48895Y24384
X48895Y26924
X48895Y29464
X48895Y32004
X16510Y25146
X1270Y16510
X1270Y19050
X1270Y21590
X1270Y24130
X1270Y26670
X1270Y29210
X1270Y31750
X1270Y34290
X1905Y10414
X6985Y10414
X11430Y45720
X16510Y22606
X16510Y20066
X1270Y36830
X1270Y39370
X6350Y45720
X1270Y46990
X1270Y41910
X1270Y44450
T4
X30925Y2286
X38925Y2286
T5
X28067Y16764
X28067Y11684
X28067Y14224
X20447Y34544
X20447Y11684
X20447Y14224
X20447Y16764
X20447Y19304
X20447Y21844
X20447Y24384
X20447Y26924
X20447Y29464
X20447Y32004
X28067Y42164
X28067Y19304
X28067Y21844
X28067Y24384
X13970Y48260
X22733Y4572
X24638Y3302
X22733Y2032
X28067Y44704
X28067Y26924
X28067Y29464
X28067Y32004
X28067Y34544
X28067Y37084
X28067Y39624
X20447Y39624
X34036Y44704
X34036Y42164
X15240Y13970
X15240Y11430
X28067Y4445
X28067Y1905
X17907Y2159
X17907Y4699
X33528Y24384
X38608Y24384
X13208Y1651
X13208Y6731
X7620Y1270
X3175Y1397
X20447Y37084
X20447Y42164
X20447Y44704
X6223Y27178
X6223Y17018
X3175Y3937
X11303Y26924
X11303Y16764
X8636Y27178
X8636Y17018
X24130Y48260
X7620Y3810
T6
X32925Y2286
X36925Y2286
X34925Y2286
X41128Y4496
X41128Y6096
X41128Y7696
X42328Y5296
X42328Y6896
T7
X16510Y48260
X12700Y15240
X12700Y12700
X5080Y12700
X3810Y10160
X43180Y25400
X41021Y25273
X36830Y6350
X16510Y44450
M30