G04 EAGLE Gerber X2 export*
%TF.Part,Single*%
%TF.FileFunction,Other,Silk bottom*%
%TF.FilePolarity,Positive*%
%TF.GenerationSoftware,Autodesk,EAGLE,8.7.1*%
%TF.CreationDate,2018-04-17T03:08:07Z*%
G75*
%MOMM*%
%FSLAX34Y34*%
%LPD*%
%AMOC8*
5,1,8,0,0,1.08239X$1,22.5*%
G01*
%ADD10C,0.000000*%
%ADD11C,0.406400*%
%ADD12C,0.152400*%
%ADD13C,0.127000*%


D10*
X0Y0D02*
X500000Y0D01*
X500000Y500000D01*
X0Y500000D01*
X0Y0D01*
D11*
X25400Y469900D02*
X38100Y482600D01*
X25400Y469900D02*
X38100Y457200D01*
X38100Y482600D01*
D12*
X465892Y352693D02*
X470408Y352693D01*
X465892Y352694D02*
X465759Y352692D01*
X465627Y352686D01*
X465495Y352676D01*
X465363Y352663D01*
X465231Y352645D01*
X465101Y352624D01*
X464970Y352599D01*
X464841Y352570D01*
X464713Y352537D01*
X464585Y352501D01*
X464459Y352461D01*
X464334Y352417D01*
X464210Y352369D01*
X464088Y352318D01*
X463967Y352263D01*
X463848Y352205D01*
X463730Y352143D01*
X463615Y352078D01*
X463501Y352009D01*
X463390Y351938D01*
X463281Y351862D01*
X463174Y351784D01*
X463069Y351703D01*
X462967Y351618D01*
X462867Y351531D01*
X462770Y351441D01*
X462675Y351348D01*
X462584Y351252D01*
X462495Y351154D01*
X462409Y351053D01*
X462326Y350949D01*
X462246Y350843D01*
X462170Y350735D01*
X462096Y350625D01*
X462026Y350512D01*
X461959Y350398D01*
X461896Y350281D01*
X461836Y350163D01*
X461779Y350043D01*
X461726Y349921D01*
X461677Y349798D01*
X461631Y349674D01*
X461589Y349548D01*
X461551Y349421D01*
X461516Y349293D01*
X461485Y349164D01*
X461458Y349035D01*
X461435Y348904D01*
X461415Y348773D01*
X461400Y348641D01*
X461388Y348509D01*
X461380Y348377D01*
X461376Y348244D01*
X461376Y348112D01*
X461380Y347979D01*
X461388Y347847D01*
X461400Y347715D01*
X461415Y347583D01*
X461435Y347452D01*
X461458Y347321D01*
X461485Y347192D01*
X461516Y347063D01*
X461551Y346935D01*
X461589Y346808D01*
X461631Y346682D01*
X461677Y346558D01*
X461726Y346435D01*
X461779Y346313D01*
X461836Y346193D01*
X461896Y346075D01*
X461959Y345958D01*
X462026Y345844D01*
X462096Y345731D01*
X462170Y345621D01*
X462246Y345513D01*
X462326Y345407D01*
X462409Y345303D01*
X462495Y345202D01*
X462584Y345104D01*
X462675Y345008D01*
X462770Y344915D01*
X462867Y344825D01*
X462967Y344738D01*
X463069Y344653D01*
X463174Y344572D01*
X463281Y344494D01*
X463390Y344418D01*
X463501Y344347D01*
X463615Y344278D01*
X463730Y344213D01*
X463848Y344151D01*
X463967Y344093D01*
X464088Y344038D01*
X464210Y343987D01*
X464334Y343939D01*
X464459Y343895D01*
X464585Y343855D01*
X464713Y343819D01*
X464841Y343786D01*
X464970Y343757D01*
X465101Y343732D01*
X465231Y343711D01*
X465363Y343693D01*
X465495Y343680D01*
X465627Y343670D01*
X465759Y343664D01*
X465892Y343662D01*
X470408Y343662D01*
X470408Y359918D01*
X465892Y359918D01*
X465773Y359916D01*
X465653Y359910D01*
X465534Y359900D01*
X465416Y359886D01*
X465297Y359869D01*
X465180Y359847D01*
X465063Y359822D01*
X464948Y359792D01*
X464833Y359759D01*
X464719Y359722D01*
X464607Y359682D01*
X464496Y359637D01*
X464387Y359589D01*
X464279Y359538D01*
X464173Y359483D01*
X464069Y359424D01*
X463967Y359362D01*
X463867Y359297D01*
X463769Y359228D01*
X463673Y359156D01*
X463580Y359081D01*
X463490Y359004D01*
X463402Y358923D01*
X463317Y358839D01*
X463235Y358752D01*
X463155Y358663D01*
X463079Y358571D01*
X463005Y358477D01*
X462935Y358380D01*
X462868Y358282D01*
X462804Y358181D01*
X462744Y358077D01*
X462687Y357972D01*
X462634Y357865D01*
X462584Y357757D01*
X462538Y357647D01*
X462496Y357535D01*
X462457Y357422D01*
X462422Y357308D01*
X462391Y357193D01*
X462363Y357076D01*
X462340Y356959D01*
X462320Y356842D01*
X462304Y356723D01*
X462292Y356604D01*
X462284Y356485D01*
X462280Y356366D01*
X462280Y356246D01*
X462284Y356127D01*
X462292Y356008D01*
X462304Y355889D01*
X462320Y355770D01*
X462340Y355653D01*
X462363Y355536D01*
X462391Y355419D01*
X462422Y355304D01*
X462457Y355190D01*
X462496Y355077D01*
X462538Y354965D01*
X462584Y354855D01*
X462634Y354747D01*
X462687Y354640D01*
X462744Y354535D01*
X462804Y354431D01*
X462868Y354330D01*
X462935Y354232D01*
X463005Y354135D01*
X463079Y354041D01*
X463155Y353949D01*
X463235Y353860D01*
X463317Y353773D01*
X463402Y353689D01*
X463490Y353608D01*
X463580Y353531D01*
X463673Y353456D01*
X463769Y353384D01*
X463867Y353315D01*
X463967Y353250D01*
X464069Y353188D01*
X464173Y353129D01*
X464279Y353074D01*
X464387Y353023D01*
X464496Y352975D01*
X464607Y352930D01*
X464719Y352890D01*
X464833Y352853D01*
X464948Y352820D01*
X465063Y352790D01*
X465180Y352765D01*
X465297Y352743D01*
X465416Y352726D01*
X465534Y352712D01*
X465653Y352702D01*
X465773Y352696D01*
X465892Y352694D01*
X455509Y356306D02*
X450993Y359918D01*
X450993Y343662D01*
X446478Y343662D02*
X455509Y343662D01*
X439878Y343662D02*
X434459Y343662D01*
X434341Y343664D01*
X434223Y343670D01*
X434105Y343679D01*
X433988Y343693D01*
X433871Y343710D01*
X433754Y343731D01*
X433639Y343756D01*
X433524Y343785D01*
X433410Y343818D01*
X433298Y343854D01*
X433187Y343894D01*
X433077Y343937D01*
X432968Y343984D01*
X432861Y344034D01*
X432756Y344089D01*
X432653Y344146D01*
X432552Y344207D01*
X432452Y344271D01*
X432355Y344338D01*
X432260Y344408D01*
X432168Y344482D01*
X432077Y344558D01*
X431990Y344638D01*
X431905Y344720D01*
X431823Y344805D01*
X431743Y344892D01*
X431667Y344983D01*
X431593Y345075D01*
X431523Y345170D01*
X431456Y345267D01*
X431392Y345367D01*
X431331Y345468D01*
X431274Y345571D01*
X431219Y345676D01*
X431169Y345783D01*
X431122Y345892D01*
X431079Y346002D01*
X431039Y346113D01*
X431003Y346225D01*
X430970Y346339D01*
X430941Y346454D01*
X430916Y346569D01*
X430895Y346686D01*
X430878Y346803D01*
X430864Y346920D01*
X430855Y347038D01*
X430849Y347156D01*
X430847Y347274D01*
X430846Y347274D02*
X430846Y349081D01*
X430847Y349081D02*
X430849Y349199D01*
X430855Y349317D01*
X430864Y349435D01*
X430878Y349552D01*
X430895Y349669D01*
X430916Y349786D01*
X430941Y349901D01*
X430970Y350016D01*
X431003Y350130D01*
X431039Y350242D01*
X431079Y350353D01*
X431122Y350463D01*
X431169Y350572D01*
X431219Y350679D01*
X431274Y350784D01*
X431331Y350887D01*
X431392Y350988D01*
X431456Y351088D01*
X431523Y351185D01*
X431593Y351280D01*
X431667Y351372D01*
X431743Y351463D01*
X431823Y351550D01*
X431905Y351635D01*
X431990Y351717D01*
X432077Y351797D01*
X432168Y351873D01*
X432260Y351947D01*
X432355Y352017D01*
X432452Y352084D01*
X432552Y352148D01*
X432653Y352209D01*
X432756Y352266D01*
X432861Y352321D01*
X432968Y352371D01*
X433077Y352418D01*
X433187Y352461D01*
X433298Y352501D01*
X433410Y352537D01*
X433524Y352570D01*
X433639Y352599D01*
X433754Y352624D01*
X433871Y352645D01*
X433988Y352662D01*
X434105Y352676D01*
X434223Y352685D01*
X434341Y352691D01*
X434459Y352693D01*
X439878Y352693D01*
X439878Y359918D01*
X430846Y359918D01*
X465892Y327293D02*
X470408Y327293D01*
X465892Y327294D02*
X465759Y327292D01*
X465627Y327286D01*
X465495Y327276D01*
X465363Y327263D01*
X465231Y327245D01*
X465101Y327224D01*
X464970Y327199D01*
X464841Y327170D01*
X464713Y327137D01*
X464585Y327101D01*
X464459Y327061D01*
X464334Y327017D01*
X464210Y326969D01*
X464088Y326918D01*
X463967Y326863D01*
X463848Y326805D01*
X463730Y326743D01*
X463615Y326678D01*
X463501Y326609D01*
X463390Y326538D01*
X463281Y326462D01*
X463174Y326384D01*
X463069Y326303D01*
X462967Y326218D01*
X462867Y326131D01*
X462770Y326041D01*
X462675Y325948D01*
X462584Y325852D01*
X462495Y325754D01*
X462409Y325653D01*
X462326Y325549D01*
X462246Y325443D01*
X462170Y325335D01*
X462096Y325225D01*
X462026Y325112D01*
X461959Y324998D01*
X461896Y324881D01*
X461836Y324763D01*
X461779Y324643D01*
X461726Y324521D01*
X461677Y324398D01*
X461631Y324274D01*
X461589Y324148D01*
X461551Y324021D01*
X461516Y323893D01*
X461485Y323764D01*
X461458Y323635D01*
X461435Y323504D01*
X461415Y323373D01*
X461400Y323241D01*
X461388Y323109D01*
X461380Y322977D01*
X461376Y322844D01*
X461376Y322712D01*
X461380Y322579D01*
X461388Y322447D01*
X461400Y322315D01*
X461415Y322183D01*
X461435Y322052D01*
X461458Y321921D01*
X461485Y321792D01*
X461516Y321663D01*
X461551Y321535D01*
X461589Y321408D01*
X461631Y321282D01*
X461677Y321158D01*
X461726Y321035D01*
X461779Y320913D01*
X461836Y320793D01*
X461896Y320675D01*
X461959Y320558D01*
X462026Y320444D01*
X462096Y320331D01*
X462170Y320221D01*
X462246Y320113D01*
X462326Y320007D01*
X462409Y319903D01*
X462495Y319802D01*
X462584Y319704D01*
X462675Y319608D01*
X462770Y319515D01*
X462867Y319425D01*
X462967Y319338D01*
X463069Y319253D01*
X463174Y319172D01*
X463281Y319094D01*
X463390Y319018D01*
X463501Y318947D01*
X463615Y318878D01*
X463730Y318813D01*
X463848Y318751D01*
X463967Y318693D01*
X464088Y318638D01*
X464210Y318587D01*
X464334Y318539D01*
X464459Y318495D01*
X464585Y318455D01*
X464713Y318419D01*
X464841Y318386D01*
X464970Y318357D01*
X465101Y318332D01*
X465231Y318311D01*
X465363Y318293D01*
X465495Y318280D01*
X465627Y318270D01*
X465759Y318264D01*
X465892Y318262D01*
X470408Y318262D01*
X470408Y334518D01*
X465892Y334518D01*
X465773Y334516D01*
X465653Y334510D01*
X465534Y334500D01*
X465416Y334486D01*
X465297Y334469D01*
X465180Y334447D01*
X465063Y334422D01*
X464948Y334392D01*
X464833Y334359D01*
X464719Y334322D01*
X464607Y334282D01*
X464496Y334237D01*
X464387Y334189D01*
X464279Y334138D01*
X464173Y334083D01*
X464069Y334024D01*
X463967Y333962D01*
X463867Y333897D01*
X463769Y333828D01*
X463673Y333756D01*
X463580Y333681D01*
X463490Y333604D01*
X463402Y333523D01*
X463317Y333439D01*
X463235Y333352D01*
X463155Y333263D01*
X463079Y333171D01*
X463005Y333077D01*
X462935Y332980D01*
X462868Y332882D01*
X462804Y332781D01*
X462744Y332677D01*
X462687Y332572D01*
X462634Y332465D01*
X462584Y332357D01*
X462538Y332247D01*
X462496Y332135D01*
X462457Y332022D01*
X462422Y331908D01*
X462391Y331793D01*
X462363Y331676D01*
X462340Y331559D01*
X462320Y331442D01*
X462304Y331323D01*
X462292Y331204D01*
X462284Y331085D01*
X462280Y330966D01*
X462280Y330846D01*
X462284Y330727D01*
X462292Y330608D01*
X462304Y330489D01*
X462320Y330370D01*
X462340Y330253D01*
X462363Y330136D01*
X462391Y330019D01*
X462422Y329904D01*
X462457Y329790D01*
X462496Y329677D01*
X462538Y329565D01*
X462584Y329455D01*
X462634Y329347D01*
X462687Y329240D01*
X462744Y329135D01*
X462804Y329031D01*
X462868Y328930D01*
X462935Y328832D01*
X463005Y328735D01*
X463079Y328641D01*
X463155Y328549D01*
X463235Y328460D01*
X463317Y328373D01*
X463402Y328289D01*
X463490Y328208D01*
X463580Y328131D01*
X463673Y328056D01*
X463769Y327984D01*
X463867Y327915D01*
X463967Y327850D01*
X464069Y327788D01*
X464173Y327729D01*
X464279Y327674D01*
X464387Y327623D01*
X464496Y327575D01*
X464607Y327530D01*
X464719Y327490D01*
X464833Y327453D01*
X464948Y327420D01*
X465063Y327390D01*
X465180Y327365D01*
X465297Y327343D01*
X465416Y327326D01*
X465534Y327312D01*
X465653Y327302D01*
X465773Y327296D01*
X465892Y327294D01*
X455509Y330906D02*
X450993Y334518D01*
X450993Y318262D01*
X446478Y318262D02*
X455509Y318262D01*
X439878Y321874D02*
X436265Y334518D01*
X439878Y321874D02*
X430846Y321874D01*
X433556Y318262D02*
X433556Y325487D01*
X465892Y301893D02*
X470408Y301893D01*
X465892Y301894D02*
X465759Y301892D01*
X465627Y301886D01*
X465495Y301876D01*
X465363Y301863D01*
X465231Y301845D01*
X465101Y301824D01*
X464970Y301799D01*
X464841Y301770D01*
X464713Y301737D01*
X464585Y301701D01*
X464459Y301661D01*
X464334Y301617D01*
X464210Y301569D01*
X464088Y301518D01*
X463967Y301463D01*
X463848Y301405D01*
X463730Y301343D01*
X463615Y301278D01*
X463501Y301209D01*
X463390Y301138D01*
X463281Y301062D01*
X463174Y300984D01*
X463069Y300903D01*
X462967Y300818D01*
X462867Y300731D01*
X462770Y300641D01*
X462675Y300548D01*
X462584Y300452D01*
X462495Y300354D01*
X462409Y300253D01*
X462326Y300149D01*
X462246Y300043D01*
X462170Y299935D01*
X462096Y299825D01*
X462026Y299712D01*
X461959Y299598D01*
X461896Y299481D01*
X461836Y299363D01*
X461779Y299243D01*
X461726Y299121D01*
X461677Y298998D01*
X461631Y298874D01*
X461589Y298748D01*
X461551Y298621D01*
X461516Y298493D01*
X461485Y298364D01*
X461458Y298235D01*
X461435Y298104D01*
X461415Y297973D01*
X461400Y297841D01*
X461388Y297709D01*
X461380Y297577D01*
X461376Y297444D01*
X461376Y297312D01*
X461380Y297179D01*
X461388Y297047D01*
X461400Y296915D01*
X461415Y296783D01*
X461435Y296652D01*
X461458Y296521D01*
X461485Y296392D01*
X461516Y296263D01*
X461551Y296135D01*
X461589Y296008D01*
X461631Y295882D01*
X461677Y295758D01*
X461726Y295635D01*
X461779Y295513D01*
X461836Y295393D01*
X461896Y295275D01*
X461959Y295158D01*
X462026Y295044D01*
X462096Y294931D01*
X462170Y294821D01*
X462246Y294713D01*
X462326Y294607D01*
X462409Y294503D01*
X462495Y294402D01*
X462584Y294304D01*
X462675Y294208D01*
X462770Y294115D01*
X462867Y294025D01*
X462967Y293938D01*
X463069Y293853D01*
X463174Y293772D01*
X463281Y293694D01*
X463390Y293618D01*
X463501Y293547D01*
X463615Y293478D01*
X463730Y293413D01*
X463848Y293351D01*
X463967Y293293D01*
X464088Y293238D01*
X464210Y293187D01*
X464334Y293139D01*
X464459Y293095D01*
X464585Y293055D01*
X464713Y293019D01*
X464841Y292986D01*
X464970Y292957D01*
X465101Y292932D01*
X465231Y292911D01*
X465363Y292893D01*
X465495Y292880D01*
X465627Y292870D01*
X465759Y292864D01*
X465892Y292862D01*
X470408Y292862D01*
X470408Y309118D01*
X465892Y309118D01*
X465773Y309116D01*
X465653Y309110D01*
X465534Y309100D01*
X465416Y309086D01*
X465297Y309069D01*
X465180Y309047D01*
X465063Y309022D01*
X464948Y308992D01*
X464833Y308959D01*
X464719Y308922D01*
X464607Y308882D01*
X464496Y308837D01*
X464387Y308789D01*
X464279Y308738D01*
X464173Y308683D01*
X464069Y308624D01*
X463967Y308562D01*
X463867Y308497D01*
X463769Y308428D01*
X463673Y308356D01*
X463580Y308281D01*
X463490Y308204D01*
X463402Y308123D01*
X463317Y308039D01*
X463235Y307952D01*
X463155Y307863D01*
X463079Y307771D01*
X463005Y307677D01*
X462935Y307580D01*
X462868Y307482D01*
X462804Y307381D01*
X462744Y307277D01*
X462687Y307172D01*
X462634Y307065D01*
X462584Y306957D01*
X462538Y306847D01*
X462496Y306735D01*
X462457Y306622D01*
X462422Y306508D01*
X462391Y306393D01*
X462363Y306276D01*
X462340Y306159D01*
X462320Y306042D01*
X462304Y305923D01*
X462292Y305804D01*
X462284Y305685D01*
X462280Y305566D01*
X462280Y305446D01*
X462284Y305327D01*
X462292Y305208D01*
X462304Y305089D01*
X462320Y304970D01*
X462340Y304853D01*
X462363Y304736D01*
X462391Y304619D01*
X462422Y304504D01*
X462457Y304390D01*
X462496Y304277D01*
X462538Y304165D01*
X462584Y304055D01*
X462634Y303947D01*
X462687Y303840D01*
X462744Y303735D01*
X462804Y303631D01*
X462868Y303530D01*
X462935Y303432D01*
X463005Y303335D01*
X463079Y303241D01*
X463155Y303149D01*
X463235Y303060D01*
X463317Y302973D01*
X463402Y302889D01*
X463490Y302808D01*
X463580Y302731D01*
X463673Y302656D01*
X463769Y302584D01*
X463867Y302515D01*
X463967Y302450D01*
X464069Y302388D01*
X464173Y302329D01*
X464279Y302274D01*
X464387Y302223D01*
X464496Y302175D01*
X464607Y302130D01*
X464719Y302090D01*
X464833Y302053D01*
X464948Y302020D01*
X465063Y301990D01*
X465180Y301965D01*
X465297Y301943D01*
X465416Y301926D01*
X465534Y301912D01*
X465653Y301902D01*
X465773Y301896D01*
X465892Y301894D01*
X455509Y305506D02*
X450993Y309118D01*
X450993Y292862D01*
X446478Y292862D02*
X455509Y292862D01*
X439878Y292862D02*
X435362Y292862D01*
X435229Y292864D01*
X435097Y292870D01*
X434965Y292880D01*
X434833Y292893D01*
X434701Y292911D01*
X434571Y292932D01*
X434440Y292957D01*
X434311Y292986D01*
X434183Y293019D01*
X434055Y293055D01*
X433929Y293095D01*
X433804Y293139D01*
X433680Y293187D01*
X433558Y293238D01*
X433437Y293293D01*
X433318Y293351D01*
X433200Y293413D01*
X433085Y293478D01*
X432971Y293547D01*
X432860Y293618D01*
X432751Y293694D01*
X432644Y293772D01*
X432539Y293853D01*
X432437Y293938D01*
X432337Y294025D01*
X432240Y294115D01*
X432145Y294208D01*
X432054Y294304D01*
X431965Y294402D01*
X431879Y294503D01*
X431796Y294607D01*
X431716Y294713D01*
X431640Y294821D01*
X431566Y294931D01*
X431496Y295044D01*
X431429Y295158D01*
X431366Y295275D01*
X431306Y295393D01*
X431249Y295513D01*
X431196Y295635D01*
X431147Y295758D01*
X431101Y295882D01*
X431059Y296008D01*
X431021Y296135D01*
X430986Y296263D01*
X430955Y296392D01*
X430928Y296521D01*
X430905Y296652D01*
X430885Y296783D01*
X430870Y296915D01*
X430858Y297047D01*
X430850Y297179D01*
X430846Y297312D01*
X430846Y297444D01*
X430850Y297577D01*
X430858Y297709D01*
X430870Y297841D01*
X430885Y297973D01*
X430905Y298104D01*
X430928Y298235D01*
X430955Y298364D01*
X430986Y298493D01*
X431021Y298621D01*
X431059Y298748D01*
X431101Y298874D01*
X431147Y298998D01*
X431196Y299121D01*
X431249Y299243D01*
X431306Y299363D01*
X431366Y299481D01*
X431429Y299598D01*
X431496Y299712D01*
X431566Y299825D01*
X431640Y299935D01*
X431716Y300043D01*
X431796Y300149D01*
X431879Y300253D01*
X431965Y300354D01*
X432054Y300452D01*
X432145Y300548D01*
X432240Y300641D01*
X432337Y300731D01*
X432437Y300818D01*
X432539Y300903D01*
X432644Y300984D01*
X432751Y301062D01*
X432860Y301138D01*
X432971Y301209D01*
X433085Y301278D01*
X433200Y301343D01*
X433318Y301405D01*
X433437Y301463D01*
X433558Y301518D01*
X433680Y301569D01*
X433804Y301617D01*
X433929Y301661D01*
X434055Y301701D01*
X434183Y301737D01*
X434311Y301770D01*
X434440Y301799D01*
X434571Y301824D01*
X434701Y301845D01*
X434833Y301863D01*
X434965Y301876D01*
X435097Y301886D01*
X435229Y301892D01*
X435362Y301894D01*
X434459Y309118D02*
X439878Y309118D01*
X434459Y309118D02*
X434340Y309116D01*
X434220Y309110D01*
X434101Y309100D01*
X433983Y309086D01*
X433864Y309069D01*
X433747Y309047D01*
X433630Y309022D01*
X433515Y308992D01*
X433400Y308959D01*
X433286Y308922D01*
X433174Y308882D01*
X433063Y308837D01*
X432954Y308789D01*
X432846Y308738D01*
X432740Y308683D01*
X432636Y308624D01*
X432534Y308562D01*
X432434Y308497D01*
X432336Y308428D01*
X432240Y308356D01*
X432147Y308281D01*
X432057Y308204D01*
X431969Y308123D01*
X431884Y308039D01*
X431802Y307952D01*
X431722Y307863D01*
X431646Y307771D01*
X431572Y307677D01*
X431502Y307580D01*
X431435Y307482D01*
X431371Y307381D01*
X431311Y307277D01*
X431254Y307172D01*
X431201Y307065D01*
X431151Y306957D01*
X431105Y306847D01*
X431063Y306735D01*
X431024Y306622D01*
X430989Y306508D01*
X430958Y306393D01*
X430930Y306276D01*
X430907Y306159D01*
X430887Y306042D01*
X430871Y305923D01*
X430859Y305804D01*
X430851Y305685D01*
X430847Y305566D01*
X430847Y305446D01*
X430851Y305327D01*
X430859Y305208D01*
X430871Y305089D01*
X430887Y304970D01*
X430907Y304853D01*
X430930Y304736D01*
X430958Y304619D01*
X430989Y304504D01*
X431024Y304390D01*
X431063Y304277D01*
X431105Y304165D01*
X431151Y304055D01*
X431201Y303947D01*
X431254Y303840D01*
X431311Y303735D01*
X431371Y303631D01*
X431435Y303530D01*
X431502Y303432D01*
X431572Y303335D01*
X431646Y303241D01*
X431722Y303149D01*
X431802Y303060D01*
X431884Y302973D01*
X431969Y302889D01*
X432057Y302808D01*
X432147Y302731D01*
X432240Y302656D01*
X432336Y302584D01*
X432434Y302515D01*
X432534Y302450D01*
X432636Y302388D01*
X432740Y302329D01*
X432846Y302274D01*
X432954Y302223D01*
X433063Y302175D01*
X433174Y302130D01*
X433286Y302090D01*
X433400Y302053D01*
X433515Y302020D01*
X433630Y301990D01*
X433747Y301965D01*
X433864Y301943D01*
X433983Y301926D01*
X434101Y301912D01*
X434220Y301902D01*
X434340Y301896D01*
X434459Y301894D01*
X434459Y301893D02*
X438071Y301893D01*
X465892Y276493D02*
X470408Y276493D01*
X465892Y276494D02*
X465759Y276492D01*
X465627Y276486D01*
X465495Y276476D01*
X465363Y276463D01*
X465231Y276445D01*
X465101Y276424D01*
X464970Y276399D01*
X464841Y276370D01*
X464713Y276337D01*
X464585Y276301D01*
X464459Y276261D01*
X464334Y276217D01*
X464210Y276169D01*
X464088Y276118D01*
X463967Y276063D01*
X463848Y276005D01*
X463730Y275943D01*
X463615Y275878D01*
X463501Y275809D01*
X463390Y275738D01*
X463281Y275662D01*
X463174Y275584D01*
X463069Y275503D01*
X462967Y275418D01*
X462867Y275331D01*
X462770Y275241D01*
X462675Y275148D01*
X462584Y275052D01*
X462495Y274954D01*
X462409Y274853D01*
X462326Y274749D01*
X462246Y274643D01*
X462170Y274535D01*
X462096Y274425D01*
X462026Y274312D01*
X461959Y274198D01*
X461896Y274081D01*
X461836Y273963D01*
X461779Y273843D01*
X461726Y273721D01*
X461677Y273598D01*
X461631Y273474D01*
X461589Y273348D01*
X461551Y273221D01*
X461516Y273093D01*
X461485Y272964D01*
X461458Y272835D01*
X461435Y272704D01*
X461415Y272573D01*
X461400Y272441D01*
X461388Y272309D01*
X461380Y272177D01*
X461376Y272044D01*
X461376Y271912D01*
X461380Y271779D01*
X461388Y271647D01*
X461400Y271515D01*
X461415Y271383D01*
X461435Y271252D01*
X461458Y271121D01*
X461485Y270992D01*
X461516Y270863D01*
X461551Y270735D01*
X461589Y270608D01*
X461631Y270482D01*
X461677Y270358D01*
X461726Y270235D01*
X461779Y270113D01*
X461836Y269993D01*
X461896Y269875D01*
X461959Y269758D01*
X462026Y269644D01*
X462096Y269531D01*
X462170Y269421D01*
X462246Y269313D01*
X462326Y269207D01*
X462409Y269103D01*
X462495Y269002D01*
X462584Y268904D01*
X462675Y268808D01*
X462770Y268715D01*
X462867Y268625D01*
X462967Y268538D01*
X463069Y268453D01*
X463174Y268372D01*
X463281Y268294D01*
X463390Y268218D01*
X463501Y268147D01*
X463615Y268078D01*
X463730Y268013D01*
X463848Y267951D01*
X463967Y267893D01*
X464088Y267838D01*
X464210Y267787D01*
X464334Y267739D01*
X464459Y267695D01*
X464585Y267655D01*
X464713Y267619D01*
X464841Y267586D01*
X464970Y267557D01*
X465101Y267532D01*
X465231Y267511D01*
X465363Y267493D01*
X465495Y267480D01*
X465627Y267470D01*
X465759Y267464D01*
X465892Y267462D01*
X470408Y267462D01*
X470408Y283718D01*
X465892Y283718D01*
X465773Y283716D01*
X465653Y283710D01*
X465534Y283700D01*
X465416Y283686D01*
X465297Y283669D01*
X465180Y283647D01*
X465063Y283622D01*
X464948Y283592D01*
X464833Y283559D01*
X464719Y283522D01*
X464607Y283482D01*
X464496Y283437D01*
X464387Y283389D01*
X464279Y283338D01*
X464173Y283283D01*
X464069Y283224D01*
X463967Y283162D01*
X463867Y283097D01*
X463769Y283028D01*
X463673Y282956D01*
X463580Y282881D01*
X463490Y282804D01*
X463402Y282723D01*
X463317Y282639D01*
X463235Y282552D01*
X463155Y282463D01*
X463079Y282371D01*
X463005Y282277D01*
X462935Y282180D01*
X462868Y282082D01*
X462804Y281981D01*
X462744Y281877D01*
X462687Y281772D01*
X462634Y281665D01*
X462584Y281557D01*
X462538Y281447D01*
X462496Y281335D01*
X462457Y281222D01*
X462422Y281108D01*
X462391Y280993D01*
X462363Y280876D01*
X462340Y280759D01*
X462320Y280642D01*
X462304Y280523D01*
X462292Y280404D01*
X462284Y280285D01*
X462280Y280166D01*
X462280Y280046D01*
X462284Y279927D01*
X462292Y279808D01*
X462304Y279689D01*
X462320Y279570D01*
X462340Y279453D01*
X462363Y279336D01*
X462391Y279219D01*
X462422Y279104D01*
X462457Y278990D01*
X462496Y278877D01*
X462538Y278765D01*
X462584Y278655D01*
X462634Y278547D01*
X462687Y278440D01*
X462744Y278335D01*
X462804Y278231D01*
X462868Y278130D01*
X462935Y278032D01*
X463005Y277935D01*
X463079Y277841D01*
X463155Y277749D01*
X463235Y277660D01*
X463317Y277573D01*
X463402Y277489D01*
X463490Y277408D01*
X463580Y277331D01*
X463673Y277256D01*
X463769Y277184D01*
X463867Y277115D01*
X463967Y277050D01*
X464069Y276988D01*
X464173Y276929D01*
X464279Y276874D01*
X464387Y276823D01*
X464496Y276775D01*
X464607Y276730D01*
X464719Y276690D01*
X464833Y276653D01*
X464948Y276620D01*
X465063Y276590D01*
X465180Y276565D01*
X465297Y276543D01*
X465416Y276526D01*
X465534Y276512D01*
X465653Y276502D01*
X465773Y276496D01*
X465892Y276494D01*
X451896Y274687D02*
X446478Y274687D01*
X451896Y274687D02*
X452014Y274689D01*
X452132Y274695D01*
X452250Y274704D01*
X452367Y274718D01*
X452484Y274735D01*
X452601Y274756D01*
X452716Y274781D01*
X452831Y274810D01*
X452945Y274843D01*
X453057Y274879D01*
X453168Y274919D01*
X453278Y274962D01*
X453387Y275009D01*
X453494Y275059D01*
X453599Y275114D01*
X453702Y275171D01*
X453803Y275232D01*
X453903Y275296D01*
X454000Y275363D01*
X454095Y275433D01*
X454187Y275507D01*
X454278Y275583D01*
X454365Y275663D01*
X454450Y275745D01*
X454532Y275830D01*
X454612Y275917D01*
X454688Y276008D01*
X454762Y276100D01*
X454832Y276195D01*
X454899Y276292D01*
X454963Y276392D01*
X455024Y276493D01*
X455081Y276596D01*
X455136Y276701D01*
X455186Y276808D01*
X455233Y276917D01*
X455276Y277027D01*
X455316Y277138D01*
X455352Y277250D01*
X455385Y277364D01*
X455414Y277479D01*
X455439Y277594D01*
X455460Y277711D01*
X455477Y277828D01*
X455491Y277945D01*
X455500Y278063D01*
X455506Y278181D01*
X455508Y278299D01*
X455509Y278299D02*
X455509Y279202D01*
X455507Y279335D01*
X455501Y279467D01*
X455491Y279599D01*
X455478Y279731D01*
X455460Y279863D01*
X455439Y279993D01*
X455414Y280124D01*
X455385Y280253D01*
X455352Y280381D01*
X455316Y280509D01*
X455276Y280635D01*
X455232Y280760D01*
X455184Y280884D01*
X455133Y281006D01*
X455078Y281127D01*
X455020Y281246D01*
X454958Y281364D01*
X454893Y281479D01*
X454824Y281593D01*
X454753Y281704D01*
X454677Y281813D01*
X454599Y281920D01*
X454518Y282025D01*
X454433Y282127D01*
X454346Y282227D01*
X454256Y282324D01*
X454163Y282419D01*
X454067Y282510D01*
X453969Y282599D01*
X453868Y282685D01*
X453764Y282768D01*
X453658Y282848D01*
X453550Y282924D01*
X453440Y282998D01*
X453327Y283068D01*
X453213Y283135D01*
X453096Y283198D01*
X452978Y283258D01*
X452858Y283315D01*
X452736Y283368D01*
X452613Y283417D01*
X452489Y283463D01*
X452363Y283505D01*
X452236Y283543D01*
X452108Y283578D01*
X451979Y283609D01*
X451850Y283636D01*
X451719Y283659D01*
X451588Y283679D01*
X451456Y283694D01*
X451324Y283706D01*
X451192Y283714D01*
X451059Y283718D01*
X450927Y283718D01*
X450794Y283714D01*
X450662Y283706D01*
X450530Y283694D01*
X450398Y283679D01*
X450267Y283659D01*
X450136Y283636D01*
X450007Y283609D01*
X449878Y283578D01*
X449750Y283543D01*
X449623Y283505D01*
X449497Y283463D01*
X449373Y283417D01*
X449250Y283368D01*
X449128Y283315D01*
X449008Y283258D01*
X448890Y283198D01*
X448773Y283135D01*
X448659Y283068D01*
X448546Y282998D01*
X448436Y282924D01*
X448328Y282848D01*
X448222Y282768D01*
X448118Y282685D01*
X448017Y282599D01*
X447919Y282510D01*
X447823Y282419D01*
X447730Y282324D01*
X447640Y282227D01*
X447553Y282127D01*
X447468Y282025D01*
X447387Y281920D01*
X447309Y281813D01*
X447233Y281704D01*
X447162Y281593D01*
X447093Y281479D01*
X447028Y281364D01*
X446966Y281246D01*
X446908Y281127D01*
X446853Y281006D01*
X446802Y280884D01*
X446754Y280760D01*
X446710Y280635D01*
X446670Y280509D01*
X446634Y280381D01*
X446601Y280253D01*
X446572Y280124D01*
X446547Y279993D01*
X446526Y279863D01*
X446508Y279731D01*
X446495Y279599D01*
X446485Y279467D01*
X446479Y279335D01*
X446477Y279202D01*
X446478Y279202D02*
X446478Y274687D01*
X446480Y274512D01*
X446486Y274338D01*
X446497Y274164D01*
X446512Y273990D01*
X446531Y273816D01*
X446554Y273643D01*
X446581Y273471D01*
X446613Y273299D01*
X446648Y273128D01*
X446688Y272958D01*
X446732Y272789D01*
X446780Y272621D01*
X446832Y272454D01*
X446888Y272289D01*
X446948Y272125D01*
X447011Y271962D01*
X447079Y271802D01*
X447151Y271642D01*
X447226Y271485D01*
X447306Y271329D01*
X447389Y271176D01*
X447475Y271024D01*
X447566Y270875D01*
X447660Y270728D01*
X447757Y270583D01*
X447858Y270440D01*
X447962Y270300D01*
X448070Y270163D01*
X448181Y270028D01*
X448295Y269896D01*
X448412Y269767D01*
X448533Y269640D01*
X448656Y269517D01*
X448783Y269396D01*
X448912Y269279D01*
X449044Y269165D01*
X449179Y269054D01*
X449316Y268946D01*
X449456Y268842D01*
X449599Y268741D01*
X449744Y268644D01*
X449891Y268550D01*
X450040Y268459D01*
X450192Y268373D01*
X450345Y268290D01*
X450501Y268210D01*
X450658Y268135D01*
X450818Y268063D01*
X450978Y267995D01*
X451141Y267932D01*
X451305Y267872D01*
X451470Y267816D01*
X451637Y267764D01*
X451805Y267716D01*
X451974Y267672D01*
X452144Y267632D01*
X452315Y267597D01*
X452487Y267565D01*
X452659Y267538D01*
X452832Y267515D01*
X453006Y267496D01*
X453180Y267481D01*
X453354Y267470D01*
X453528Y267464D01*
X453703Y267462D01*
X465892Y238393D02*
X470408Y238393D01*
X465892Y238394D02*
X465759Y238392D01*
X465627Y238386D01*
X465495Y238376D01*
X465363Y238363D01*
X465231Y238345D01*
X465101Y238324D01*
X464970Y238299D01*
X464841Y238270D01*
X464713Y238237D01*
X464585Y238201D01*
X464459Y238161D01*
X464334Y238117D01*
X464210Y238069D01*
X464088Y238018D01*
X463967Y237963D01*
X463848Y237905D01*
X463730Y237843D01*
X463615Y237778D01*
X463501Y237709D01*
X463390Y237638D01*
X463281Y237562D01*
X463174Y237484D01*
X463069Y237403D01*
X462967Y237318D01*
X462867Y237231D01*
X462770Y237141D01*
X462675Y237048D01*
X462584Y236952D01*
X462495Y236854D01*
X462409Y236753D01*
X462326Y236649D01*
X462246Y236543D01*
X462170Y236435D01*
X462096Y236325D01*
X462026Y236212D01*
X461959Y236098D01*
X461896Y235981D01*
X461836Y235863D01*
X461779Y235743D01*
X461726Y235621D01*
X461677Y235498D01*
X461631Y235374D01*
X461589Y235248D01*
X461551Y235121D01*
X461516Y234993D01*
X461485Y234864D01*
X461458Y234735D01*
X461435Y234604D01*
X461415Y234473D01*
X461400Y234341D01*
X461388Y234209D01*
X461380Y234077D01*
X461376Y233944D01*
X461376Y233812D01*
X461380Y233679D01*
X461388Y233547D01*
X461400Y233415D01*
X461415Y233283D01*
X461435Y233152D01*
X461458Y233021D01*
X461485Y232892D01*
X461516Y232763D01*
X461551Y232635D01*
X461589Y232508D01*
X461631Y232382D01*
X461677Y232258D01*
X461726Y232135D01*
X461779Y232013D01*
X461836Y231893D01*
X461896Y231775D01*
X461959Y231658D01*
X462026Y231544D01*
X462096Y231431D01*
X462170Y231321D01*
X462246Y231213D01*
X462326Y231107D01*
X462409Y231003D01*
X462495Y230902D01*
X462584Y230804D01*
X462675Y230708D01*
X462770Y230615D01*
X462867Y230525D01*
X462967Y230438D01*
X463069Y230353D01*
X463174Y230272D01*
X463281Y230194D01*
X463390Y230118D01*
X463501Y230047D01*
X463615Y229978D01*
X463730Y229913D01*
X463848Y229851D01*
X463967Y229793D01*
X464088Y229738D01*
X464210Y229687D01*
X464334Y229639D01*
X464459Y229595D01*
X464585Y229555D01*
X464713Y229519D01*
X464841Y229486D01*
X464970Y229457D01*
X465101Y229432D01*
X465231Y229411D01*
X465363Y229393D01*
X465495Y229380D01*
X465627Y229370D01*
X465759Y229364D01*
X465892Y229362D01*
X470408Y229362D01*
X470408Y245618D01*
X465892Y245618D01*
X465773Y245616D01*
X465653Y245610D01*
X465534Y245600D01*
X465416Y245586D01*
X465297Y245569D01*
X465180Y245547D01*
X465063Y245522D01*
X464948Y245492D01*
X464833Y245459D01*
X464719Y245422D01*
X464607Y245382D01*
X464496Y245337D01*
X464387Y245289D01*
X464279Y245238D01*
X464173Y245183D01*
X464069Y245124D01*
X463967Y245062D01*
X463867Y244997D01*
X463769Y244928D01*
X463673Y244856D01*
X463580Y244781D01*
X463490Y244704D01*
X463402Y244623D01*
X463317Y244539D01*
X463235Y244452D01*
X463155Y244363D01*
X463079Y244271D01*
X463005Y244177D01*
X462935Y244080D01*
X462868Y243982D01*
X462804Y243881D01*
X462744Y243777D01*
X462687Y243672D01*
X462634Y243565D01*
X462584Y243457D01*
X462538Y243347D01*
X462496Y243235D01*
X462457Y243122D01*
X462422Y243008D01*
X462391Y242893D01*
X462363Y242776D01*
X462340Y242659D01*
X462320Y242542D01*
X462304Y242423D01*
X462292Y242304D01*
X462284Y242185D01*
X462280Y242066D01*
X462280Y241946D01*
X462284Y241827D01*
X462292Y241708D01*
X462304Y241589D01*
X462320Y241470D01*
X462340Y241353D01*
X462363Y241236D01*
X462391Y241119D01*
X462422Y241004D01*
X462457Y240890D01*
X462496Y240777D01*
X462538Y240665D01*
X462584Y240555D01*
X462634Y240447D01*
X462687Y240340D01*
X462744Y240235D01*
X462804Y240131D01*
X462868Y240030D01*
X462935Y239932D01*
X463005Y239835D01*
X463079Y239741D01*
X463155Y239649D01*
X463235Y239560D01*
X463317Y239473D01*
X463402Y239389D01*
X463490Y239308D01*
X463580Y239231D01*
X463673Y239156D01*
X463769Y239084D01*
X463867Y239015D01*
X463967Y238950D01*
X464069Y238888D01*
X464173Y238829D01*
X464279Y238774D01*
X464387Y238723D01*
X464496Y238675D01*
X464607Y238630D01*
X464719Y238590D01*
X464833Y238553D01*
X464948Y238520D01*
X465063Y238490D01*
X465180Y238465D01*
X465297Y238443D01*
X465416Y238426D01*
X465534Y238412D01*
X465653Y238402D01*
X465773Y238396D01*
X465892Y238394D01*
X455509Y233878D02*
X455507Y234011D01*
X455501Y234143D01*
X455491Y234275D01*
X455478Y234407D01*
X455460Y234539D01*
X455439Y234669D01*
X455414Y234800D01*
X455385Y234929D01*
X455352Y235057D01*
X455316Y235185D01*
X455276Y235311D01*
X455232Y235436D01*
X455184Y235560D01*
X455133Y235682D01*
X455078Y235803D01*
X455020Y235922D01*
X454958Y236040D01*
X454893Y236155D01*
X454824Y236269D01*
X454753Y236380D01*
X454677Y236489D01*
X454599Y236596D01*
X454518Y236701D01*
X454433Y236803D01*
X454346Y236903D01*
X454256Y237000D01*
X454163Y237095D01*
X454067Y237186D01*
X453969Y237275D01*
X453868Y237361D01*
X453764Y237444D01*
X453658Y237524D01*
X453550Y237600D01*
X453440Y237674D01*
X453327Y237744D01*
X453213Y237811D01*
X453096Y237874D01*
X452978Y237934D01*
X452858Y237991D01*
X452736Y238044D01*
X452613Y238093D01*
X452489Y238139D01*
X452363Y238181D01*
X452236Y238219D01*
X452108Y238254D01*
X451979Y238285D01*
X451850Y238312D01*
X451719Y238335D01*
X451588Y238355D01*
X451456Y238370D01*
X451324Y238382D01*
X451192Y238390D01*
X451059Y238394D01*
X450927Y238394D01*
X450794Y238390D01*
X450662Y238382D01*
X450530Y238370D01*
X450398Y238355D01*
X450267Y238335D01*
X450136Y238312D01*
X450007Y238285D01*
X449878Y238254D01*
X449750Y238219D01*
X449623Y238181D01*
X449497Y238139D01*
X449373Y238093D01*
X449250Y238044D01*
X449128Y237991D01*
X449008Y237934D01*
X448890Y237874D01*
X448773Y237811D01*
X448659Y237744D01*
X448546Y237674D01*
X448436Y237600D01*
X448328Y237524D01*
X448222Y237444D01*
X448118Y237361D01*
X448017Y237275D01*
X447919Y237186D01*
X447823Y237095D01*
X447730Y237000D01*
X447640Y236903D01*
X447553Y236803D01*
X447468Y236701D01*
X447387Y236596D01*
X447309Y236489D01*
X447233Y236380D01*
X447162Y236269D01*
X447093Y236155D01*
X447028Y236040D01*
X446966Y235922D01*
X446908Y235803D01*
X446853Y235682D01*
X446802Y235560D01*
X446754Y235436D01*
X446710Y235311D01*
X446670Y235185D01*
X446634Y235057D01*
X446601Y234929D01*
X446572Y234800D01*
X446547Y234669D01*
X446526Y234539D01*
X446508Y234407D01*
X446495Y234275D01*
X446485Y234143D01*
X446479Y234011D01*
X446477Y233878D01*
X446479Y233745D01*
X446485Y233613D01*
X446495Y233481D01*
X446508Y233349D01*
X446526Y233217D01*
X446547Y233087D01*
X446572Y232956D01*
X446601Y232827D01*
X446634Y232699D01*
X446670Y232571D01*
X446710Y232445D01*
X446754Y232320D01*
X446802Y232196D01*
X446853Y232074D01*
X446908Y231953D01*
X446966Y231834D01*
X447028Y231716D01*
X447093Y231601D01*
X447162Y231487D01*
X447233Y231376D01*
X447309Y231267D01*
X447387Y231160D01*
X447468Y231055D01*
X447553Y230953D01*
X447640Y230853D01*
X447730Y230756D01*
X447823Y230661D01*
X447919Y230570D01*
X448017Y230481D01*
X448118Y230395D01*
X448222Y230312D01*
X448328Y230232D01*
X448436Y230156D01*
X448546Y230082D01*
X448659Y230012D01*
X448773Y229945D01*
X448890Y229882D01*
X449008Y229822D01*
X449128Y229765D01*
X449250Y229712D01*
X449373Y229663D01*
X449497Y229617D01*
X449623Y229575D01*
X449750Y229537D01*
X449878Y229502D01*
X450007Y229471D01*
X450136Y229444D01*
X450267Y229421D01*
X450398Y229401D01*
X450530Y229386D01*
X450662Y229374D01*
X450794Y229366D01*
X450927Y229362D01*
X451059Y229362D01*
X451192Y229366D01*
X451324Y229374D01*
X451456Y229386D01*
X451588Y229401D01*
X451719Y229421D01*
X451850Y229444D01*
X451979Y229471D01*
X452108Y229502D01*
X452236Y229537D01*
X452363Y229575D01*
X452489Y229617D01*
X452613Y229663D01*
X452736Y229712D01*
X452858Y229765D01*
X452978Y229822D01*
X453096Y229882D01*
X453213Y229945D01*
X453327Y230012D01*
X453440Y230082D01*
X453550Y230156D01*
X453658Y230232D01*
X453764Y230312D01*
X453868Y230395D01*
X453969Y230481D01*
X454067Y230570D01*
X454163Y230661D01*
X454256Y230756D01*
X454346Y230853D01*
X454433Y230953D01*
X454518Y231055D01*
X454599Y231160D01*
X454677Y231267D01*
X454753Y231376D01*
X454824Y231487D01*
X454893Y231601D01*
X454958Y231716D01*
X455020Y231834D01*
X455078Y231953D01*
X455133Y232074D01*
X455184Y232196D01*
X455232Y232320D01*
X455276Y232445D01*
X455316Y232571D01*
X455352Y232699D01*
X455385Y232827D01*
X455414Y232956D01*
X455439Y233087D01*
X455460Y233217D01*
X455478Y233349D01*
X455491Y233481D01*
X455501Y233613D01*
X455507Y233745D01*
X455509Y233878D01*
X454605Y242006D02*
X454603Y242125D01*
X454597Y242245D01*
X454587Y242364D01*
X454573Y242482D01*
X454556Y242601D01*
X454534Y242718D01*
X454509Y242835D01*
X454479Y242950D01*
X454446Y243065D01*
X454409Y243179D01*
X454369Y243291D01*
X454324Y243402D01*
X454276Y243511D01*
X454225Y243619D01*
X454170Y243725D01*
X454111Y243829D01*
X454049Y243931D01*
X453984Y244031D01*
X453915Y244129D01*
X453843Y244225D01*
X453768Y244318D01*
X453691Y244408D01*
X453610Y244496D01*
X453526Y244581D01*
X453439Y244663D01*
X453350Y244743D01*
X453258Y244819D01*
X453164Y244893D01*
X453067Y244963D01*
X452969Y245030D01*
X452868Y245094D01*
X452764Y245154D01*
X452659Y245211D01*
X452552Y245264D01*
X452444Y245314D01*
X452334Y245360D01*
X452222Y245402D01*
X452109Y245441D01*
X451995Y245476D01*
X451880Y245507D01*
X451763Y245535D01*
X451646Y245558D01*
X451529Y245578D01*
X451410Y245594D01*
X451291Y245606D01*
X451172Y245614D01*
X451053Y245618D01*
X450933Y245618D01*
X450814Y245614D01*
X450695Y245606D01*
X450576Y245594D01*
X450457Y245578D01*
X450340Y245558D01*
X450223Y245535D01*
X450106Y245507D01*
X449991Y245476D01*
X449877Y245441D01*
X449764Y245402D01*
X449652Y245360D01*
X449542Y245314D01*
X449434Y245264D01*
X449327Y245211D01*
X449222Y245154D01*
X449118Y245094D01*
X449017Y245030D01*
X448919Y244963D01*
X448822Y244893D01*
X448728Y244819D01*
X448636Y244743D01*
X448547Y244663D01*
X448460Y244581D01*
X448376Y244496D01*
X448295Y244408D01*
X448218Y244318D01*
X448143Y244225D01*
X448071Y244129D01*
X448002Y244031D01*
X447937Y243931D01*
X447875Y243829D01*
X447816Y243725D01*
X447761Y243619D01*
X447710Y243511D01*
X447662Y243402D01*
X447617Y243291D01*
X447577Y243179D01*
X447540Y243065D01*
X447507Y242950D01*
X447477Y242835D01*
X447452Y242718D01*
X447430Y242601D01*
X447413Y242482D01*
X447399Y242364D01*
X447389Y242245D01*
X447383Y242125D01*
X447381Y242006D01*
X447383Y241887D01*
X447389Y241767D01*
X447399Y241648D01*
X447413Y241530D01*
X447430Y241411D01*
X447452Y241294D01*
X447477Y241177D01*
X447507Y241062D01*
X447540Y240947D01*
X447577Y240833D01*
X447617Y240721D01*
X447662Y240610D01*
X447710Y240501D01*
X447761Y240393D01*
X447816Y240287D01*
X447875Y240183D01*
X447937Y240081D01*
X448002Y239981D01*
X448071Y239883D01*
X448143Y239787D01*
X448218Y239694D01*
X448295Y239604D01*
X448376Y239516D01*
X448460Y239431D01*
X448547Y239349D01*
X448636Y239269D01*
X448728Y239193D01*
X448822Y239119D01*
X448919Y239049D01*
X449017Y238982D01*
X449118Y238918D01*
X449222Y238858D01*
X449327Y238801D01*
X449434Y238748D01*
X449542Y238698D01*
X449652Y238652D01*
X449764Y238610D01*
X449877Y238571D01*
X449991Y238536D01*
X450106Y238505D01*
X450223Y238477D01*
X450340Y238454D01*
X450457Y238434D01*
X450576Y238418D01*
X450695Y238406D01*
X450814Y238398D01*
X450933Y238394D01*
X451053Y238394D01*
X451172Y238398D01*
X451291Y238406D01*
X451410Y238418D01*
X451529Y238434D01*
X451646Y238454D01*
X451763Y238477D01*
X451880Y238505D01*
X451995Y238536D01*
X452109Y238571D01*
X452222Y238610D01*
X452334Y238652D01*
X452444Y238698D01*
X452552Y238748D01*
X452659Y238801D01*
X452764Y238858D01*
X452868Y238918D01*
X452969Y238982D01*
X453067Y239049D01*
X453164Y239119D01*
X453258Y239193D01*
X453350Y239269D01*
X453439Y239349D01*
X453526Y239431D01*
X453610Y239516D01*
X453691Y239604D01*
X453768Y239694D01*
X453843Y239787D01*
X453915Y239883D01*
X453984Y239981D01*
X454049Y240081D01*
X454111Y240183D01*
X454170Y240287D01*
X454225Y240393D01*
X454276Y240501D01*
X454324Y240610D01*
X454369Y240721D01*
X454409Y240833D01*
X454446Y240947D01*
X454479Y241062D01*
X454509Y241177D01*
X454534Y241294D01*
X454556Y241411D01*
X454573Y241530D01*
X454587Y241648D01*
X454597Y241767D01*
X454603Y241887D01*
X454605Y242006D01*
X465892Y212993D02*
X470408Y212993D01*
X465892Y212994D02*
X465759Y212992D01*
X465627Y212986D01*
X465495Y212976D01*
X465363Y212963D01*
X465231Y212945D01*
X465101Y212924D01*
X464970Y212899D01*
X464841Y212870D01*
X464713Y212837D01*
X464585Y212801D01*
X464459Y212761D01*
X464334Y212717D01*
X464210Y212669D01*
X464088Y212618D01*
X463967Y212563D01*
X463848Y212505D01*
X463730Y212443D01*
X463615Y212378D01*
X463501Y212309D01*
X463390Y212238D01*
X463281Y212162D01*
X463174Y212084D01*
X463069Y212003D01*
X462967Y211918D01*
X462867Y211831D01*
X462770Y211741D01*
X462675Y211648D01*
X462584Y211552D01*
X462495Y211454D01*
X462409Y211353D01*
X462326Y211249D01*
X462246Y211143D01*
X462170Y211035D01*
X462096Y210925D01*
X462026Y210812D01*
X461959Y210698D01*
X461896Y210581D01*
X461836Y210463D01*
X461779Y210343D01*
X461726Y210221D01*
X461677Y210098D01*
X461631Y209974D01*
X461589Y209848D01*
X461551Y209721D01*
X461516Y209593D01*
X461485Y209464D01*
X461458Y209335D01*
X461435Y209204D01*
X461415Y209073D01*
X461400Y208941D01*
X461388Y208809D01*
X461380Y208677D01*
X461376Y208544D01*
X461376Y208412D01*
X461380Y208279D01*
X461388Y208147D01*
X461400Y208015D01*
X461415Y207883D01*
X461435Y207752D01*
X461458Y207621D01*
X461485Y207492D01*
X461516Y207363D01*
X461551Y207235D01*
X461589Y207108D01*
X461631Y206982D01*
X461677Y206858D01*
X461726Y206735D01*
X461779Y206613D01*
X461836Y206493D01*
X461896Y206375D01*
X461959Y206258D01*
X462026Y206144D01*
X462096Y206031D01*
X462170Y205921D01*
X462246Y205813D01*
X462326Y205707D01*
X462409Y205603D01*
X462495Y205502D01*
X462584Y205404D01*
X462675Y205308D01*
X462770Y205215D01*
X462867Y205125D01*
X462967Y205038D01*
X463069Y204953D01*
X463174Y204872D01*
X463281Y204794D01*
X463390Y204718D01*
X463501Y204647D01*
X463615Y204578D01*
X463730Y204513D01*
X463848Y204451D01*
X463967Y204393D01*
X464088Y204338D01*
X464210Y204287D01*
X464334Y204239D01*
X464459Y204195D01*
X464585Y204155D01*
X464713Y204119D01*
X464841Y204086D01*
X464970Y204057D01*
X465101Y204032D01*
X465231Y204011D01*
X465363Y203993D01*
X465495Y203980D01*
X465627Y203970D01*
X465759Y203964D01*
X465892Y203962D01*
X470408Y203962D01*
X470408Y220218D01*
X465892Y220218D01*
X465773Y220216D01*
X465653Y220210D01*
X465534Y220200D01*
X465416Y220186D01*
X465297Y220169D01*
X465180Y220147D01*
X465063Y220122D01*
X464948Y220092D01*
X464833Y220059D01*
X464719Y220022D01*
X464607Y219982D01*
X464496Y219937D01*
X464387Y219889D01*
X464279Y219838D01*
X464173Y219783D01*
X464069Y219724D01*
X463967Y219662D01*
X463867Y219597D01*
X463769Y219528D01*
X463673Y219456D01*
X463580Y219381D01*
X463490Y219304D01*
X463402Y219223D01*
X463317Y219139D01*
X463235Y219052D01*
X463155Y218963D01*
X463079Y218871D01*
X463005Y218777D01*
X462935Y218680D01*
X462868Y218582D01*
X462804Y218481D01*
X462744Y218377D01*
X462687Y218272D01*
X462634Y218165D01*
X462584Y218057D01*
X462538Y217947D01*
X462496Y217835D01*
X462457Y217722D01*
X462422Y217608D01*
X462391Y217493D01*
X462363Y217376D01*
X462340Y217259D01*
X462320Y217142D01*
X462304Y217023D01*
X462292Y216904D01*
X462284Y216785D01*
X462280Y216666D01*
X462280Y216546D01*
X462284Y216427D01*
X462292Y216308D01*
X462304Y216189D01*
X462320Y216070D01*
X462340Y215953D01*
X462363Y215836D01*
X462391Y215719D01*
X462422Y215604D01*
X462457Y215490D01*
X462496Y215377D01*
X462538Y215265D01*
X462584Y215155D01*
X462634Y215047D01*
X462687Y214940D01*
X462744Y214835D01*
X462804Y214731D01*
X462868Y214630D01*
X462935Y214532D01*
X463005Y214435D01*
X463079Y214341D01*
X463155Y214249D01*
X463235Y214160D01*
X463317Y214073D01*
X463402Y213989D01*
X463490Y213908D01*
X463580Y213831D01*
X463673Y213756D01*
X463769Y213684D01*
X463867Y213615D01*
X463967Y213550D01*
X464069Y213488D01*
X464173Y213429D01*
X464279Y213374D01*
X464387Y213323D01*
X464496Y213275D01*
X464607Y213230D01*
X464719Y213190D01*
X464833Y213153D01*
X464948Y213120D01*
X465063Y213090D01*
X465180Y213065D01*
X465297Y213043D01*
X465416Y213026D01*
X465534Y213012D01*
X465653Y213002D01*
X465773Y212996D01*
X465892Y212994D01*
X455509Y218412D02*
X455509Y220218D01*
X446478Y220218D01*
X450993Y203962D01*
X464989Y178562D02*
X470408Y178562D01*
X464989Y178562D02*
X464871Y178564D01*
X464753Y178570D01*
X464635Y178579D01*
X464518Y178593D01*
X464401Y178610D01*
X464284Y178631D01*
X464169Y178656D01*
X464054Y178685D01*
X463940Y178718D01*
X463828Y178754D01*
X463717Y178794D01*
X463607Y178837D01*
X463498Y178884D01*
X463391Y178934D01*
X463286Y178989D01*
X463183Y179046D01*
X463082Y179107D01*
X462982Y179171D01*
X462885Y179238D01*
X462790Y179308D01*
X462698Y179382D01*
X462607Y179458D01*
X462520Y179538D01*
X462435Y179620D01*
X462353Y179705D01*
X462273Y179792D01*
X462197Y179883D01*
X462123Y179975D01*
X462053Y180070D01*
X461986Y180167D01*
X461922Y180267D01*
X461861Y180368D01*
X461804Y180471D01*
X461749Y180576D01*
X461699Y180683D01*
X461652Y180792D01*
X461609Y180902D01*
X461569Y181013D01*
X461533Y181125D01*
X461500Y181239D01*
X461471Y181354D01*
X461446Y181469D01*
X461425Y181586D01*
X461408Y181703D01*
X461394Y181820D01*
X461385Y181938D01*
X461379Y182056D01*
X461377Y182174D01*
X461377Y183981D01*
X461379Y184099D01*
X461385Y184217D01*
X461394Y184335D01*
X461408Y184452D01*
X461425Y184569D01*
X461446Y184686D01*
X461471Y184801D01*
X461500Y184916D01*
X461533Y185030D01*
X461569Y185142D01*
X461609Y185253D01*
X461652Y185363D01*
X461699Y185472D01*
X461749Y185579D01*
X461804Y185684D01*
X461861Y185787D01*
X461922Y185888D01*
X461986Y185988D01*
X462053Y186085D01*
X462123Y186180D01*
X462197Y186272D01*
X462273Y186363D01*
X462353Y186450D01*
X462435Y186535D01*
X462520Y186617D01*
X462607Y186697D01*
X462698Y186773D01*
X462790Y186847D01*
X462885Y186917D01*
X462982Y186984D01*
X463082Y187048D01*
X463183Y187109D01*
X463286Y187166D01*
X463391Y187221D01*
X463498Y187271D01*
X463607Y187318D01*
X463717Y187361D01*
X463828Y187401D01*
X463940Y187437D01*
X464054Y187470D01*
X464169Y187499D01*
X464284Y187524D01*
X464401Y187545D01*
X464518Y187562D01*
X464635Y187576D01*
X464753Y187585D01*
X464871Y187591D01*
X464989Y187593D01*
X470408Y187593D01*
X470408Y194818D01*
X461377Y194818D01*
X455680Y194818D02*
X450261Y178562D01*
X444843Y194818D01*
X461377Y162193D02*
X464086Y162193D01*
X461377Y162193D02*
X461377Y153162D01*
X466796Y153162D01*
X466914Y153164D01*
X467032Y153170D01*
X467150Y153179D01*
X467267Y153193D01*
X467384Y153210D01*
X467501Y153231D01*
X467616Y153256D01*
X467731Y153285D01*
X467845Y153318D01*
X467957Y153354D01*
X468068Y153394D01*
X468178Y153437D01*
X468287Y153484D01*
X468394Y153534D01*
X468499Y153589D01*
X468602Y153646D01*
X468703Y153707D01*
X468803Y153771D01*
X468900Y153838D01*
X468995Y153908D01*
X469087Y153982D01*
X469178Y154058D01*
X469265Y154138D01*
X469350Y154220D01*
X469432Y154305D01*
X469512Y154392D01*
X469588Y154483D01*
X469662Y154575D01*
X469732Y154670D01*
X469799Y154767D01*
X469863Y154867D01*
X469924Y154968D01*
X469981Y155071D01*
X470036Y155176D01*
X470086Y155283D01*
X470133Y155392D01*
X470176Y155502D01*
X470216Y155613D01*
X470252Y155725D01*
X470285Y155839D01*
X470314Y155954D01*
X470339Y156069D01*
X470360Y156186D01*
X470377Y156303D01*
X470391Y156420D01*
X470400Y156538D01*
X470406Y156656D01*
X470408Y156774D01*
X470408Y165806D01*
X470406Y165924D01*
X470400Y166042D01*
X470391Y166160D01*
X470377Y166277D01*
X470360Y166394D01*
X470339Y166511D01*
X470314Y166626D01*
X470285Y166741D01*
X470252Y166855D01*
X470216Y166967D01*
X470176Y167078D01*
X470133Y167188D01*
X470086Y167297D01*
X470036Y167404D01*
X469981Y167509D01*
X469924Y167612D01*
X469863Y167713D01*
X469799Y167813D01*
X469732Y167910D01*
X469662Y168005D01*
X469588Y168097D01*
X469512Y168188D01*
X469432Y168275D01*
X469350Y168360D01*
X469265Y168442D01*
X469178Y168522D01*
X469087Y168598D01*
X468995Y168672D01*
X468900Y168742D01*
X468803Y168809D01*
X468703Y168873D01*
X468602Y168934D01*
X468499Y168991D01*
X468394Y169046D01*
X468287Y169096D01*
X468178Y169143D01*
X468068Y169186D01*
X467957Y169226D01*
X467845Y169262D01*
X467731Y169295D01*
X467616Y169324D01*
X467501Y169349D01*
X467384Y169370D01*
X467267Y169387D01*
X467150Y169401D01*
X467032Y169410D01*
X466914Y169416D01*
X466796Y169418D01*
X461377Y169418D01*
X453735Y169418D02*
X453735Y153162D01*
X444704Y153162D02*
X453735Y169418D01*
X444704Y169418D02*
X444704Y153162D01*
X437061Y153162D02*
X437061Y169418D01*
X432546Y169418D01*
X432415Y169416D01*
X432283Y169410D01*
X432152Y169401D01*
X432022Y169387D01*
X431891Y169370D01*
X431762Y169349D01*
X431633Y169325D01*
X431505Y169296D01*
X431377Y169264D01*
X431251Y169228D01*
X431126Y169189D01*
X431001Y169146D01*
X430879Y169099D01*
X430757Y169049D01*
X430637Y168995D01*
X430519Y168938D01*
X430403Y168877D01*
X430288Y168813D01*
X430175Y168746D01*
X430064Y168675D01*
X429956Y168601D01*
X429849Y168524D01*
X429745Y168444D01*
X429643Y168361D01*
X429544Y168276D01*
X429447Y168187D01*
X429353Y168095D01*
X429261Y168001D01*
X429172Y167904D01*
X429087Y167805D01*
X429004Y167703D01*
X428924Y167599D01*
X428847Y167492D01*
X428773Y167384D01*
X428702Y167273D01*
X428635Y167160D01*
X428571Y167045D01*
X428510Y166929D01*
X428453Y166811D01*
X428399Y166691D01*
X428349Y166569D01*
X428302Y166447D01*
X428259Y166322D01*
X428220Y166197D01*
X428184Y166071D01*
X428152Y165943D01*
X428123Y165815D01*
X428099Y165686D01*
X428078Y165557D01*
X428061Y165426D01*
X428047Y165296D01*
X428038Y165165D01*
X428032Y165033D01*
X428030Y164902D01*
X428030Y157678D01*
X428032Y157547D01*
X428038Y157415D01*
X428047Y157284D01*
X428061Y157154D01*
X428078Y157023D01*
X428099Y156894D01*
X428123Y156765D01*
X428152Y156637D01*
X428184Y156509D01*
X428220Y156383D01*
X428259Y156258D01*
X428302Y156133D01*
X428349Y156011D01*
X428399Y155889D01*
X428453Y155769D01*
X428510Y155651D01*
X428571Y155535D01*
X428635Y155420D01*
X428702Y155307D01*
X428773Y155196D01*
X428847Y155088D01*
X428924Y154981D01*
X429004Y154877D01*
X429087Y154775D01*
X429172Y154676D01*
X429261Y154579D01*
X429353Y154485D01*
X429447Y154393D01*
X429544Y154304D01*
X429643Y154219D01*
X429745Y154136D01*
X429849Y154056D01*
X429956Y153979D01*
X430064Y153905D01*
X430175Y153834D01*
X430288Y153767D01*
X430403Y153703D01*
X430519Y153642D01*
X430637Y153585D01*
X430757Y153531D01*
X430879Y153481D01*
X431001Y153434D01*
X431126Y153391D01*
X431251Y153352D01*
X431377Y153316D01*
X431505Y153284D01*
X431633Y153255D01*
X431762Y153231D01*
X431891Y153210D01*
X432022Y153193D01*
X432152Y153179D01*
X432283Y153170D01*
X432415Y153164D01*
X432546Y153162D01*
X437061Y153162D01*
X62738Y330962D02*
X57319Y347218D01*
X51901Y330962D01*
X53255Y335026D02*
X61383Y335026D01*
X46203Y339090D02*
X46199Y339410D01*
X46188Y339729D01*
X46169Y340049D01*
X46142Y340367D01*
X46108Y340685D01*
X46066Y341002D01*
X46016Y341318D01*
X45959Y341633D01*
X45895Y341946D01*
X45823Y342258D01*
X45744Y342568D01*
X45657Y342875D01*
X45563Y343181D01*
X45462Y343484D01*
X45353Y343785D01*
X45238Y344083D01*
X45115Y344379D01*
X44985Y344671D01*
X44848Y344960D01*
X44849Y344961D02*
X44810Y345069D01*
X44767Y345176D01*
X44721Y345281D01*
X44670Y345385D01*
X44617Y345487D01*
X44560Y345587D01*
X44499Y345685D01*
X44435Y345780D01*
X44368Y345874D01*
X44297Y345965D01*
X44224Y346054D01*
X44147Y346140D01*
X44068Y346223D01*
X43986Y346304D01*
X43901Y346382D01*
X43813Y346456D01*
X43723Y346528D01*
X43631Y346596D01*
X43536Y346662D01*
X43439Y346724D01*
X43340Y346782D01*
X43238Y346838D01*
X43136Y346889D01*
X43031Y346937D01*
X42925Y346982D01*
X42817Y347023D01*
X42708Y347060D01*
X42598Y347093D01*
X42486Y347122D01*
X42374Y347148D01*
X42261Y347170D01*
X42147Y347187D01*
X42033Y347201D01*
X41918Y347211D01*
X41803Y347217D01*
X41688Y347219D01*
X41688Y347218D02*
X41573Y347216D01*
X41458Y347210D01*
X41343Y347200D01*
X41229Y347186D01*
X41115Y347169D01*
X41002Y347147D01*
X40890Y347121D01*
X40778Y347092D01*
X40668Y347059D01*
X40559Y347022D01*
X40451Y346981D01*
X40345Y346936D01*
X40241Y346888D01*
X40138Y346837D01*
X40037Y346781D01*
X39937Y346723D01*
X39840Y346661D01*
X39746Y346596D01*
X39653Y346527D01*
X39563Y346455D01*
X39475Y346381D01*
X39390Y346303D01*
X39308Y346222D01*
X39229Y346139D01*
X39152Y346053D01*
X39079Y345964D01*
X39008Y345873D01*
X38941Y345779D01*
X38877Y345684D01*
X38816Y345586D01*
X38759Y345486D01*
X38706Y345384D01*
X38655Y345280D01*
X38609Y345175D01*
X38566Y345068D01*
X38527Y344960D01*
X38528Y344960D02*
X38391Y344671D01*
X38261Y344379D01*
X38138Y344083D01*
X38023Y343785D01*
X37914Y343484D01*
X37813Y343181D01*
X37719Y342875D01*
X37632Y342568D01*
X37553Y342258D01*
X37481Y341946D01*
X37417Y341633D01*
X37360Y341318D01*
X37310Y341002D01*
X37268Y340685D01*
X37234Y340367D01*
X37207Y340049D01*
X37188Y339729D01*
X37177Y339410D01*
X37173Y339090D01*
X46203Y339090D02*
X46199Y338770D01*
X46188Y338451D01*
X46169Y338131D01*
X46142Y337813D01*
X46108Y337495D01*
X46066Y337178D01*
X46016Y336862D01*
X45959Y336547D01*
X45895Y336234D01*
X45823Y335922D01*
X45744Y335612D01*
X45657Y335305D01*
X45563Y334999D01*
X45462Y334696D01*
X45353Y334395D01*
X45238Y334097D01*
X45115Y333801D01*
X44985Y333509D01*
X44848Y333220D01*
X44849Y333220D02*
X44810Y333112D01*
X44767Y333005D01*
X44721Y332900D01*
X44670Y332796D01*
X44617Y332694D01*
X44560Y332594D01*
X44499Y332496D01*
X44435Y332401D01*
X44368Y332307D01*
X44297Y332216D01*
X44224Y332127D01*
X44147Y332041D01*
X44068Y331958D01*
X43986Y331877D01*
X43901Y331799D01*
X43813Y331725D01*
X43723Y331653D01*
X43630Y331584D01*
X43536Y331519D01*
X43439Y331457D01*
X43339Y331399D01*
X43238Y331343D01*
X43136Y331292D01*
X43031Y331244D01*
X42925Y331199D01*
X42817Y331158D01*
X42708Y331121D01*
X42598Y331088D01*
X42486Y331059D01*
X42374Y331033D01*
X42261Y331011D01*
X42147Y330994D01*
X42033Y330980D01*
X41918Y330970D01*
X41803Y330964D01*
X41688Y330962D01*
X38528Y333220D02*
X38391Y333509D01*
X38261Y333801D01*
X38138Y334097D01*
X38023Y334395D01*
X37914Y334696D01*
X37813Y334999D01*
X37719Y335305D01*
X37632Y335612D01*
X37553Y335922D01*
X37481Y336234D01*
X37417Y336547D01*
X37360Y336862D01*
X37310Y337178D01*
X37268Y337495D01*
X37234Y337813D01*
X37207Y338131D01*
X37188Y338451D01*
X37177Y338770D01*
X37173Y339090D01*
X38527Y333220D02*
X38566Y333112D01*
X38609Y333005D01*
X38655Y332900D01*
X38706Y332796D01*
X38759Y332694D01*
X38817Y332594D01*
X38877Y332496D01*
X38941Y332401D01*
X39008Y332307D01*
X39079Y332216D01*
X39152Y332127D01*
X39229Y332041D01*
X39308Y331958D01*
X39390Y331877D01*
X39475Y331799D01*
X39563Y331725D01*
X39653Y331653D01*
X39746Y331584D01*
X39840Y331519D01*
X39937Y331457D01*
X40037Y331399D01*
X40138Y331343D01*
X40241Y331292D01*
X40345Y331244D01*
X40451Y331199D01*
X40559Y331158D01*
X40668Y331121D01*
X40778Y331088D01*
X40890Y331059D01*
X41002Y331033D01*
X41115Y331011D01*
X41229Y330994D01*
X41343Y330980D01*
X41458Y330970D01*
X41573Y330964D01*
X41688Y330962D01*
X45301Y334574D02*
X38076Y343606D01*
X57319Y321818D02*
X62738Y305562D01*
X51901Y305562D02*
X57319Y321818D01*
X53255Y309626D02*
X61383Y309626D01*
X46204Y318206D02*
X41688Y321818D01*
X41688Y305562D01*
X37173Y305562D02*
X46204Y305562D01*
X58222Y289193D02*
X62738Y289193D01*
X58222Y289194D02*
X58089Y289192D01*
X57957Y289186D01*
X57825Y289176D01*
X57693Y289163D01*
X57561Y289145D01*
X57431Y289124D01*
X57300Y289099D01*
X57171Y289070D01*
X57043Y289037D01*
X56915Y289001D01*
X56789Y288961D01*
X56664Y288917D01*
X56540Y288869D01*
X56418Y288818D01*
X56297Y288763D01*
X56178Y288705D01*
X56060Y288643D01*
X55945Y288578D01*
X55831Y288509D01*
X55720Y288438D01*
X55611Y288362D01*
X55504Y288284D01*
X55399Y288203D01*
X55297Y288118D01*
X55197Y288031D01*
X55100Y287941D01*
X55005Y287848D01*
X54914Y287752D01*
X54825Y287654D01*
X54739Y287553D01*
X54656Y287449D01*
X54576Y287343D01*
X54500Y287235D01*
X54426Y287125D01*
X54356Y287012D01*
X54289Y286898D01*
X54226Y286781D01*
X54166Y286663D01*
X54109Y286543D01*
X54056Y286421D01*
X54007Y286298D01*
X53961Y286174D01*
X53919Y286048D01*
X53881Y285921D01*
X53846Y285793D01*
X53815Y285664D01*
X53788Y285535D01*
X53765Y285404D01*
X53745Y285273D01*
X53730Y285141D01*
X53718Y285009D01*
X53710Y284877D01*
X53706Y284744D01*
X53706Y284612D01*
X53710Y284479D01*
X53718Y284347D01*
X53730Y284215D01*
X53745Y284083D01*
X53765Y283952D01*
X53788Y283821D01*
X53815Y283692D01*
X53846Y283563D01*
X53881Y283435D01*
X53919Y283308D01*
X53961Y283182D01*
X54007Y283058D01*
X54056Y282935D01*
X54109Y282813D01*
X54166Y282693D01*
X54226Y282575D01*
X54289Y282458D01*
X54356Y282344D01*
X54426Y282231D01*
X54500Y282121D01*
X54576Y282013D01*
X54656Y281907D01*
X54739Y281803D01*
X54825Y281702D01*
X54914Y281604D01*
X55005Y281508D01*
X55100Y281415D01*
X55197Y281325D01*
X55297Y281238D01*
X55399Y281153D01*
X55504Y281072D01*
X55611Y280994D01*
X55720Y280918D01*
X55831Y280847D01*
X55945Y280778D01*
X56060Y280713D01*
X56178Y280651D01*
X56297Y280593D01*
X56418Y280538D01*
X56540Y280487D01*
X56664Y280439D01*
X56789Y280395D01*
X56915Y280355D01*
X57043Y280319D01*
X57171Y280286D01*
X57300Y280257D01*
X57431Y280232D01*
X57561Y280211D01*
X57693Y280193D01*
X57825Y280180D01*
X57957Y280170D01*
X58089Y280164D01*
X58222Y280162D01*
X62738Y280162D01*
X62738Y296418D01*
X58222Y296418D01*
X58103Y296416D01*
X57983Y296410D01*
X57864Y296400D01*
X57746Y296386D01*
X57627Y296369D01*
X57510Y296347D01*
X57393Y296322D01*
X57278Y296292D01*
X57163Y296259D01*
X57049Y296222D01*
X56937Y296182D01*
X56826Y296137D01*
X56717Y296089D01*
X56609Y296038D01*
X56503Y295983D01*
X56399Y295924D01*
X56297Y295862D01*
X56197Y295797D01*
X56099Y295728D01*
X56003Y295656D01*
X55910Y295581D01*
X55820Y295504D01*
X55732Y295423D01*
X55647Y295339D01*
X55565Y295252D01*
X55485Y295163D01*
X55409Y295071D01*
X55335Y294977D01*
X55265Y294880D01*
X55198Y294782D01*
X55134Y294681D01*
X55074Y294577D01*
X55017Y294472D01*
X54964Y294365D01*
X54914Y294257D01*
X54868Y294147D01*
X54826Y294035D01*
X54787Y293922D01*
X54752Y293808D01*
X54721Y293693D01*
X54693Y293576D01*
X54670Y293459D01*
X54650Y293342D01*
X54634Y293223D01*
X54622Y293104D01*
X54614Y292985D01*
X54610Y292866D01*
X54610Y292746D01*
X54614Y292627D01*
X54622Y292508D01*
X54634Y292389D01*
X54650Y292270D01*
X54670Y292153D01*
X54693Y292036D01*
X54721Y291919D01*
X54752Y291804D01*
X54787Y291690D01*
X54826Y291577D01*
X54868Y291465D01*
X54914Y291355D01*
X54964Y291247D01*
X55017Y291140D01*
X55074Y291035D01*
X55134Y290931D01*
X55198Y290830D01*
X55265Y290732D01*
X55335Y290635D01*
X55409Y290541D01*
X55485Y290449D01*
X55565Y290360D01*
X55647Y290273D01*
X55732Y290189D01*
X55820Y290108D01*
X55910Y290031D01*
X56003Y289956D01*
X56099Y289884D01*
X56197Y289815D01*
X56297Y289750D01*
X56399Y289688D01*
X56503Y289629D01*
X56609Y289574D01*
X56717Y289523D01*
X56826Y289475D01*
X56937Y289430D01*
X57049Y289390D01*
X57163Y289353D01*
X57278Y289320D01*
X57393Y289290D01*
X57510Y289265D01*
X57627Y289243D01*
X57746Y289226D01*
X57864Y289212D01*
X57983Y289202D01*
X58103Y289196D01*
X58222Y289194D01*
X42872Y296418D02*
X42747Y296416D01*
X42622Y296410D01*
X42497Y296401D01*
X42373Y296387D01*
X42249Y296370D01*
X42125Y296349D01*
X42003Y296324D01*
X41881Y296295D01*
X41760Y296263D01*
X41640Y296227D01*
X41521Y296187D01*
X41404Y296144D01*
X41288Y296097D01*
X41173Y296046D01*
X41061Y295992D01*
X40949Y295934D01*
X40840Y295874D01*
X40733Y295809D01*
X40627Y295742D01*
X40524Y295671D01*
X40423Y295597D01*
X40324Y295520D01*
X40228Y295440D01*
X40134Y295357D01*
X40043Y295272D01*
X39954Y295183D01*
X39869Y295092D01*
X39786Y294998D01*
X39706Y294902D01*
X39629Y294803D01*
X39555Y294702D01*
X39484Y294599D01*
X39417Y294493D01*
X39352Y294386D01*
X39292Y294277D01*
X39234Y294165D01*
X39180Y294053D01*
X39129Y293938D01*
X39082Y293822D01*
X39039Y293705D01*
X38999Y293586D01*
X38963Y293466D01*
X38931Y293345D01*
X38902Y293223D01*
X38877Y293101D01*
X38856Y292977D01*
X38839Y292853D01*
X38825Y292729D01*
X38816Y292604D01*
X38810Y292479D01*
X38808Y292354D01*
X42872Y296418D02*
X43015Y296416D01*
X43157Y296410D01*
X43300Y296400D01*
X43442Y296387D01*
X43583Y296369D01*
X43725Y296348D01*
X43865Y296323D01*
X44005Y296294D01*
X44144Y296261D01*
X44282Y296224D01*
X44419Y296184D01*
X44554Y296140D01*
X44689Y296092D01*
X44822Y296040D01*
X44954Y295985D01*
X45084Y295926D01*
X45212Y295864D01*
X45339Y295798D01*
X45464Y295729D01*
X45587Y295657D01*
X45708Y295581D01*
X45826Y295502D01*
X45943Y295419D01*
X46057Y295334D01*
X46169Y295245D01*
X46278Y295154D01*
X46385Y295059D01*
X46490Y294962D01*
X46591Y294861D01*
X46690Y294758D01*
X46786Y294653D01*
X46879Y294544D01*
X46969Y294433D01*
X47056Y294320D01*
X47140Y294205D01*
X47220Y294087D01*
X47298Y293967D01*
X47372Y293845D01*
X47442Y293721D01*
X47510Y293595D01*
X47573Y293467D01*
X47634Y293338D01*
X47691Y293207D01*
X47744Y293075D01*
X47793Y292941D01*
X47839Y292806D01*
X40163Y289193D02*
X40069Y289285D01*
X39979Y289379D01*
X39891Y289476D01*
X39806Y289576D01*
X39724Y289678D01*
X39645Y289783D01*
X39570Y289890D01*
X39498Y289999D01*
X39429Y290110D01*
X39363Y290224D01*
X39301Y290339D01*
X39242Y290456D01*
X39187Y290575D01*
X39136Y290695D01*
X39088Y290817D01*
X39043Y290940D01*
X39003Y291064D01*
X38966Y291190D01*
X38933Y291317D01*
X38904Y291444D01*
X38878Y291573D01*
X38857Y291702D01*
X38839Y291832D01*
X38826Y291962D01*
X38816Y292092D01*
X38810Y292223D01*
X38808Y292354D01*
X40162Y289193D02*
X47839Y280162D01*
X38808Y280162D01*
X58222Y263793D02*
X62738Y263793D01*
X58222Y263794D02*
X58089Y263792D01*
X57957Y263786D01*
X57825Y263776D01*
X57693Y263763D01*
X57561Y263745D01*
X57431Y263724D01*
X57300Y263699D01*
X57171Y263670D01*
X57043Y263637D01*
X56915Y263601D01*
X56789Y263561D01*
X56664Y263517D01*
X56540Y263469D01*
X56418Y263418D01*
X56297Y263363D01*
X56178Y263305D01*
X56060Y263243D01*
X55945Y263178D01*
X55831Y263109D01*
X55720Y263038D01*
X55611Y262962D01*
X55504Y262884D01*
X55399Y262803D01*
X55297Y262718D01*
X55197Y262631D01*
X55100Y262541D01*
X55005Y262448D01*
X54914Y262352D01*
X54825Y262254D01*
X54739Y262153D01*
X54656Y262049D01*
X54576Y261943D01*
X54500Y261835D01*
X54426Y261725D01*
X54356Y261612D01*
X54289Y261498D01*
X54226Y261381D01*
X54166Y261263D01*
X54109Y261143D01*
X54056Y261021D01*
X54007Y260898D01*
X53961Y260774D01*
X53919Y260648D01*
X53881Y260521D01*
X53846Y260393D01*
X53815Y260264D01*
X53788Y260135D01*
X53765Y260004D01*
X53745Y259873D01*
X53730Y259741D01*
X53718Y259609D01*
X53710Y259477D01*
X53706Y259344D01*
X53706Y259212D01*
X53710Y259079D01*
X53718Y258947D01*
X53730Y258815D01*
X53745Y258683D01*
X53765Y258552D01*
X53788Y258421D01*
X53815Y258292D01*
X53846Y258163D01*
X53881Y258035D01*
X53919Y257908D01*
X53961Y257782D01*
X54007Y257658D01*
X54056Y257535D01*
X54109Y257413D01*
X54166Y257293D01*
X54226Y257175D01*
X54289Y257058D01*
X54356Y256944D01*
X54426Y256831D01*
X54500Y256721D01*
X54576Y256613D01*
X54656Y256507D01*
X54739Y256403D01*
X54825Y256302D01*
X54914Y256204D01*
X55005Y256108D01*
X55100Y256015D01*
X55197Y255925D01*
X55297Y255838D01*
X55399Y255753D01*
X55504Y255672D01*
X55611Y255594D01*
X55720Y255518D01*
X55831Y255447D01*
X55945Y255378D01*
X56060Y255313D01*
X56178Y255251D01*
X56297Y255193D01*
X56418Y255138D01*
X56540Y255087D01*
X56664Y255039D01*
X56789Y254995D01*
X56915Y254955D01*
X57043Y254919D01*
X57171Y254886D01*
X57300Y254857D01*
X57431Y254832D01*
X57561Y254811D01*
X57693Y254793D01*
X57825Y254780D01*
X57957Y254770D01*
X58089Y254764D01*
X58222Y254762D01*
X62738Y254762D01*
X62738Y271018D01*
X58222Y271018D01*
X58103Y271016D01*
X57983Y271010D01*
X57864Y271000D01*
X57746Y270986D01*
X57627Y270969D01*
X57510Y270947D01*
X57393Y270922D01*
X57278Y270892D01*
X57163Y270859D01*
X57049Y270822D01*
X56937Y270782D01*
X56826Y270737D01*
X56717Y270689D01*
X56609Y270638D01*
X56503Y270583D01*
X56399Y270524D01*
X56297Y270462D01*
X56197Y270397D01*
X56099Y270328D01*
X56003Y270256D01*
X55910Y270181D01*
X55820Y270104D01*
X55732Y270023D01*
X55647Y269939D01*
X55565Y269852D01*
X55485Y269763D01*
X55409Y269671D01*
X55335Y269577D01*
X55265Y269480D01*
X55198Y269382D01*
X55134Y269281D01*
X55074Y269177D01*
X55017Y269072D01*
X54964Y268965D01*
X54914Y268857D01*
X54868Y268747D01*
X54826Y268635D01*
X54787Y268522D01*
X54752Y268408D01*
X54721Y268293D01*
X54693Y268176D01*
X54670Y268059D01*
X54650Y267942D01*
X54634Y267823D01*
X54622Y267704D01*
X54614Y267585D01*
X54610Y267466D01*
X54610Y267346D01*
X54614Y267227D01*
X54622Y267108D01*
X54634Y266989D01*
X54650Y266870D01*
X54670Y266753D01*
X54693Y266636D01*
X54721Y266519D01*
X54752Y266404D01*
X54787Y266290D01*
X54826Y266177D01*
X54868Y266065D01*
X54914Y265955D01*
X54964Y265847D01*
X55017Y265740D01*
X55074Y265635D01*
X55134Y265531D01*
X55198Y265430D01*
X55265Y265332D01*
X55335Y265235D01*
X55409Y265141D01*
X55485Y265049D01*
X55565Y264960D01*
X55647Y264873D01*
X55732Y264789D01*
X55820Y264708D01*
X55910Y264631D01*
X56003Y264556D01*
X56099Y264484D01*
X56197Y264415D01*
X56297Y264350D01*
X56399Y264288D01*
X56503Y264229D01*
X56609Y264174D01*
X56717Y264123D01*
X56826Y264075D01*
X56937Y264030D01*
X57049Y263990D01*
X57163Y263953D01*
X57278Y263920D01*
X57393Y263890D01*
X57510Y263865D01*
X57627Y263843D01*
X57746Y263826D01*
X57864Y263812D01*
X57983Y263802D01*
X58103Y263796D01*
X58222Y263794D01*
X47839Y254762D02*
X43323Y254762D01*
X43190Y254764D01*
X43058Y254770D01*
X42926Y254780D01*
X42794Y254793D01*
X42662Y254811D01*
X42532Y254832D01*
X42401Y254857D01*
X42272Y254886D01*
X42144Y254919D01*
X42016Y254955D01*
X41890Y254995D01*
X41765Y255039D01*
X41641Y255087D01*
X41519Y255138D01*
X41398Y255193D01*
X41279Y255251D01*
X41161Y255313D01*
X41046Y255378D01*
X40932Y255447D01*
X40821Y255518D01*
X40712Y255594D01*
X40605Y255672D01*
X40500Y255753D01*
X40398Y255838D01*
X40298Y255925D01*
X40201Y256015D01*
X40106Y256108D01*
X40015Y256204D01*
X39926Y256302D01*
X39840Y256403D01*
X39757Y256507D01*
X39677Y256613D01*
X39601Y256721D01*
X39527Y256831D01*
X39457Y256944D01*
X39390Y257058D01*
X39327Y257175D01*
X39267Y257293D01*
X39210Y257413D01*
X39157Y257535D01*
X39108Y257658D01*
X39062Y257782D01*
X39020Y257908D01*
X38982Y258035D01*
X38947Y258163D01*
X38916Y258292D01*
X38889Y258421D01*
X38866Y258552D01*
X38846Y258683D01*
X38831Y258815D01*
X38819Y258947D01*
X38811Y259079D01*
X38807Y259212D01*
X38807Y259344D01*
X38811Y259477D01*
X38819Y259609D01*
X38831Y259741D01*
X38846Y259873D01*
X38866Y260004D01*
X38889Y260135D01*
X38916Y260264D01*
X38947Y260393D01*
X38982Y260521D01*
X39020Y260648D01*
X39062Y260774D01*
X39108Y260898D01*
X39157Y261021D01*
X39210Y261143D01*
X39267Y261263D01*
X39327Y261381D01*
X39390Y261498D01*
X39457Y261612D01*
X39527Y261725D01*
X39601Y261835D01*
X39677Y261943D01*
X39757Y262049D01*
X39840Y262153D01*
X39926Y262254D01*
X40015Y262352D01*
X40106Y262448D01*
X40201Y262541D01*
X40298Y262631D01*
X40398Y262718D01*
X40500Y262803D01*
X40605Y262884D01*
X40712Y262962D01*
X40821Y263038D01*
X40932Y263109D01*
X41046Y263178D01*
X41161Y263243D01*
X41279Y263305D01*
X41398Y263363D01*
X41519Y263418D01*
X41641Y263469D01*
X41765Y263517D01*
X41890Y263561D01*
X42016Y263601D01*
X42144Y263637D01*
X42272Y263670D01*
X42401Y263699D01*
X42532Y263724D01*
X42662Y263745D01*
X42794Y263763D01*
X42926Y263776D01*
X43058Y263786D01*
X43190Y263792D01*
X43323Y263794D01*
X42420Y271018D02*
X47839Y271018D01*
X42420Y271018D02*
X42301Y271016D01*
X42181Y271010D01*
X42062Y271000D01*
X41944Y270986D01*
X41825Y270969D01*
X41708Y270947D01*
X41591Y270922D01*
X41476Y270892D01*
X41361Y270859D01*
X41247Y270822D01*
X41135Y270782D01*
X41024Y270737D01*
X40915Y270689D01*
X40807Y270638D01*
X40701Y270583D01*
X40597Y270524D01*
X40495Y270462D01*
X40395Y270397D01*
X40297Y270328D01*
X40201Y270256D01*
X40108Y270181D01*
X40018Y270104D01*
X39930Y270023D01*
X39845Y269939D01*
X39763Y269852D01*
X39683Y269763D01*
X39607Y269671D01*
X39533Y269577D01*
X39463Y269480D01*
X39396Y269382D01*
X39332Y269281D01*
X39272Y269177D01*
X39215Y269072D01*
X39162Y268965D01*
X39112Y268857D01*
X39066Y268747D01*
X39024Y268635D01*
X38985Y268522D01*
X38950Y268408D01*
X38919Y268293D01*
X38891Y268176D01*
X38868Y268059D01*
X38848Y267942D01*
X38832Y267823D01*
X38820Y267704D01*
X38812Y267585D01*
X38808Y267466D01*
X38808Y267346D01*
X38812Y267227D01*
X38820Y267108D01*
X38832Y266989D01*
X38848Y266870D01*
X38868Y266753D01*
X38891Y266636D01*
X38919Y266519D01*
X38950Y266404D01*
X38985Y266290D01*
X39024Y266177D01*
X39066Y266065D01*
X39112Y265955D01*
X39162Y265847D01*
X39215Y265740D01*
X39272Y265635D01*
X39332Y265531D01*
X39396Y265430D01*
X39463Y265332D01*
X39533Y265235D01*
X39607Y265141D01*
X39683Y265049D01*
X39763Y264960D01*
X39845Y264873D01*
X39930Y264789D01*
X40018Y264708D01*
X40108Y264631D01*
X40201Y264556D01*
X40297Y264484D01*
X40395Y264415D01*
X40495Y264350D01*
X40597Y264288D01*
X40701Y264229D01*
X40807Y264174D01*
X40915Y264123D01*
X41024Y264075D01*
X41135Y264030D01*
X41247Y263990D01*
X41361Y263953D01*
X41476Y263920D01*
X41591Y263890D01*
X41708Y263865D01*
X41825Y263843D01*
X41944Y263826D01*
X42062Y263812D01*
X42181Y263802D01*
X42301Y263796D01*
X42420Y263794D01*
X42420Y263793D02*
X46033Y263793D01*
X58222Y238393D02*
X62738Y238393D01*
X58222Y238394D02*
X58089Y238392D01*
X57957Y238386D01*
X57825Y238376D01*
X57693Y238363D01*
X57561Y238345D01*
X57431Y238324D01*
X57300Y238299D01*
X57171Y238270D01*
X57043Y238237D01*
X56915Y238201D01*
X56789Y238161D01*
X56664Y238117D01*
X56540Y238069D01*
X56418Y238018D01*
X56297Y237963D01*
X56178Y237905D01*
X56060Y237843D01*
X55945Y237778D01*
X55831Y237709D01*
X55720Y237638D01*
X55611Y237562D01*
X55504Y237484D01*
X55399Y237403D01*
X55297Y237318D01*
X55197Y237231D01*
X55100Y237141D01*
X55005Y237048D01*
X54914Y236952D01*
X54825Y236854D01*
X54739Y236753D01*
X54656Y236649D01*
X54576Y236543D01*
X54500Y236435D01*
X54426Y236325D01*
X54356Y236212D01*
X54289Y236098D01*
X54226Y235981D01*
X54166Y235863D01*
X54109Y235743D01*
X54056Y235621D01*
X54007Y235498D01*
X53961Y235374D01*
X53919Y235248D01*
X53881Y235121D01*
X53846Y234993D01*
X53815Y234864D01*
X53788Y234735D01*
X53765Y234604D01*
X53745Y234473D01*
X53730Y234341D01*
X53718Y234209D01*
X53710Y234077D01*
X53706Y233944D01*
X53706Y233812D01*
X53710Y233679D01*
X53718Y233547D01*
X53730Y233415D01*
X53745Y233283D01*
X53765Y233152D01*
X53788Y233021D01*
X53815Y232892D01*
X53846Y232763D01*
X53881Y232635D01*
X53919Y232508D01*
X53961Y232382D01*
X54007Y232258D01*
X54056Y232135D01*
X54109Y232013D01*
X54166Y231893D01*
X54226Y231775D01*
X54289Y231658D01*
X54356Y231544D01*
X54426Y231431D01*
X54500Y231321D01*
X54576Y231213D01*
X54656Y231107D01*
X54739Y231003D01*
X54825Y230902D01*
X54914Y230804D01*
X55005Y230708D01*
X55100Y230615D01*
X55197Y230525D01*
X55297Y230438D01*
X55399Y230353D01*
X55504Y230272D01*
X55611Y230194D01*
X55720Y230118D01*
X55831Y230047D01*
X55945Y229978D01*
X56060Y229913D01*
X56178Y229851D01*
X56297Y229793D01*
X56418Y229738D01*
X56540Y229687D01*
X56664Y229639D01*
X56789Y229595D01*
X56915Y229555D01*
X57043Y229519D01*
X57171Y229486D01*
X57300Y229457D01*
X57431Y229432D01*
X57561Y229411D01*
X57693Y229393D01*
X57825Y229380D01*
X57957Y229370D01*
X58089Y229364D01*
X58222Y229362D01*
X62738Y229362D01*
X62738Y245618D01*
X58222Y245618D01*
X58103Y245616D01*
X57983Y245610D01*
X57864Y245600D01*
X57746Y245586D01*
X57627Y245569D01*
X57510Y245547D01*
X57393Y245522D01*
X57278Y245492D01*
X57163Y245459D01*
X57049Y245422D01*
X56937Y245382D01*
X56826Y245337D01*
X56717Y245289D01*
X56609Y245238D01*
X56503Y245183D01*
X56399Y245124D01*
X56297Y245062D01*
X56197Y244997D01*
X56099Y244928D01*
X56003Y244856D01*
X55910Y244781D01*
X55820Y244704D01*
X55732Y244623D01*
X55647Y244539D01*
X55565Y244452D01*
X55485Y244363D01*
X55409Y244271D01*
X55335Y244177D01*
X55265Y244080D01*
X55198Y243982D01*
X55134Y243881D01*
X55074Y243777D01*
X55017Y243672D01*
X54964Y243565D01*
X54914Y243457D01*
X54868Y243347D01*
X54826Y243235D01*
X54787Y243122D01*
X54752Y243008D01*
X54721Y242893D01*
X54693Y242776D01*
X54670Y242659D01*
X54650Y242542D01*
X54634Y242423D01*
X54622Y242304D01*
X54614Y242185D01*
X54610Y242066D01*
X54610Y241946D01*
X54614Y241827D01*
X54622Y241708D01*
X54634Y241589D01*
X54650Y241470D01*
X54670Y241353D01*
X54693Y241236D01*
X54721Y241119D01*
X54752Y241004D01*
X54787Y240890D01*
X54826Y240777D01*
X54868Y240665D01*
X54914Y240555D01*
X54964Y240447D01*
X55017Y240340D01*
X55074Y240235D01*
X55134Y240131D01*
X55198Y240030D01*
X55265Y239932D01*
X55335Y239835D01*
X55409Y239741D01*
X55485Y239649D01*
X55565Y239560D01*
X55647Y239473D01*
X55732Y239389D01*
X55820Y239308D01*
X55910Y239231D01*
X56003Y239156D01*
X56099Y239084D01*
X56197Y239015D01*
X56297Y238950D01*
X56399Y238888D01*
X56503Y238829D01*
X56609Y238774D01*
X56717Y238723D01*
X56826Y238675D01*
X56937Y238630D01*
X57049Y238590D01*
X57163Y238553D01*
X57278Y238520D01*
X57393Y238490D01*
X57510Y238465D01*
X57627Y238443D01*
X57746Y238426D01*
X57864Y238412D01*
X57983Y238402D01*
X58103Y238396D01*
X58222Y238394D01*
X47839Y232974D02*
X44226Y245618D01*
X47839Y232974D02*
X38808Y232974D01*
X41517Y236587D02*
X41517Y229362D01*
X57319Y220218D02*
X62738Y203962D01*
X51901Y203962D02*
X57319Y220218D01*
X53255Y208026D02*
X61383Y208026D01*
X46204Y207574D02*
X42591Y220218D01*
X46204Y207574D02*
X37173Y207574D01*
X39882Y211187D02*
X39882Y203962D01*
X58222Y178562D02*
X62738Y178562D01*
X58222Y178562D02*
X58089Y178564D01*
X57957Y178570D01*
X57825Y178580D01*
X57693Y178593D01*
X57561Y178611D01*
X57431Y178632D01*
X57300Y178657D01*
X57171Y178686D01*
X57043Y178719D01*
X56915Y178755D01*
X56789Y178795D01*
X56664Y178839D01*
X56540Y178887D01*
X56418Y178938D01*
X56297Y178993D01*
X56178Y179051D01*
X56060Y179113D01*
X55945Y179178D01*
X55831Y179247D01*
X55720Y179318D01*
X55611Y179394D01*
X55504Y179472D01*
X55399Y179553D01*
X55297Y179638D01*
X55197Y179725D01*
X55100Y179815D01*
X55005Y179908D01*
X54914Y180004D01*
X54825Y180102D01*
X54739Y180203D01*
X54656Y180307D01*
X54576Y180413D01*
X54500Y180521D01*
X54426Y180631D01*
X54356Y180744D01*
X54289Y180858D01*
X54226Y180975D01*
X54166Y181093D01*
X54109Y181213D01*
X54056Y181335D01*
X54007Y181458D01*
X53961Y181582D01*
X53919Y181708D01*
X53881Y181835D01*
X53846Y181963D01*
X53815Y182092D01*
X53788Y182221D01*
X53765Y182352D01*
X53745Y182483D01*
X53730Y182615D01*
X53718Y182747D01*
X53710Y182879D01*
X53706Y183012D01*
X53706Y183144D01*
X53710Y183277D01*
X53718Y183409D01*
X53730Y183541D01*
X53745Y183673D01*
X53765Y183804D01*
X53788Y183935D01*
X53815Y184064D01*
X53846Y184193D01*
X53881Y184321D01*
X53919Y184448D01*
X53961Y184574D01*
X54007Y184698D01*
X54056Y184821D01*
X54109Y184943D01*
X54166Y185063D01*
X54226Y185181D01*
X54289Y185298D01*
X54356Y185412D01*
X54426Y185525D01*
X54500Y185635D01*
X54576Y185743D01*
X54656Y185849D01*
X54739Y185953D01*
X54825Y186054D01*
X54914Y186152D01*
X55005Y186248D01*
X55100Y186341D01*
X55197Y186431D01*
X55297Y186518D01*
X55399Y186603D01*
X55504Y186684D01*
X55611Y186762D01*
X55720Y186838D01*
X55831Y186909D01*
X55945Y186978D01*
X56060Y187043D01*
X56178Y187105D01*
X56297Y187163D01*
X56418Y187218D01*
X56540Y187269D01*
X56664Y187317D01*
X56789Y187361D01*
X56915Y187401D01*
X57043Y187437D01*
X57171Y187470D01*
X57300Y187499D01*
X57431Y187524D01*
X57561Y187545D01*
X57693Y187563D01*
X57825Y187576D01*
X57957Y187586D01*
X58089Y187592D01*
X58222Y187594D01*
X57319Y194818D02*
X62738Y194818D01*
X57319Y194818D02*
X57200Y194816D01*
X57080Y194810D01*
X56961Y194800D01*
X56843Y194786D01*
X56724Y194769D01*
X56607Y194747D01*
X56490Y194722D01*
X56375Y194692D01*
X56260Y194659D01*
X56146Y194622D01*
X56034Y194582D01*
X55923Y194537D01*
X55814Y194489D01*
X55706Y194438D01*
X55600Y194383D01*
X55496Y194324D01*
X55394Y194262D01*
X55294Y194197D01*
X55196Y194128D01*
X55100Y194056D01*
X55007Y193981D01*
X54917Y193904D01*
X54829Y193823D01*
X54744Y193739D01*
X54662Y193652D01*
X54582Y193563D01*
X54506Y193471D01*
X54432Y193377D01*
X54362Y193280D01*
X54295Y193182D01*
X54231Y193081D01*
X54171Y192977D01*
X54114Y192872D01*
X54061Y192765D01*
X54011Y192657D01*
X53965Y192547D01*
X53923Y192435D01*
X53884Y192322D01*
X53849Y192208D01*
X53818Y192093D01*
X53790Y191976D01*
X53767Y191859D01*
X53747Y191742D01*
X53731Y191623D01*
X53719Y191504D01*
X53711Y191385D01*
X53707Y191266D01*
X53707Y191146D01*
X53711Y191027D01*
X53719Y190908D01*
X53731Y190789D01*
X53747Y190670D01*
X53767Y190553D01*
X53790Y190436D01*
X53818Y190319D01*
X53849Y190204D01*
X53884Y190090D01*
X53923Y189977D01*
X53965Y189865D01*
X54011Y189755D01*
X54061Y189647D01*
X54114Y189540D01*
X54171Y189435D01*
X54231Y189331D01*
X54295Y189230D01*
X54362Y189132D01*
X54432Y189035D01*
X54506Y188941D01*
X54582Y188849D01*
X54662Y188760D01*
X54744Y188673D01*
X54829Y188589D01*
X54917Y188508D01*
X55007Y188431D01*
X55100Y188356D01*
X55196Y188284D01*
X55294Y188215D01*
X55394Y188150D01*
X55496Y188088D01*
X55600Y188029D01*
X55706Y187974D01*
X55814Y187923D01*
X55923Y187875D01*
X56034Y187830D01*
X56146Y187790D01*
X56260Y187753D01*
X56375Y187720D01*
X56490Y187690D01*
X56607Y187665D01*
X56724Y187643D01*
X56843Y187626D01*
X56961Y187612D01*
X57080Y187602D01*
X57200Y187596D01*
X57319Y187594D01*
X57319Y187593D02*
X60932Y187593D01*
X47732Y179465D02*
X47732Y178562D01*
X47732Y179465D02*
X46829Y179465D01*
X46829Y178562D01*
X47732Y178562D01*
X40854Y178562D02*
X36339Y178562D01*
X36206Y178564D01*
X36074Y178570D01*
X35942Y178580D01*
X35810Y178593D01*
X35678Y178611D01*
X35548Y178632D01*
X35417Y178657D01*
X35288Y178686D01*
X35160Y178719D01*
X35032Y178755D01*
X34906Y178795D01*
X34781Y178839D01*
X34657Y178887D01*
X34535Y178938D01*
X34414Y178993D01*
X34295Y179051D01*
X34177Y179113D01*
X34062Y179178D01*
X33948Y179247D01*
X33837Y179318D01*
X33728Y179394D01*
X33621Y179472D01*
X33516Y179553D01*
X33414Y179638D01*
X33314Y179725D01*
X33217Y179815D01*
X33122Y179908D01*
X33031Y180004D01*
X32942Y180102D01*
X32856Y180203D01*
X32773Y180307D01*
X32693Y180413D01*
X32617Y180521D01*
X32543Y180631D01*
X32473Y180744D01*
X32406Y180858D01*
X32343Y180975D01*
X32283Y181093D01*
X32226Y181213D01*
X32173Y181335D01*
X32124Y181458D01*
X32078Y181582D01*
X32036Y181708D01*
X31998Y181835D01*
X31963Y181963D01*
X31932Y182092D01*
X31905Y182221D01*
X31882Y182352D01*
X31862Y182483D01*
X31847Y182615D01*
X31835Y182747D01*
X31827Y182879D01*
X31823Y183012D01*
X31823Y183144D01*
X31827Y183277D01*
X31835Y183409D01*
X31847Y183541D01*
X31862Y183673D01*
X31882Y183804D01*
X31905Y183935D01*
X31932Y184064D01*
X31963Y184193D01*
X31998Y184321D01*
X32036Y184448D01*
X32078Y184574D01*
X32124Y184698D01*
X32173Y184821D01*
X32226Y184943D01*
X32283Y185063D01*
X32343Y185181D01*
X32406Y185298D01*
X32473Y185412D01*
X32543Y185525D01*
X32617Y185635D01*
X32693Y185743D01*
X32773Y185849D01*
X32856Y185953D01*
X32942Y186054D01*
X33031Y186152D01*
X33122Y186248D01*
X33217Y186341D01*
X33314Y186431D01*
X33414Y186518D01*
X33516Y186603D01*
X33621Y186684D01*
X33728Y186762D01*
X33837Y186838D01*
X33948Y186909D01*
X34062Y186978D01*
X34177Y187043D01*
X34295Y187105D01*
X34414Y187163D01*
X34535Y187218D01*
X34657Y187269D01*
X34781Y187317D01*
X34906Y187361D01*
X35032Y187401D01*
X35160Y187437D01*
X35288Y187470D01*
X35417Y187499D01*
X35548Y187524D01*
X35678Y187545D01*
X35810Y187563D01*
X35942Y187576D01*
X36074Y187586D01*
X36206Y187592D01*
X36339Y187594D01*
X35436Y194818D02*
X40854Y194818D01*
X35436Y194818D02*
X35317Y194816D01*
X35197Y194810D01*
X35078Y194800D01*
X34960Y194786D01*
X34841Y194769D01*
X34724Y194747D01*
X34607Y194722D01*
X34492Y194692D01*
X34377Y194659D01*
X34263Y194622D01*
X34151Y194582D01*
X34040Y194537D01*
X33931Y194489D01*
X33823Y194438D01*
X33717Y194383D01*
X33613Y194324D01*
X33511Y194262D01*
X33411Y194197D01*
X33313Y194128D01*
X33217Y194056D01*
X33124Y193981D01*
X33034Y193904D01*
X32946Y193823D01*
X32861Y193739D01*
X32779Y193652D01*
X32699Y193563D01*
X32623Y193471D01*
X32549Y193377D01*
X32479Y193280D01*
X32412Y193182D01*
X32348Y193081D01*
X32288Y192977D01*
X32231Y192872D01*
X32178Y192765D01*
X32128Y192657D01*
X32082Y192547D01*
X32040Y192435D01*
X32001Y192322D01*
X31966Y192208D01*
X31935Y192093D01*
X31907Y191976D01*
X31884Y191859D01*
X31864Y191742D01*
X31848Y191623D01*
X31836Y191504D01*
X31828Y191385D01*
X31824Y191266D01*
X31824Y191146D01*
X31828Y191027D01*
X31836Y190908D01*
X31848Y190789D01*
X31864Y190670D01*
X31884Y190553D01*
X31907Y190436D01*
X31935Y190319D01*
X31966Y190204D01*
X32001Y190090D01*
X32040Y189977D01*
X32082Y189865D01*
X32128Y189755D01*
X32178Y189647D01*
X32231Y189540D01*
X32288Y189435D01*
X32348Y189331D01*
X32412Y189230D01*
X32479Y189132D01*
X32549Y189035D01*
X32623Y188941D01*
X32699Y188849D01*
X32779Y188760D01*
X32861Y188673D01*
X32946Y188589D01*
X33034Y188508D01*
X33124Y188431D01*
X33217Y188356D01*
X33313Y188284D01*
X33411Y188215D01*
X33511Y188150D01*
X33613Y188088D01*
X33717Y188029D01*
X33823Y187974D01*
X33931Y187923D01*
X34040Y187875D01*
X34151Y187830D01*
X34263Y187790D01*
X34377Y187753D01*
X34492Y187720D01*
X34607Y187690D01*
X34724Y187665D01*
X34841Y187643D01*
X34960Y187626D01*
X35078Y187612D01*
X35197Y187602D01*
X35317Y187596D01*
X35436Y187594D01*
X35436Y187593D02*
X39048Y187593D01*
X53707Y162193D02*
X56416Y162193D01*
X53707Y162193D02*
X53707Y153162D01*
X59126Y153162D01*
X59244Y153164D01*
X59362Y153170D01*
X59480Y153179D01*
X59597Y153193D01*
X59714Y153210D01*
X59831Y153231D01*
X59946Y153256D01*
X60061Y153285D01*
X60175Y153318D01*
X60287Y153354D01*
X60398Y153394D01*
X60508Y153437D01*
X60617Y153484D01*
X60724Y153534D01*
X60829Y153589D01*
X60932Y153646D01*
X61033Y153707D01*
X61133Y153771D01*
X61230Y153838D01*
X61325Y153908D01*
X61417Y153982D01*
X61508Y154058D01*
X61595Y154138D01*
X61680Y154220D01*
X61762Y154305D01*
X61842Y154392D01*
X61918Y154483D01*
X61992Y154575D01*
X62062Y154670D01*
X62129Y154767D01*
X62193Y154867D01*
X62254Y154968D01*
X62311Y155071D01*
X62366Y155176D01*
X62416Y155283D01*
X62463Y155392D01*
X62506Y155502D01*
X62546Y155613D01*
X62582Y155725D01*
X62615Y155839D01*
X62644Y155954D01*
X62669Y156069D01*
X62690Y156186D01*
X62707Y156303D01*
X62721Y156420D01*
X62730Y156538D01*
X62736Y156656D01*
X62738Y156774D01*
X62738Y165806D01*
X62736Y165924D01*
X62730Y166042D01*
X62721Y166160D01*
X62707Y166277D01*
X62690Y166394D01*
X62669Y166511D01*
X62644Y166626D01*
X62615Y166741D01*
X62582Y166855D01*
X62546Y166967D01*
X62506Y167078D01*
X62463Y167188D01*
X62416Y167297D01*
X62366Y167404D01*
X62311Y167509D01*
X62254Y167612D01*
X62193Y167713D01*
X62129Y167813D01*
X62062Y167910D01*
X61992Y168005D01*
X61918Y168097D01*
X61842Y168188D01*
X61762Y168275D01*
X61680Y168360D01*
X61595Y168442D01*
X61508Y168522D01*
X61417Y168598D01*
X61325Y168672D01*
X61230Y168742D01*
X61133Y168809D01*
X61033Y168873D01*
X60932Y168934D01*
X60829Y168991D01*
X60724Y169046D01*
X60617Y169096D01*
X60508Y169143D01*
X60398Y169186D01*
X60287Y169226D01*
X60175Y169262D01*
X60061Y169295D01*
X59946Y169324D01*
X59831Y169349D01*
X59714Y169370D01*
X59597Y169387D01*
X59480Y169401D01*
X59362Y169410D01*
X59244Y169416D01*
X59126Y169418D01*
X53707Y169418D01*
X46065Y169418D02*
X46065Y153162D01*
X37034Y153162D02*
X46065Y169418D01*
X37034Y169418D02*
X37034Y153162D01*
X29391Y153162D02*
X29391Y169418D01*
X24876Y169418D01*
X24745Y169416D01*
X24613Y169410D01*
X24482Y169401D01*
X24352Y169387D01*
X24221Y169370D01*
X24092Y169349D01*
X23963Y169325D01*
X23835Y169296D01*
X23707Y169264D01*
X23581Y169228D01*
X23456Y169189D01*
X23331Y169146D01*
X23209Y169099D01*
X23087Y169049D01*
X22967Y168995D01*
X22849Y168938D01*
X22733Y168877D01*
X22618Y168813D01*
X22505Y168746D01*
X22394Y168675D01*
X22286Y168601D01*
X22179Y168524D01*
X22075Y168444D01*
X21973Y168361D01*
X21874Y168276D01*
X21777Y168187D01*
X21683Y168095D01*
X21591Y168001D01*
X21502Y167904D01*
X21417Y167805D01*
X21334Y167703D01*
X21254Y167599D01*
X21177Y167492D01*
X21103Y167384D01*
X21032Y167273D01*
X20965Y167160D01*
X20901Y167045D01*
X20840Y166929D01*
X20783Y166811D01*
X20729Y166691D01*
X20679Y166569D01*
X20632Y166447D01*
X20589Y166322D01*
X20550Y166197D01*
X20514Y166071D01*
X20482Y165943D01*
X20453Y165815D01*
X20429Y165686D01*
X20408Y165557D01*
X20391Y165426D01*
X20377Y165296D01*
X20368Y165165D01*
X20362Y165033D01*
X20360Y164902D01*
X20360Y157678D01*
X20362Y157547D01*
X20368Y157415D01*
X20377Y157284D01*
X20391Y157154D01*
X20408Y157023D01*
X20429Y156894D01*
X20453Y156765D01*
X20482Y156637D01*
X20514Y156509D01*
X20550Y156383D01*
X20589Y156258D01*
X20632Y156133D01*
X20679Y156011D01*
X20729Y155889D01*
X20783Y155769D01*
X20840Y155651D01*
X20901Y155535D01*
X20965Y155420D01*
X21032Y155307D01*
X21103Y155196D01*
X21177Y155088D01*
X21254Y154981D01*
X21334Y154877D01*
X21417Y154775D01*
X21502Y154676D01*
X21591Y154579D01*
X21683Y154485D01*
X21777Y154393D01*
X21874Y154304D01*
X21973Y154219D01*
X22075Y154136D01*
X22179Y154056D01*
X22286Y153979D01*
X22394Y153905D01*
X22505Y153834D01*
X22618Y153767D01*
X22733Y153703D01*
X22849Y153642D01*
X22967Y153585D01*
X23087Y153531D01*
X23209Y153481D01*
X23331Y153434D01*
X23456Y153391D01*
X23581Y153352D01*
X23707Y153316D01*
X23835Y153284D01*
X23963Y153255D01*
X24092Y153231D01*
X24221Y153210D01*
X24352Y153193D01*
X24482Y153179D01*
X24613Y153170D01*
X24745Y153164D01*
X24876Y153162D01*
X29391Y153162D01*
D13*
X499780Y99960D02*
X499780Y21960D01*
X409780Y21960D02*
X409780Y99960D01*
X409780Y21960D02*
X499780Y21960D01*
X499780Y99960D02*
X409780Y99960D01*
X454780Y25960D02*
X494780Y30960D01*
X494780Y40960D01*
X454780Y45960D01*
X449780Y95960D02*
X494780Y90960D01*
X494780Y80960D01*
X449780Y75960D01*
X444780Y53460D02*
X494780Y48460D01*
X444780Y53460D02*
X444780Y68460D01*
X494780Y73460D01*
X306250Y44360D02*
X306250Y1360D01*
X306250Y44360D02*
X392250Y44360D01*
X392250Y1360D01*
X306250Y1360D01*
X349250Y2860D02*
X349250Y-17140D01*
X369250Y-17140D01*
X369250Y2860D01*
M02*
