G04 EAGLE Gerber X2 export*
%TF.Part,Single*%
%TF.FileFunction,Other,Bottom layer*%
%TF.FilePolarity,Positive*%
%TF.GenerationSoftware,Autodesk,EAGLE,8.7.1*%
%TF.CreationDate,2018-04-17T03:08:08Z*%
G75*
%MOMM*%
%FSLAX34Y34*%
%LPD*%
%AMOC8*
5,1,8,0,0,1.08239X$1,22.5*%
G01*
%ADD10C,0.000000*%
%ADD11P,1.429621X8X292.500000*%
%ADD12P,1.429621X8X112.500000*%
%ADD13C,1.320800*%
%ADD14P,1.429621X8X22.500000*%
%ADD15C,1.308000*%
%ADD16C,2.850000*%
%ADD17C,1.879600*%
%ADD18C,1.320800*%
%ADD19C,1.508000*%
%ADD20C,0.406400*%
%ADD21C,0.654800*%
%ADD22P,0.708749X8X22.500000*%

G36*
X27253Y3060D02*
X27253Y3060D01*
X27325Y3062D01*
X27374Y3080D01*
X27425Y3088D01*
X27489Y3122D01*
X27556Y3147D01*
X27597Y3179D01*
X27643Y3204D01*
X27692Y3256D01*
X27748Y3300D01*
X27776Y3344D01*
X27812Y3382D01*
X27842Y3447D01*
X27881Y3507D01*
X27894Y3558D01*
X27916Y3605D01*
X27923Y3676D01*
X27941Y3746D01*
X27937Y3798D01*
X27943Y3849D01*
X27927Y3920D01*
X27922Y3991D01*
X27902Y4039D01*
X27890Y4090D01*
X27854Y4151D01*
X27826Y4217D01*
X27781Y4273D01*
X27764Y4301D01*
X27746Y4316D01*
X27721Y4348D01*
X22097Y9972D01*
X22097Y17968D01*
X27752Y23623D01*
X35748Y23623D01*
X41403Y17968D01*
X41403Y9972D01*
X35779Y4348D01*
X35737Y4290D01*
X35688Y4238D01*
X35666Y4191D01*
X35636Y4149D01*
X35615Y4080D01*
X35584Y4015D01*
X35579Y3963D01*
X35563Y3913D01*
X35565Y3842D01*
X35557Y3771D01*
X35568Y3720D01*
X35570Y3668D01*
X35594Y3600D01*
X35610Y3530D01*
X35636Y3485D01*
X35654Y3437D01*
X35699Y3381D01*
X35736Y3319D01*
X35775Y3285D01*
X35808Y3245D01*
X35868Y3206D01*
X35923Y3159D01*
X35971Y3140D01*
X36015Y3112D01*
X36084Y3094D01*
X36151Y3067D01*
X36222Y3059D01*
X36253Y3051D01*
X36277Y3053D01*
X36318Y3049D01*
X70362Y3049D01*
X70433Y3060D01*
X70505Y3062D01*
X70554Y3080D01*
X70605Y3088D01*
X70669Y3122D01*
X70736Y3147D01*
X70777Y3179D01*
X70823Y3204D01*
X70872Y3256D01*
X70928Y3300D01*
X70956Y3344D01*
X70992Y3382D01*
X71022Y3447D01*
X71061Y3507D01*
X71074Y3558D01*
X71096Y3605D01*
X71103Y3676D01*
X71121Y3746D01*
X71117Y3798D01*
X71123Y3849D01*
X71107Y3920D01*
X71102Y3991D01*
X71082Y4039D01*
X71070Y4090D01*
X71034Y4151D01*
X71006Y4217D01*
X70961Y4273D01*
X70944Y4301D01*
X70926Y4316D01*
X70901Y4348D01*
X66547Y8702D01*
X66547Y16698D01*
X72202Y22353D01*
X80198Y22353D01*
X85853Y16698D01*
X85853Y8702D01*
X81499Y4348D01*
X81457Y4290D01*
X81408Y4238D01*
X81386Y4191D01*
X81356Y4149D01*
X81335Y4080D01*
X81304Y4015D01*
X81299Y3963D01*
X81283Y3913D01*
X81285Y3842D01*
X81277Y3771D01*
X81288Y3720D01*
X81290Y3668D01*
X81314Y3600D01*
X81330Y3530D01*
X81356Y3485D01*
X81374Y3437D01*
X81419Y3381D01*
X81456Y3319D01*
X81495Y3285D01*
X81528Y3245D01*
X81588Y3206D01*
X81643Y3159D01*
X81691Y3140D01*
X81735Y3112D01*
X81804Y3094D01*
X81871Y3067D01*
X81942Y3059D01*
X81973Y3051D01*
X81997Y3053D01*
X82038Y3049D01*
X495300Y3049D01*
X495320Y3052D01*
X495339Y3050D01*
X495441Y3072D01*
X495543Y3088D01*
X495560Y3098D01*
X495580Y3102D01*
X495669Y3155D01*
X495760Y3204D01*
X495774Y3218D01*
X495791Y3228D01*
X495858Y3307D01*
X495930Y3382D01*
X495938Y3400D01*
X495951Y3415D01*
X495990Y3511D01*
X496033Y3605D01*
X496035Y3625D01*
X496043Y3643D01*
X496061Y3810D01*
X496061Y156622D01*
X496049Y156697D01*
X496046Y156772D01*
X496029Y156817D01*
X496022Y156865D01*
X495986Y156932D01*
X495959Y157002D01*
X495929Y157040D01*
X495906Y157082D01*
X495852Y157134D01*
X495804Y157193D01*
X495763Y157218D01*
X495728Y157251D01*
X495659Y157283D01*
X495595Y157324D01*
X495549Y157335D01*
X495505Y157355D01*
X495430Y157363D01*
X495356Y157381D01*
X495308Y157377D01*
X495261Y157382D01*
X495187Y157366D01*
X495111Y157359D01*
X495051Y157337D01*
X495020Y157330D01*
X494998Y157317D01*
X494954Y157300D01*
X493533Y156576D01*
X491746Y155995D01*
X490473Y155794D01*
X490473Y166878D01*
X490470Y166898D01*
X490472Y166917D01*
X490450Y167019D01*
X490433Y167121D01*
X490424Y167138D01*
X490420Y167158D01*
X490367Y167247D01*
X490318Y167338D01*
X490304Y167352D01*
X490294Y167369D01*
X490215Y167436D01*
X490140Y167507D01*
X490122Y167516D01*
X490107Y167529D01*
X490011Y167567D01*
X489917Y167611D01*
X489897Y167613D01*
X489879Y167621D01*
X489712Y167639D01*
X488949Y167639D01*
X488949Y168402D01*
X488946Y168422D01*
X488948Y168441D01*
X488926Y168543D01*
X488909Y168645D01*
X488900Y168662D01*
X488896Y168682D01*
X488843Y168771D01*
X488794Y168862D01*
X488780Y168876D01*
X488770Y168893D01*
X488691Y168960D01*
X488616Y169031D01*
X488598Y169040D01*
X488583Y169053D01*
X488487Y169092D01*
X488393Y169135D01*
X488373Y169137D01*
X488355Y169145D01*
X488188Y169163D01*
X477104Y169163D01*
X477305Y170436D01*
X477886Y172223D01*
X478739Y173897D01*
X479844Y175418D01*
X481172Y176746D01*
X482693Y177851D01*
X484367Y178704D01*
X486141Y179281D01*
X486231Y179327D01*
X486324Y179368D01*
X486340Y179383D01*
X486360Y179393D01*
X486430Y179466D01*
X486505Y179535D01*
X486516Y179554D01*
X486531Y179570D01*
X486575Y179661D01*
X486624Y179750D01*
X486628Y179772D01*
X486637Y179792D01*
X486649Y179892D01*
X486667Y179992D01*
X486664Y180014D01*
X486667Y180036D01*
X486646Y180135D01*
X486632Y180235D01*
X486622Y180255D01*
X486617Y180277D01*
X486566Y180364D01*
X486520Y180455D01*
X486504Y180470D01*
X486493Y180489D01*
X486417Y180556D01*
X486345Y180627D01*
X486320Y180640D01*
X486308Y180651D01*
X486278Y180664D01*
X486198Y180708D01*
X481899Y182488D01*
X478398Y185989D01*
X476503Y190564D01*
X476503Y195516D01*
X478398Y200091D01*
X481899Y203592D01*
X485388Y205037D01*
X485449Y205075D01*
X485514Y205104D01*
X485552Y205139D01*
X485597Y205166D01*
X485643Y205222D01*
X485695Y205270D01*
X485720Y205316D01*
X485754Y205356D01*
X485779Y205423D01*
X485814Y205486D01*
X485823Y205537D01*
X485842Y205585D01*
X485845Y205657D01*
X485858Y205728D01*
X485850Y205779D01*
X485852Y205831D01*
X485832Y205900D01*
X485822Y205971D01*
X485798Y206017D01*
X485784Y206067D01*
X485743Y206126D01*
X485710Y206190D01*
X485673Y206227D01*
X485643Y206269D01*
X485586Y206312D01*
X485535Y206362D01*
X485472Y206397D01*
X485446Y206416D01*
X485424Y206423D01*
X485388Y206443D01*
X481899Y207888D01*
X478398Y211389D01*
X476503Y215964D01*
X476503Y220916D01*
X478398Y225491D01*
X481899Y228992D01*
X485388Y230437D01*
X485449Y230475D01*
X485514Y230504D01*
X485552Y230539D01*
X485597Y230566D01*
X485643Y230622D01*
X485695Y230670D01*
X485720Y230716D01*
X485754Y230756D01*
X485779Y230823D01*
X485814Y230886D01*
X485823Y230937D01*
X485842Y230985D01*
X485845Y231057D01*
X485858Y231128D01*
X485850Y231179D01*
X485852Y231231D01*
X485832Y231300D01*
X485822Y231371D01*
X485798Y231417D01*
X485784Y231467D01*
X485743Y231526D01*
X485710Y231590D01*
X485673Y231627D01*
X485643Y231669D01*
X485586Y231712D01*
X485535Y231762D01*
X485472Y231797D01*
X485446Y231816D01*
X485424Y231823D01*
X485388Y231843D01*
X481899Y233288D01*
X478398Y236789D01*
X476503Y241364D01*
X476503Y246316D01*
X478398Y250891D01*
X481899Y254392D01*
X485388Y255837D01*
X485449Y255875D01*
X485514Y255904D01*
X485552Y255939D01*
X485597Y255966D01*
X485643Y256022D01*
X485695Y256070D01*
X485720Y256116D01*
X485754Y256156D01*
X485779Y256223D01*
X485814Y256286D01*
X485823Y256337D01*
X485842Y256385D01*
X485845Y256457D01*
X485858Y256528D01*
X485850Y256579D01*
X485852Y256631D01*
X485832Y256700D01*
X485822Y256771D01*
X485798Y256817D01*
X485784Y256867D01*
X485743Y256926D01*
X485710Y256990D01*
X485673Y257027D01*
X485643Y257069D01*
X485586Y257112D01*
X485535Y257162D01*
X485489Y257188D01*
X485479Y257196D01*
X485467Y257201D01*
X485446Y257216D01*
X485424Y257223D01*
X485388Y257243D01*
X481899Y258688D01*
X478398Y262189D01*
X476503Y266764D01*
X476503Y271716D01*
X478398Y276291D01*
X481899Y279792D01*
X485388Y281237D01*
X485449Y281275D01*
X485514Y281304D01*
X485552Y281339D01*
X485597Y281366D01*
X485643Y281422D01*
X485695Y281470D01*
X485720Y281516D01*
X485754Y281556D01*
X485779Y281623D01*
X485814Y281686D01*
X485823Y281737D01*
X485842Y281785D01*
X485845Y281857D01*
X485858Y281928D01*
X485850Y281979D01*
X485852Y282031D01*
X485832Y282100D01*
X485822Y282171D01*
X485798Y282217D01*
X485784Y282267D01*
X485743Y282326D01*
X485710Y282390D01*
X485673Y282427D01*
X485643Y282469D01*
X485586Y282512D01*
X485535Y282562D01*
X485472Y282597D01*
X485446Y282616D01*
X485424Y282623D01*
X485388Y282643D01*
X481899Y284088D01*
X478398Y287589D01*
X476503Y292164D01*
X476503Y297116D01*
X478398Y301691D01*
X481899Y305192D01*
X485388Y306637D01*
X485449Y306675D01*
X485514Y306704D01*
X485552Y306739D01*
X485597Y306766D01*
X485643Y306822D01*
X485695Y306870D01*
X485720Y306916D01*
X485754Y306956D01*
X485779Y307023D01*
X485814Y307086D01*
X485823Y307137D01*
X485842Y307185D01*
X485845Y307257D01*
X485858Y307328D01*
X485850Y307379D01*
X485852Y307431D01*
X485832Y307500D01*
X485822Y307571D01*
X485798Y307617D01*
X485784Y307667D01*
X485743Y307726D01*
X485710Y307790D01*
X485673Y307827D01*
X485643Y307869D01*
X485586Y307912D01*
X485535Y307962D01*
X485472Y307997D01*
X485446Y308016D01*
X485424Y308023D01*
X485388Y308043D01*
X481899Y309488D01*
X478398Y312989D01*
X476503Y317564D01*
X476503Y322516D01*
X478398Y327091D01*
X481899Y330592D01*
X485388Y332037D01*
X485449Y332075D01*
X485514Y332104D01*
X485552Y332139D01*
X485597Y332166D01*
X485643Y332222D01*
X485695Y332270D01*
X485720Y332316D01*
X485754Y332356D01*
X485779Y332423D01*
X485814Y332486D01*
X485823Y332537D01*
X485842Y332585D01*
X485845Y332657D01*
X485858Y332728D01*
X485850Y332779D01*
X485852Y332831D01*
X485832Y332900D01*
X485822Y332971D01*
X485798Y333017D01*
X485784Y333067D01*
X485743Y333126D01*
X485710Y333190D01*
X485673Y333227D01*
X485643Y333269D01*
X485586Y333312D01*
X485535Y333362D01*
X485472Y333397D01*
X485446Y333416D01*
X485424Y333423D01*
X485388Y333443D01*
X481899Y334888D01*
X478398Y338389D01*
X476503Y342964D01*
X476503Y347916D01*
X478398Y352491D01*
X481899Y355992D01*
X486474Y357887D01*
X491426Y357887D01*
X495009Y356403D01*
X495053Y356392D01*
X495095Y356373D01*
X495172Y356364D01*
X495248Y356346D01*
X495294Y356351D01*
X495339Y356346D01*
X495416Y356362D01*
X495493Y356370D01*
X495535Y356388D01*
X495580Y356398D01*
X495647Y356438D01*
X495718Y356470D01*
X495752Y356501D01*
X495791Y356524D01*
X495842Y356583D01*
X495899Y356636D01*
X495921Y356676D01*
X495951Y356711D01*
X495980Y356783D01*
X496017Y356851D01*
X496026Y356897D01*
X496043Y356939D01*
X496058Y357075D01*
X496061Y357094D01*
X496060Y357099D01*
X496061Y357106D01*
X496061Y495300D01*
X496058Y495320D01*
X496060Y495339D01*
X496038Y495441D01*
X496022Y495543D01*
X496012Y495560D01*
X496008Y495580D01*
X495955Y495669D01*
X495906Y495760D01*
X495892Y495774D01*
X495882Y495791D01*
X495803Y495858D01*
X495728Y495930D01*
X495710Y495938D01*
X495695Y495951D01*
X495599Y495990D01*
X495505Y496033D01*
X495485Y496035D01*
X495467Y496043D01*
X495300Y496061D01*
X3810Y496061D01*
X3790Y496058D01*
X3771Y496060D01*
X3669Y496038D01*
X3567Y496021D01*
X3550Y496012D01*
X3530Y496008D01*
X3441Y495955D01*
X3350Y495906D01*
X3336Y495892D01*
X3319Y495882D01*
X3252Y495803D01*
X3180Y495728D01*
X3172Y495710D01*
X3159Y495695D01*
X3120Y495599D01*
X3077Y495505D01*
X3075Y495485D01*
X3067Y495467D01*
X3049Y495300D01*
X3049Y479689D01*
X3060Y479618D01*
X3062Y479546D01*
X3080Y479497D01*
X3088Y479446D01*
X3122Y479383D01*
X3147Y479315D01*
X3179Y479275D01*
X3204Y479229D01*
X3256Y479179D01*
X3300Y479123D01*
X3344Y479095D01*
X3382Y479059D01*
X3447Y479029D01*
X3507Y478990D01*
X3558Y478978D01*
X3605Y478956D01*
X3676Y478948D01*
X3746Y478930D01*
X3798Y478934D01*
X3849Y478929D01*
X3920Y478944D01*
X3991Y478949D01*
X4039Y478970D01*
X4090Y478981D01*
X4151Y479018D01*
X4217Y479046D01*
X4273Y479091D01*
X4301Y479107D01*
X4316Y479125D01*
X4348Y479151D01*
X5649Y480452D01*
X10224Y482347D01*
X15176Y482347D01*
X19751Y480452D01*
X23252Y476951D01*
X25147Y472376D01*
X25147Y467424D01*
X23252Y462849D01*
X19751Y459348D01*
X16262Y457903D01*
X16201Y457865D01*
X16136Y457836D01*
X16098Y457801D01*
X16053Y457774D01*
X16007Y457718D01*
X15955Y457670D01*
X15930Y457624D01*
X15896Y457584D01*
X15871Y457517D01*
X15836Y457454D01*
X15827Y457403D01*
X15808Y457355D01*
X15805Y457283D01*
X15792Y457212D01*
X15800Y457161D01*
X15798Y457109D01*
X15818Y457040D01*
X15828Y456969D01*
X15852Y456923D01*
X15866Y456873D01*
X15907Y456814D01*
X15940Y456750D01*
X15977Y456713D01*
X16007Y456671D01*
X16064Y456628D01*
X16115Y456578D01*
X16178Y456543D01*
X16204Y456524D01*
X16226Y456517D01*
X16262Y456497D01*
X19751Y455052D01*
X23252Y451551D01*
X25147Y446976D01*
X25147Y442024D01*
X23252Y437449D01*
X19751Y433948D01*
X15452Y432168D01*
X15366Y432114D01*
X15277Y432066D01*
X15262Y432050D01*
X15243Y432038D01*
X15179Y431960D01*
X15110Y431886D01*
X15101Y431866D01*
X15087Y431849D01*
X15050Y431754D01*
X15009Y431662D01*
X15006Y431640D01*
X14998Y431619D01*
X14994Y431518D01*
X14984Y431417D01*
X14989Y431396D01*
X14988Y431373D01*
X15016Y431276D01*
X15039Y431177D01*
X15050Y431158D01*
X15057Y431137D01*
X15114Y431054D01*
X15167Y430968D01*
X15184Y430953D01*
X15197Y430935D01*
X15278Y430875D01*
X15356Y430810D01*
X15381Y430798D01*
X15394Y430788D01*
X15425Y430778D01*
X15509Y430741D01*
X17283Y430164D01*
X18957Y429311D01*
X20478Y428206D01*
X21806Y426878D01*
X22911Y425357D01*
X23764Y423683D01*
X24345Y421896D01*
X24546Y420623D01*
X13462Y420623D01*
X13442Y420620D01*
X13423Y420622D01*
X13321Y420600D01*
X13219Y420583D01*
X13202Y420574D01*
X13182Y420570D01*
X13093Y420517D01*
X13002Y420468D01*
X12988Y420454D01*
X12971Y420444D01*
X12904Y420365D01*
X12833Y420290D01*
X12824Y420272D01*
X12811Y420257D01*
X12773Y420161D01*
X12729Y420067D01*
X12727Y420047D01*
X12719Y420029D01*
X12701Y419862D01*
X12701Y418338D01*
X12704Y418318D01*
X12702Y418299D01*
X12724Y418197D01*
X12741Y418095D01*
X12750Y418078D01*
X12754Y418058D01*
X12807Y417969D01*
X12856Y417878D01*
X12870Y417864D01*
X12880Y417847D01*
X12959Y417780D01*
X13034Y417709D01*
X13052Y417700D01*
X13067Y417687D01*
X13163Y417648D01*
X13257Y417605D01*
X13277Y417603D01*
X13295Y417595D01*
X13462Y417577D01*
X24546Y417577D01*
X24345Y416304D01*
X23764Y414517D01*
X22911Y412843D01*
X21806Y411322D01*
X20478Y409994D01*
X18957Y408889D01*
X17283Y408036D01*
X15509Y407459D01*
X15419Y407413D01*
X15326Y407372D01*
X15310Y407357D01*
X15290Y407347D01*
X15220Y407274D01*
X15145Y407205D01*
X15134Y407186D01*
X15119Y407170D01*
X15075Y407079D01*
X15026Y406990D01*
X15022Y406968D01*
X15013Y406948D01*
X15001Y406848D01*
X14983Y406748D01*
X14986Y406726D01*
X14983Y406704D01*
X15004Y406605D01*
X15018Y406505D01*
X15028Y406485D01*
X15033Y406463D01*
X15084Y406376D01*
X15130Y406285D01*
X15146Y406270D01*
X15157Y406251D01*
X15233Y406184D01*
X15305Y406113D01*
X15330Y406100D01*
X15342Y406089D01*
X15372Y406076D01*
X15452Y406032D01*
X19751Y404252D01*
X23252Y400751D01*
X25147Y396176D01*
X25147Y391224D01*
X24525Y389724D01*
X24499Y389611D01*
X24470Y389497D01*
X24471Y389491D01*
X24469Y389485D01*
X24480Y389368D01*
X24489Y389252D01*
X24492Y389246D01*
X24492Y389240D01*
X24540Y389132D01*
X24586Y389026D01*
X24590Y389020D01*
X24592Y389015D01*
X24605Y389001D01*
X24690Y388895D01*
X37442Y376144D01*
X37515Y376091D01*
X37585Y376031D01*
X37615Y376019D01*
X37641Y376000D01*
X37728Y375973D01*
X37813Y375939D01*
X37854Y375935D01*
X37876Y375928D01*
X37909Y375929D01*
X37980Y375921D01*
X189014Y375921D01*
X189128Y375940D01*
X189245Y375957D01*
X189250Y375959D01*
X189257Y375960D01*
X189360Y376015D01*
X189464Y376068D01*
X189468Y376073D01*
X189474Y376076D01*
X189554Y376160D01*
X189636Y376244D01*
X189640Y376250D01*
X189643Y376254D01*
X189651Y376271D01*
X189658Y376283D01*
X192398Y379023D01*
X195946Y380493D01*
X212994Y380493D01*
X216542Y379023D01*
X219257Y376308D01*
X220727Y372760D01*
X220727Y368920D01*
X219257Y365372D01*
X216542Y362657D01*
X212994Y361187D01*
X195946Y361187D01*
X192398Y362657D01*
X189640Y365415D01*
X189596Y365489D01*
X189591Y365493D01*
X189588Y365498D01*
X189497Y365573D01*
X189409Y365649D01*
X189403Y365651D01*
X189398Y365655D01*
X189289Y365697D01*
X189181Y365741D01*
X189173Y365742D01*
X189169Y365743D01*
X189150Y365744D01*
X189014Y365759D01*
X33455Y365759D01*
X25525Y373690D01*
X25446Y373747D01*
X25371Y373809D01*
X25346Y373818D01*
X25325Y373833D01*
X25232Y373862D01*
X25141Y373897D01*
X25115Y373898D01*
X25090Y373906D01*
X24993Y373903D01*
X24895Y373907D01*
X24870Y373900D01*
X24844Y373899D01*
X24753Y373866D01*
X24659Y373839D01*
X24638Y373824D01*
X24613Y373815D01*
X24537Y373754D01*
X24457Y373699D01*
X24442Y373678D01*
X24421Y373661D01*
X24369Y373579D01*
X24310Y373501D01*
X24302Y373476D01*
X24288Y373454D01*
X24264Y373360D01*
X24234Y373267D01*
X24234Y373241D01*
X24228Y373216D01*
X24236Y373119D01*
X24237Y373021D01*
X24246Y372990D01*
X24247Y372971D01*
X24260Y372940D01*
X24283Y372860D01*
X25147Y370776D01*
X25147Y365824D01*
X24525Y364324D01*
X24499Y364211D01*
X24470Y364097D01*
X24471Y364091D01*
X24469Y364085D01*
X24480Y363968D01*
X24489Y363852D01*
X24492Y363846D01*
X24492Y363840D01*
X24540Y363732D01*
X24586Y363626D01*
X24590Y363620D01*
X24592Y363615D01*
X24605Y363601D01*
X24690Y363495D01*
X37442Y350744D01*
X37515Y350691D01*
X37585Y350631D01*
X37615Y350619D01*
X37641Y350600D01*
X37728Y350573D01*
X37813Y350539D01*
X37854Y350535D01*
X37876Y350528D01*
X37909Y350529D01*
X37980Y350521D01*
X189014Y350521D01*
X189128Y350540D01*
X189245Y350557D01*
X189250Y350559D01*
X189257Y350560D01*
X189360Y350615D01*
X189464Y350668D01*
X189468Y350673D01*
X189474Y350676D01*
X189554Y350760D01*
X189636Y350844D01*
X189640Y350850D01*
X189643Y350854D01*
X189651Y350871D01*
X189658Y350883D01*
X192398Y353623D01*
X195946Y355093D01*
X212994Y355093D01*
X216542Y353623D01*
X219257Y350908D01*
X220727Y347360D01*
X220727Y343520D01*
X219257Y339972D01*
X216542Y337257D01*
X212994Y335787D01*
X195946Y335787D01*
X192398Y337257D01*
X189640Y340015D01*
X189596Y340089D01*
X189591Y340093D01*
X189588Y340098D01*
X189497Y340173D01*
X189409Y340249D01*
X189403Y340251D01*
X189398Y340255D01*
X189289Y340297D01*
X189181Y340341D01*
X189173Y340342D01*
X189169Y340343D01*
X189150Y340344D01*
X189014Y340359D01*
X33455Y340359D01*
X25525Y348290D01*
X25446Y348347D01*
X25371Y348409D01*
X25346Y348418D01*
X25325Y348433D01*
X25232Y348462D01*
X25141Y348497D01*
X25115Y348498D01*
X25090Y348506D01*
X24993Y348503D01*
X24895Y348507D01*
X24870Y348500D01*
X24844Y348499D01*
X24753Y348466D01*
X24659Y348439D01*
X24638Y348424D01*
X24613Y348415D01*
X24537Y348354D01*
X24457Y348299D01*
X24442Y348278D01*
X24421Y348261D01*
X24369Y348179D01*
X24310Y348101D01*
X24302Y348076D01*
X24288Y348054D01*
X24264Y347960D01*
X24234Y347867D01*
X24234Y347841D01*
X24228Y347816D01*
X24236Y347719D01*
X24237Y347621D01*
X24246Y347590D01*
X24247Y347571D01*
X24260Y347540D01*
X24283Y347460D01*
X25147Y345376D01*
X25147Y340424D01*
X23252Y335849D01*
X19751Y332348D01*
X16262Y330903D01*
X16201Y330865D01*
X16136Y330836D01*
X16097Y330801D01*
X16053Y330774D01*
X16007Y330718D01*
X15955Y330670D01*
X15930Y330624D01*
X15896Y330584D01*
X15871Y330517D01*
X15836Y330454D01*
X15827Y330403D01*
X15808Y330355D01*
X15805Y330283D01*
X15792Y330212D01*
X15800Y330161D01*
X15798Y330109D01*
X15818Y330040D01*
X15828Y329969D01*
X15852Y329923D01*
X15866Y329873D01*
X15907Y329814D01*
X15940Y329750D01*
X15977Y329713D01*
X16007Y329671D01*
X16064Y329628D01*
X16115Y329578D01*
X16178Y329543D01*
X16204Y329524D01*
X16226Y329517D01*
X16262Y329497D01*
X19751Y328052D01*
X23252Y324551D01*
X25147Y319976D01*
X25147Y315024D01*
X23252Y310449D01*
X19751Y306948D01*
X16262Y305503D01*
X16201Y305465D01*
X16136Y305436D01*
X16098Y305401D01*
X16053Y305374D01*
X16007Y305318D01*
X15955Y305270D01*
X15930Y305224D01*
X15896Y305184D01*
X15871Y305117D01*
X15836Y305054D01*
X15827Y305003D01*
X15808Y304955D01*
X15805Y304883D01*
X15792Y304812D01*
X15800Y304761D01*
X15798Y304709D01*
X15818Y304640D01*
X15828Y304569D01*
X15852Y304523D01*
X15866Y304473D01*
X15907Y304414D01*
X15940Y304350D01*
X15977Y304313D01*
X16007Y304271D01*
X16064Y304228D01*
X16115Y304178D01*
X16178Y304143D01*
X16204Y304124D01*
X16226Y304117D01*
X16262Y304097D01*
X19751Y302652D01*
X23252Y299151D01*
X25147Y294576D01*
X25147Y289624D01*
X23252Y285049D01*
X19751Y281548D01*
X16262Y280103D01*
X16201Y280065D01*
X16136Y280036D01*
X16098Y280001D01*
X16053Y279974D01*
X16008Y279918D01*
X15955Y279870D01*
X15930Y279824D01*
X15896Y279784D01*
X15871Y279717D01*
X15836Y279654D01*
X15827Y279603D01*
X15808Y279555D01*
X15805Y279483D01*
X15792Y279412D01*
X15800Y279361D01*
X15798Y279309D01*
X15818Y279240D01*
X15828Y279169D01*
X15852Y279123D01*
X15866Y279073D01*
X15907Y279014D01*
X15940Y278950D01*
X15977Y278913D01*
X16007Y278871D01*
X16064Y278828D01*
X16115Y278778D01*
X16178Y278743D01*
X16204Y278724D01*
X16226Y278717D01*
X16262Y278697D01*
X19751Y277252D01*
X23252Y273751D01*
X25147Y269176D01*
X25147Y264224D01*
X23252Y259649D01*
X19751Y256148D01*
X16262Y254703D01*
X16201Y254665D01*
X16136Y254636D01*
X16098Y254601D01*
X16053Y254574D01*
X16008Y254518D01*
X15955Y254470D01*
X15930Y254424D01*
X15896Y254384D01*
X15871Y254317D01*
X15836Y254254D01*
X15827Y254203D01*
X15808Y254155D01*
X15805Y254083D01*
X15792Y254012D01*
X15800Y253961D01*
X15798Y253909D01*
X15818Y253840D01*
X15828Y253769D01*
X15852Y253723D01*
X15866Y253673D01*
X15907Y253614D01*
X15940Y253550D01*
X15977Y253513D01*
X16007Y253471D01*
X16064Y253428D01*
X16115Y253378D01*
X16178Y253343D01*
X16204Y253324D01*
X16226Y253317D01*
X16262Y253297D01*
X19751Y251852D01*
X23252Y248351D01*
X25147Y243776D01*
X25147Y238824D01*
X24525Y237324D01*
X24499Y237211D01*
X24470Y237097D01*
X24471Y237091D01*
X24469Y237085D01*
X24480Y236968D01*
X24489Y236852D01*
X24492Y236846D01*
X24492Y236840D01*
X24540Y236732D01*
X24586Y236626D01*
X24590Y236620D01*
X24592Y236615D01*
X24605Y236601D01*
X24690Y236495D01*
X62842Y198344D01*
X62915Y198291D01*
X62985Y198231D01*
X63015Y198219D01*
X63041Y198200D01*
X63128Y198173D01*
X63213Y198139D01*
X63254Y198135D01*
X63276Y198128D01*
X63309Y198129D01*
X63380Y198121D01*
X151892Y198121D01*
X151912Y198124D01*
X151931Y198122D01*
X152033Y198144D01*
X152135Y198160D01*
X152152Y198170D01*
X152172Y198174D01*
X152261Y198227D01*
X152352Y198276D01*
X152366Y198290D01*
X152383Y198300D01*
X152450Y198379D01*
X152522Y198454D01*
X152530Y198472D01*
X152543Y198487D01*
X152582Y198583D01*
X152625Y198677D01*
X152627Y198697D01*
X152635Y198715D01*
X152653Y198882D01*
X152653Y203136D01*
X154548Y207711D01*
X158049Y211212D01*
X162348Y212992D01*
X162434Y213046D01*
X162523Y213094D01*
X162538Y213110D01*
X162557Y213122D01*
X162621Y213200D01*
X162690Y213274D01*
X162699Y213294D01*
X162713Y213311D01*
X162750Y213406D01*
X162791Y213498D01*
X162794Y213520D01*
X162802Y213541D01*
X162806Y213642D01*
X162816Y213743D01*
X162811Y213764D01*
X162812Y213787D01*
X162784Y213884D01*
X162761Y213983D01*
X162750Y214002D01*
X162743Y214023D01*
X162686Y214106D01*
X162633Y214192D01*
X162616Y214207D01*
X162603Y214225D01*
X162522Y214285D01*
X162444Y214350D01*
X162419Y214362D01*
X162406Y214372D01*
X162375Y214382D01*
X162291Y214419D01*
X160517Y214996D01*
X158843Y215849D01*
X157322Y216954D01*
X155994Y218282D01*
X154889Y219803D01*
X154036Y221477D01*
X153455Y223264D01*
X153254Y224537D01*
X164338Y224537D01*
X164358Y224540D01*
X164377Y224538D01*
X164479Y224560D01*
X164581Y224577D01*
X164598Y224586D01*
X164618Y224590D01*
X164707Y224643D01*
X164798Y224692D01*
X164812Y224706D01*
X164829Y224716D01*
X164896Y224795D01*
X164967Y224870D01*
X164976Y224888D01*
X164989Y224903D01*
X165027Y224999D01*
X165071Y225093D01*
X165073Y225113D01*
X165081Y225131D01*
X165099Y225298D01*
X165099Y226822D01*
X165096Y226842D01*
X165098Y226861D01*
X165076Y226963D01*
X165059Y227065D01*
X165050Y227082D01*
X165046Y227102D01*
X164993Y227191D01*
X164944Y227282D01*
X164930Y227296D01*
X164920Y227313D01*
X164841Y227380D01*
X164766Y227451D01*
X164748Y227460D01*
X164733Y227473D01*
X164637Y227512D01*
X164543Y227555D01*
X164523Y227557D01*
X164505Y227565D01*
X164338Y227583D01*
X153254Y227583D01*
X153455Y228856D01*
X154036Y230643D01*
X154889Y232317D01*
X155994Y233838D01*
X157322Y235166D01*
X158843Y236271D01*
X160517Y237124D01*
X162291Y237701D01*
X162381Y237747D01*
X162474Y237788D01*
X162490Y237803D01*
X162510Y237813D01*
X162580Y237886D01*
X162655Y237955D01*
X162666Y237974D01*
X162681Y237990D01*
X162725Y238081D01*
X162774Y238170D01*
X162778Y238192D01*
X162787Y238212D01*
X162799Y238312D01*
X162817Y238412D01*
X162814Y238434D01*
X162817Y238456D01*
X162796Y238555D01*
X162782Y238655D01*
X162772Y238675D01*
X162767Y238697D01*
X162716Y238784D01*
X162670Y238875D01*
X162654Y238890D01*
X162643Y238909D01*
X162567Y238976D01*
X162495Y239047D01*
X162470Y239060D01*
X162458Y239071D01*
X162428Y239084D01*
X162348Y239128D01*
X158049Y240908D01*
X154548Y244409D01*
X152653Y248984D01*
X152653Y253936D01*
X154548Y258511D01*
X158049Y262012D01*
X162624Y263907D01*
X167576Y263907D01*
X172151Y262012D01*
X175652Y258511D01*
X177547Y253936D01*
X177547Y248984D01*
X175652Y244409D01*
X172151Y240908D01*
X167852Y239128D01*
X167766Y239074D01*
X167677Y239026D01*
X167662Y239010D01*
X167643Y238998D01*
X167579Y238920D01*
X167510Y238846D01*
X167501Y238826D01*
X167487Y238809D01*
X167450Y238714D01*
X167409Y238622D01*
X167406Y238600D01*
X167398Y238579D01*
X167394Y238478D01*
X167384Y238377D01*
X167389Y238356D01*
X167388Y238333D01*
X167416Y238236D01*
X167439Y238137D01*
X167450Y238118D01*
X167457Y238097D01*
X167514Y238014D01*
X167567Y237928D01*
X167584Y237913D01*
X167597Y237895D01*
X167678Y237835D01*
X167756Y237770D01*
X167781Y237758D01*
X167794Y237748D01*
X167825Y237738D01*
X167909Y237701D01*
X169683Y237124D01*
X171357Y236271D01*
X172878Y235166D01*
X174206Y233838D01*
X175311Y232317D01*
X176164Y230643D01*
X176745Y228856D01*
X176946Y227583D01*
X165862Y227583D01*
X165842Y227580D01*
X165823Y227582D01*
X165721Y227560D01*
X165619Y227543D01*
X165602Y227534D01*
X165582Y227530D01*
X165493Y227477D01*
X165402Y227428D01*
X165388Y227414D01*
X165371Y227404D01*
X165304Y227325D01*
X165233Y227250D01*
X165224Y227232D01*
X165211Y227217D01*
X165173Y227121D01*
X165129Y227027D01*
X165127Y227007D01*
X165119Y226989D01*
X165101Y226822D01*
X165101Y225298D01*
X165104Y225278D01*
X165102Y225259D01*
X165124Y225157D01*
X165141Y225055D01*
X165150Y225038D01*
X165154Y225018D01*
X165207Y224929D01*
X165256Y224838D01*
X165270Y224824D01*
X165280Y224807D01*
X165359Y224740D01*
X165434Y224669D01*
X165452Y224660D01*
X165467Y224647D01*
X165563Y224608D01*
X165657Y224565D01*
X165677Y224563D01*
X165695Y224555D01*
X165862Y224537D01*
X176946Y224537D01*
X176745Y223264D01*
X176164Y221477D01*
X175311Y219803D01*
X174206Y218282D01*
X172878Y216954D01*
X171357Y215849D01*
X169683Y214996D01*
X167909Y214419D01*
X167819Y214373D01*
X167726Y214332D01*
X167710Y214317D01*
X167690Y214307D01*
X167620Y214234D01*
X167545Y214165D01*
X167534Y214146D01*
X167519Y214130D01*
X167475Y214039D01*
X167426Y213950D01*
X167422Y213928D01*
X167413Y213908D01*
X167401Y213808D01*
X167383Y213708D01*
X167386Y213686D01*
X167383Y213664D01*
X167404Y213565D01*
X167418Y213465D01*
X167428Y213445D01*
X167433Y213423D01*
X167484Y213336D01*
X167530Y213245D01*
X167546Y213230D01*
X167557Y213211D01*
X167633Y213144D01*
X167705Y213073D01*
X167730Y213060D01*
X167742Y213049D01*
X167772Y213036D01*
X167852Y212992D01*
X172151Y211212D01*
X175652Y207711D01*
X177547Y203136D01*
X177547Y198882D01*
X177550Y198862D01*
X177548Y198843D01*
X177570Y198741D01*
X177586Y198639D01*
X177596Y198622D01*
X177600Y198602D01*
X177653Y198513D01*
X177702Y198422D01*
X177716Y198408D01*
X177726Y198391D01*
X177805Y198324D01*
X177880Y198252D01*
X177898Y198244D01*
X177913Y198231D01*
X178009Y198192D01*
X178103Y198149D01*
X178123Y198147D01*
X178141Y198139D01*
X178308Y198121D01*
X189014Y198121D01*
X189128Y198140D01*
X189245Y198157D01*
X189250Y198159D01*
X189257Y198160D01*
X189360Y198215D01*
X189464Y198268D01*
X189468Y198273D01*
X189474Y198276D01*
X189554Y198360D01*
X189636Y198444D01*
X189640Y198450D01*
X189643Y198454D01*
X189651Y198471D01*
X189658Y198483D01*
X192398Y201223D01*
X195946Y202693D01*
X212994Y202693D01*
X216542Y201223D01*
X219257Y198508D01*
X220727Y194960D01*
X220727Y191120D01*
X219257Y187572D01*
X216542Y184857D01*
X212994Y183387D01*
X195946Y183387D01*
X192398Y184857D01*
X189640Y187615D01*
X189596Y187689D01*
X189591Y187693D01*
X189588Y187698D01*
X189497Y187773D01*
X189409Y187849D01*
X189403Y187851D01*
X189398Y187855D01*
X189289Y187897D01*
X189181Y187941D01*
X189173Y187942D01*
X189169Y187943D01*
X189150Y187944D01*
X189014Y187959D01*
X178220Y187959D01*
X178129Y187945D01*
X178039Y187937D01*
X178009Y187925D01*
X177977Y187920D01*
X177896Y187877D01*
X177812Y187841D01*
X177780Y187815D01*
X177759Y187804D01*
X177737Y187781D01*
X177681Y187736D01*
X172570Y182625D01*
X157630Y182625D01*
X152519Y187736D01*
X152445Y187789D01*
X152375Y187849D01*
X152345Y187861D01*
X152319Y187880D01*
X152232Y187907D01*
X152147Y187941D01*
X152106Y187945D01*
X152084Y187952D01*
X152052Y187951D01*
X151980Y187959D01*
X68072Y187959D01*
X68052Y187956D01*
X68033Y187958D01*
X67931Y187936D01*
X67829Y187920D01*
X67812Y187910D01*
X67792Y187906D01*
X67703Y187853D01*
X67612Y187804D01*
X67598Y187790D01*
X67581Y187780D01*
X67514Y187701D01*
X67442Y187626D01*
X67434Y187608D01*
X67421Y187593D01*
X67382Y187497D01*
X67339Y187403D01*
X67337Y187383D01*
X67329Y187365D01*
X67311Y187198D01*
X67311Y179066D01*
X67325Y178976D01*
X67333Y178885D01*
X67345Y178855D01*
X67350Y178823D01*
X67393Y178742D01*
X67429Y178658D01*
X67455Y178626D01*
X67466Y178605D01*
X67489Y178583D01*
X67534Y178527D01*
X71883Y174178D01*
X71883Y168028D01*
X71897Y167938D01*
X71905Y167847D01*
X71917Y167817D01*
X71922Y167785D01*
X71965Y167704D01*
X72001Y167621D01*
X72027Y167588D01*
X72038Y167568D01*
X72061Y167546D01*
X72106Y167490D01*
X74931Y164665D01*
X74931Y116016D01*
X74950Y115902D01*
X74967Y115785D01*
X74969Y115780D01*
X74970Y115774D01*
X75025Y115671D01*
X75078Y115566D01*
X75083Y115562D01*
X75086Y115556D01*
X75170Y115476D01*
X75254Y115394D01*
X75260Y115390D01*
X75264Y115387D01*
X75281Y115379D01*
X75401Y115313D01*
X76901Y114692D01*
X79980Y111613D01*
X80038Y111571D01*
X80090Y111521D01*
X80137Y111499D01*
X80179Y111469D01*
X80248Y111448D01*
X80313Y111418D01*
X80365Y111412D01*
X80415Y111397D01*
X80486Y111399D01*
X80557Y111391D01*
X80608Y111402D01*
X80660Y111403D01*
X80728Y111428D01*
X80798Y111443D01*
X80843Y111470D01*
X80891Y111488D01*
X80947Y111532D01*
X81009Y111569D01*
X81043Y111609D01*
X81083Y111641D01*
X81122Y111702D01*
X81169Y111756D01*
X81188Y111804D01*
X81216Y111848D01*
X81234Y111918D01*
X81261Y111984D01*
X81269Y112056D01*
X81277Y112087D01*
X81275Y112110D01*
X81279Y112151D01*
X81279Y161294D01*
X81265Y161384D01*
X81257Y161475D01*
X81245Y161505D01*
X81240Y161537D01*
X81197Y161618D01*
X81161Y161702D01*
X81135Y161734D01*
X81124Y161755D01*
X81101Y161777D01*
X81056Y161833D01*
X76707Y166182D01*
X76707Y174178D01*
X82362Y179833D01*
X90358Y179833D01*
X96013Y174178D01*
X96013Y166182D01*
X91664Y161833D01*
X91611Y161759D01*
X91551Y161689D01*
X91539Y161659D01*
X91520Y161633D01*
X91493Y161546D01*
X91459Y161461D01*
X91455Y161420D01*
X91448Y161398D01*
X91449Y161366D01*
X91441Y161294D01*
X91441Y99190D01*
X91443Y99177D01*
X91441Y99156D01*
X91531Y97138D01*
X91506Y97099D01*
X91487Y97027D01*
X91470Y96985D01*
X90045Y95559D01*
X90037Y95549D01*
X90021Y95535D01*
X41602Y42612D01*
X41562Y42550D01*
X41513Y42493D01*
X41495Y42447D01*
X41468Y42406D01*
X41449Y42334D01*
X41421Y42265D01*
X41414Y42198D01*
X41406Y42168D01*
X41408Y42143D01*
X41403Y42098D01*
X41403Y35372D01*
X35748Y29717D01*
X27752Y29717D01*
X22097Y35372D01*
X22097Y43368D01*
X27752Y49023D01*
X33360Y49023D01*
X33466Y49040D01*
X33573Y49053D01*
X33587Y49060D01*
X33602Y49062D01*
X33698Y49113D01*
X33795Y49160D01*
X33809Y49172D01*
X33820Y49178D01*
X33840Y49199D01*
X33921Y49270D01*
X71567Y90418D01*
X71597Y90464D01*
X71635Y90504D01*
X71664Y90566D01*
X71702Y90624D01*
X71716Y90677D01*
X71739Y90727D01*
X71746Y90795D01*
X71764Y90862D01*
X71760Y90917D01*
X71766Y90971D01*
X71751Y91039D01*
X71746Y91107D01*
X71725Y91158D01*
X71714Y91212D01*
X71678Y91271D01*
X71652Y91335D01*
X71616Y91376D01*
X71588Y91423D01*
X71535Y91468D01*
X71490Y91520D01*
X71442Y91547D01*
X71401Y91583D01*
X71337Y91609D01*
X71277Y91643D01*
X71223Y91654D01*
X71172Y91675D01*
X71065Y91687D01*
X71036Y91693D01*
X71024Y91691D01*
X71006Y91693D01*
X67374Y91693D01*
X62799Y93588D01*
X59298Y97089D01*
X57403Y101664D01*
X57403Y106616D01*
X59298Y111191D01*
X62799Y114692D01*
X64299Y115313D01*
X64399Y115375D01*
X64499Y115435D01*
X64503Y115439D01*
X64508Y115443D01*
X64583Y115533D01*
X64659Y115622D01*
X64661Y115627D01*
X64665Y115632D01*
X64707Y115741D01*
X64751Y115850D01*
X64752Y115857D01*
X64753Y115862D01*
X64754Y115880D01*
X64769Y116016D01*
X64769Y159766D01*
X64766Y159786D01*
X64768Y159805D01*
X64746Y159907D01*
X64730Y160009D01*
X64720Y160026D01*
X64716Y160046D01*
X64663Y160135D01*
X64614Y160226D01*
X64600Y160240D01*
X64590Y160257D01*
X64511Y160324D01*
X64436Y160396D01*
X64418Y160404D01*
X64403Y160417D01*
X64307Y160456D01*
X64213Y160499D01*
X64193Y160501D01*
X64175Y160509D01*
X64008Y160527D01*
X58232Y160527D01*
X52577Y166182D01*
X52577Y174178D01*
X56926Y178527D01*
X56979Y178601D01*
X57039Y178671D01*
X57051Y178701D01*
X57070Y178727D01*
X57097Y178814D01*
X57131Y178899D01*
X57135Y178940D01*
X57142Y178962D01*
X57141Y178994D01*
X57149Y179066D01*
X57149Y189350D01*
X57135Y189440D01*
X57127Y189531D01*
X57115Y189561D01*
X57110Y189593D01*
X57067Y189674D01*
X57031Y189757D01*
X57005Y189790D01*
X56994Y189810D01*
X56971Y189832D01*
X56926Y189888D01*
X25525Y221290D01*
X25446Y221347D01*
X25371Y221409D01*
X25346Y221418D01*
X25325Y221433D01*
X25232Y221462D01*
X25141Y221497D01*
X25115Y221498D01*
X25090Y221506D01*
X24993Y221503D01*
X24895Y221507D01*
X24870Y221500D01*
X24844Y221499D01*
X24753Y221466D01*
X24659Y221439D01*
X24638Y221424D01*
X24613Y221415D01*
X24537Y221354D01*
X24457Y221299D01*
X24442Y221278D01*
X24421Y221261D01*
X24368Y221179D01*
X24310Y221101D01*
X24302Y221076D01*
X24288Y221054D01*
X24264Y220960D01*
X24234Y220867D01*
X24234Y220841D01*
X24228Y220816D01*
X24236Y220719D01*
X24237Y220621D01*
X24246Y220590D01*
X24247Y220571D01*
X24260Y220540D01*
X24283Y220460D01*
X25147Y218376D01*
X25147Y213424D01*
X24525Y211924D01*
X24512Y211868D01*
X24497Y211836D01*
X24491Y211781D01*
X24470Y211697D01*
X24471Y211691D01*
X24469Y211685D01*
X24475Y211629D01*
X24470Y211592D01*
X24483Y211534D01*
X24489Y211452D01*
X24492Y211446D01*
X24492Y211440D01*
X24514Y211392D01*
X24523Y211351D01*
X24556Y211296D01*
X24586Y211226D01*
X24590Y211220D01*
X24592Y211215D01*
X24605Y211201D01*
X24633Y211166D01*
X24649Y211140D01*
X24665Y211126D01*
X24690Y211095D01*
X39982Y195804D01*
X43181Y192605D01*
X43181Y132842D01*
X43184Y132822D01*
X43182Y132803D01*
X43204Y132701D01*
X43220Y132599D01*
X43230Y132582D01*
X43234Y132562D01*
X43287Y132473D01*
X43336Y132382D01*
X43350Y132368D01*
X43360Y132351D01*
X43439Y132284D01*
X43514Y132212D01*
X43532Y132204D01*
X43547Y132191D01*
X43643Y132152D01*
X43737Y132109D01*
X43757Y132107D01*
X43775Y132099D01*
X43942Y132081D01*
X46624Y132081D01*
X46714Y132095D01*
X46805Y132103D01*
X46835Y132115D01*
X46866Y132120D01*
X46947Y132163D01*
X47031Y132199D01*
X47063Y132225D01*
X47084Y132236D01*
X47106Y132259D01*
X47162Y132304D01*
X48181Y133323D01*
X53419Y133323D01*
X57123Y129619D01*
X57123Y124381D01*
X53419Y120677D01*
X48181Y120677D01*
X47162Y121696D01*
X47088Y121749D01*
X47019Y121809D01*
X46988Y121821D01*
X46962Y121840D01*
X46875Y121867D01*
X46790Y121901D01*
X46750Y121905D01*
X46727Y121912D01*
X46695Y121911D01*
X46624Y121919D01*
X43942Y121919D01*
X43922Y121916D01*
X43903Y121918D01*
X43801Y121896D01*
X43699Y121880D01*
X43682Y121870D01*
X43662Y121866D01*
X43573Y121813D01*
X43482Y121764D01*
X43468Y121750D01*
X43451Y121740D01*
X43384Y121661D01*
X43312Y121586D01*
X43304Y121568D01*
X43291Y121553D01*
X43252Y121457D01*
X43209Y121363D01*
X43207Y121343D01*
X43199Y121325D01*
X43181Y121158D01*
X43181Y105776D01*
X43195Y105686D01*
X43203Y105595D01*
X43215Y105565D01*
X43220Y105534D01*
X43263Y105453D01*
X43299Y105369D01*
X43325Y105337D01*
X43336Y105316D01*
X43359Y105294D01*
X43404Y105238D01*
X44423Y104219D01*
X44423Y98981D01*
X40719Y95277D01*
X35481Y95277D01*
X31777Y98981D01*
X31777Y99870D01*
X31777Y99874D01*
X31777Y99878D01*
X31757Y99996D01*
X31738Y100112D01*
X31736Y100116D01*
X31735Y100120D01*
X31678Y100225D01*
X31622Y100330D01*
X31620Y100333D01*
X31618Y100336D01*
X31530Y100417D01*
X31444Y100499D01*
X31440Y100501D01*
X31438Y100504D01*
X31329Y100553D01*
X31221Y100603D01*
X31217Y100603D01*
X31213Y100605D01*
X31094Y100617D01*
X30977Y100630D01*
X30973Y100629D01*
X30969Y100629D01*
X30853Y100603D01*
X30736Y100578D01*
X30733Y100576D01*
X30729Y100575D01*
X30629Y100513D01*
X30525Y100451D01*
X30522Y100448D01*
X30519Y100446D01*
X30443Y100356D01*
X30365Y100265D01*
X30364Y100261D01*
X30361Y100258D01*
X30292Y100105D01*
X30114Y99557D01*
X29261Y97883D01*
X28156Y96362D01*
X26828Y95034D01*
X25307Y93929D01*
X23633Y93076D01*
X21846Y92495D01*
X20573Y92294D01*
X20573Y103378D01*
X20570Y103398D01*
X20572Y103417D01*
X20550Y103519D01*
X20533Y103621D01*
X20524Y103638D01*
X20520Y103658D01*
X20467Y103747D01*
X20418Y103838D01*
X20404Y103852D01*
X20394Y103869D01*
X20315Y103936D01*
X20240Y104007D01*
X20222Y104016D01*
X20207Y104029D01*
X20111Y104067D01*
X20017Y104111D01*
X19997Y104113D01*
X19979Y104121D01*
X19812Y104139D01*
X19049Y104139D01*
X19049Y104141D01*
X19812Y104141D01*
X19832Y104144D01*
X19851Y104142D01*
X19953Y104164D01*
X20055Y104181D01*
X20072Y104190D01*
X20092Y104194D01*
X20181Y104247D01*
X20272Y104296D01*
X20286Y104310D01*
X20303Y104320D01*
X20370Y104399D01*
X20441Y104474D01*
X20450Y104492D01*
X20463Y104507D01*
X20502Y104603D01*
X20545Y104697D01*
X20547Y104717D01*
X20555Y104735D01*
X20573Y104902D01*
X20573Y115986D01*
X21846Y115785D01*
X23633Y115204D01*
X25307Y114351D01*
X26828Y113246D01*
X28156Y111918D01*
X29261Y110397D01*
X30114Y108723D01*
X30695Y106936D01*
X30981Y105132D01*
X30984Y105120D01*
X30985Y105108D01*
X31023Y105004D01*
X31058Y104898D01*
X31065Y104888D01*
X31069Y104877D01*
X31138Y104791D01*
X31205Y104701D01*
X31215Y104694D01*
X31223Y104685D01*
X31316Y104625D01*
X31408Y104562D01*
X31420Y104559D01*
X31430Y104552D01*
X31538Y104525D01*
X31645Y104494D01*
X31657Y104495D01*
X31668Y104492D01*
X31779Y104501D01*
X31890Y104506D01*
X31901Y104510D01*
X31913Y104511D01*
X32016Y104555D01*
X32120Y104595D01*
X32129Y104603D01*
X32140Y104608D01*
X32271Y104712D01*
X32796Y105238D01*
X32850Y105312D01*
X32909Y105381D01*
X32921Y105411D01*
X32940Y105438D01*
X32967Y105525D01*
X33001Y105610D01*
X33005Y105651D01*
X33012Y105673D01*
X33011Y105705D01*
X33019Y105776D01*
X33019Y188080D01*
X33005Y188170D01*
X32997Y188261D01*
X32985Y188291D01*
X32980Y188323D01*
X32937Y188404D01*
X32901Y188487D01*
X32875Y188520D01*
X32864Y188540D01*
X32841Y188562D01*
X32796Y188618D01*
X25525Y195890D01*
X25446Y195947D01*
X25371Y196009D01*
X25346Y196018D01*
X25325Y196033D01*
X25232Y196062D01*
X25141Y196097D01*
X25115Y196098D01*
X25090Y196106D01*
X24993Y196103D01*
X24895Y196107D01*
X24870Y196100D01*
X24844Y196099D01*
X24753Y196066D01*
X24659Y196039D01*
X24638Y196024D01*
X24613Y196015D01*
X24537Y195954D01*
X24457Y195899D01*
X24442Y195878D01*
X24421Y195861D01*
X24369Y195779D01*
X24310Y195701D01*
X24302Y195676D01*
X24288Y195654D01*
X24264Y195560D01*
X24234Y195467D01*
X24234Y195441D01*
X24228Y195416D01*
X24236Y195319D01*
X24237Y195221D01*
X24246Y195190D01*
X24247Y195171D01*
X24260Y195140D01*
X24283Y195060D01*
X25147Y192976D01*
X25147Y188024D01*
X23252Y183449D01*
X19751Y179948D01*
X15452Y178168D01*
X15366Y178114D01*
X15277Y178066D01*
X15262Y178050D01*
X15243Y178038D01*
X15179Y177960D01*
X15110Y177886D01*
X15101Y177866D01*
X15087Y177849D01*
X15050Y177754D01*
X15009Y177662D01*
X15006Y177640D01*
X14998Y177619D01*
X14994Y177518D01*
X14984Y177417D01*
X14989Y177396D01*
X14988Y177373D01*
X15016Y177276D01*
X15039Y177177D01*
X15050Y177158D01*
X15057Y177137D01*
X15114Y177054D01*
X15167Y176968D01*
X15184Y176953D01*
X15197Y176935D01*
X15278Y176875D01*
X15356Y176810D01*
X15381Y176798D01*
X15394Y176788D01*
X15425Y176778D01*
X15509Y176741D01*
X17283Y176164D01*
X18957Y175311D01*
X20478Y174206D01*
X21806Y172878D01*
X22911Y171357D01*
X23764Y169683D01*
X24345Y167896D01*
X24546Y166623D01*
X13462Y166623D01*
X13442Y166620D01*
X13423Y166622D01*
X13321Y166600D01*
X13219Y166583D01*
X13202Y166574D01*
X13182Y166570D01*
X13093Y166517D01*
X13002Y166468D01*
X12988Y166454D01*
X12971Y166444D01*
X12904Y166365D01*
X12833Y166290D01*
X12824Y166272D01*
X12811Y166257D01*
X12773Y166161D01*
X12729Y166067D01*
X12727Y166047D01*
X12719Y166029D01*
X12701Y165862D01*
X12701Y165099D01*
X11938Y165099D01*
X11918Y165096D01*
X11899Y165098D01*
X11797Y165076D01*
X11695Y165059D01*
X11678Y165050D01*
X11658Y165046D01*
X11569Y164993D01*
X11478Y164944D01*
X11464Y164930D01*
X11447Y164920D01*
X11380Y164841D01*
X11309Y164766D01*
X11300Y164748D01*
X11287Y164733D01*
X11248Y164637D01*
X11205Y164543D01*
X11203Y164523D01*
X11195Y164505D01*
X11177Y164338D01*
X11177Y153254D01*
X9904Y153455D01*
X8117Y154036D01*
X6443Y154889D01*
X4922Y155994D01*
X4348Y156568D01*
X4290Y156610D01*
X4238Y156659D01*
X4191Y156681D01*
X4149Y156711D01*
X4080Y156732D01*
X4015Y156763D01*
X3963Y156768D01*
X3913Y156784D01*
X3842Y156782D01*
X3771Y156790D01*
X3720Y156779D01*
X3668Y156777D01*
X3600Y156753D01*
X3530Y156738D01*
X3485Y156711D01*
X3437Y156693D01*
X3381Y156648D01*
X3319Y156611D01*
X3285Y156572D01*
X3245Y156539D01*
X3206Y156479D01*
X3159Y156424D01*
X3140Y156376D01*
X3112Y156332D01*
X3094Y156263D01*
X3067Y156196D01*
X3059Y156125D01*
X3051Y156094D01*
X3053Y156070D01*
X3049Y156030D01*
X3049Y3810D01*
X3052Y3790D01*
X3050Y3771D01*
X3072Y3669D01*
X3088Y3567D01*
X3098Y3550D01*
X3102Y3530D01*
X3155Y3441D01*
X3204Y3350D01*
X3218Y3336D01*
X3228Y3319D01*
X3307Y3252D01*
X3382Y3180D01*
X3400Y3172D01*
X3415Y3159D01*
X3511Y3120D01*
X3605Y3077D01*
X3625Y3075D01*
X3643Y3067D01*
X3810Y3049D01*
X27182Y3049D01*
X27253Y3060D01*
G37*
%LPC*%
G36*
X409373Y35371D02*
X409373Y35371D01*
X405848Y36831D01*
X403151Y39528D01*
X401691Y43053D01*
X401691Y46867D01*
X403151Y50392D01*
X405181Y52422D01*
X405193Y52438D01*
X405208Y52450D01*
X405264Y52538D01*
X405325Y52621D01*
X405331Y52640D01*
X405341Y52657D01*
X405367Y52758D01*
X405397Y52857D01*
X405397Y52876D01*
X405401Y52896D01*
X405393Y52999D01*
X405391Y53102D01*
X405384Y53121D01*
X405382Y53141D01*
X405342Y53236D01*
X405306Y53333D01*
X405294Y53349D01*
X405286Y53367D01*
X405181Y53498D01*
X403151Y55528D01*
X401691Y59053D01*
X401691Y62867D01*
X403151Y66392D01*
X405540Y68781D01*
X405552Y68797D01*
X405568Y68810D01*
X405624Y68897D01*
X405684Y68981D01*
X405690Y69000D01*
X405701Y69016D01*
X405726Y69117D01*
X405756Y69216D01*
X405756Y69236D01*
X405761Y69255D01*
X405753Y69358D01*
X405750Y69462D01*
X405743Y69480D01*
X405742Y69500D01*
X405701Y69595D01*
X405666Y69693D01*
X405653Y69708D01*
X405645Y69727D01*
X405540Y69857D01*
X404227Y71171D01*
X403233Y72659D01*
X402548Y74311D01*
X402324Y75437D01*
X410518Y75437D01*
X410538Y75440D01*
X410557Y75438D01*
X410659Y75460D01*
X410761Y75477D01*
X410778Y75486D01*
X410798Y75490D01*
X410887Y75543D01*
X410978Y75592D01*
X410992Y75606D01*
X411009Y75616D01*
X411076Y75695D01*
X411147Y75770D01*
X411156Y75788D01*
X411169Y75803D01*
X411207Y75899D01*
X411251Y75993D01*
X411253Y76013D01*
X411261Y76031D01*
X411279Y76198D01*
X411279Y76961D01*
X412042Y76961D01*
X412062Y76964D01*
X412081Y76962D01*
X412183Y76984D01*
X412285Y77001D01*
X412302Y77010D01*
X412322Y77014D01*
X412411Y77067D01*
X412502Y77116D01*
X412516Y77130D01*
X412533Y77140D01*
X412600Y77219D01*
X412671Y77294D01*
X412680Y77312D01*
X412693Y77327D01*
X412732Y77423D01*
X412775Y77517D01*
X412777Y77537D01*
X412785Y77555D01*
X412803Y77722D01*
X412803Y85916D01*
X413929Y85692D01*
X415581Y85007D01*
X417069Y84013D01*
X418333Y82749D01*
X419327Y81261D01*
X420012Y79609D01*
X420129Y79018D01*
X420154Y78953D01*
X420166Y78894D01*
X420179Y78873D01*
X420189Y78839D01*
X420205Y78815D01*
X420215Y78788D01*
X420269Y78722D01*
X420293Y78683D01*
X420304Y78673D01*
X420329Y78637D01*
X420352Y78620D01*
X420371Y78597D01*
X420451Y78547D01*
X420457Y78542D01*
X420480Y78523D01*
X420487Y78520D01*
X420526Y78491D01*
X420554Y78482D01*
X420579Y78466D01*
X420670Y78444D01*
X420700Y78434D01*
X420708Y78431D01*
X420711Y78431D01*
X420760Y78414D01*
X420789Y78415D01*
X420818Y78408D01*
X420873Y78413D01*
X420874Y78412D01*
X420892Y78412D01*
X420914Y78416D01*
X421006Y78417D01*
X421041Y78427D01*
X421063Y78429D01*
X421093Y78442D01*
X421119Y78450D01*
X421135Y78452D01*
X421144Y78457D01*
X421167Y78464D01*
X421373Y78549D01*
X425187Y78549D01*
X425667Y78350D01*
X425711Y78340D01*
X425753Y78320D01*
X425830Y78312D01*
X425906Y78294D01*
X425952Y78298D01*
X425997Y78293D01*
X426074Y78310D01*
X426151Y78317D01*
X426193Y78336D01*
X426238Y78345D01*
X426305Y78385D01*
X426376Y78417D01*
X426410Y78448D01*
X426449Y78472D01*
X426500Y78531D01*
X426557Y78583D01*
X426579Y78624D01*
X426609Y78659D01*
X426638Y78731D01*
X426675Y78799D01*
X426684Y78844D01*
X426701Y78887D01*
X426716Y79023D01*
X426719Y79041D01*
X426718Y79046D01*
X426719Y79053D01*
X426719Y249824D01*
X426705Y249914D01*
X426697Y250005D01*
X426685Y250035D01*
X426680Y250066D01*
X426637Y250147D01*
X426601Y250231D01*
X426575Y250263D01*
X426564Y250284D01*
X426541Y250306D01*
X426496Y250362D01*
X425477Y251381D01*
X425477Y256619D01*
X429181Y260323D01*
X434419Y260323D01*
X438123Y256619D01*
X438123Y251381D01*
X437104Y250362D01*
X437051Y250288D01*
X436991Y250219D01*
X436979Y250188D01*
X436960Y250162D01*
X436933Y250075D01*
X436899Y249990D01*
X436895Y249950D01*
X436888Y249927D01*
X436889Y249895D01*
X436881Y249824D01*
X436881Y77138D01*
X436895Y77048D01*
X436903Y76957D01*
X436915Y76927D01*
X436920Y76895D01*
X436963Y76814D01*
X436999Y76730D01*
X437025Y76698D01*
X437036Y76678D01*
X437059Y76655D01*
X437104Y76599D01*
X438457Y75246D01*
X438457Y60951D01*
X433083Y55578D01*
X433015Y55483D01*
X432945Y55389D01*
X432943Y55383D01*
X432940Y55378D01*
X432905Y55266D01*
X432869Y55155D01*
X432869Y55149D01*
X432867Y55143D01*
X432870Y55031D01*
X432869Y55019D01*
X432869Y51053D01*
X431409Y47528D01*
X428712Y44831D01*
X425187Y43371D01*
X421509Y43371D01*
X421395Y43352D01*
X421278Y43335D01*
X421273Y43333D01*
X421267Y43332D01*
X421164Y43277D01*
X421059Y43224D01*
X421055Y43219D01*
X421049Y43216D01*
X420969Y43132D01*
X420887Y43048D01*
X420883Y43042D01*
X420880Y43038D01*
X420872Y43021D01*
X420806Y42901D01*
X419409Y39528D01*
X416712Y36831D01*
X413187Y35371D01*
X409373Y35371D01*
G37*
%LPD*%
%LPC*%
G36*
X365681Y57177D02*
X365681Y57177D01*
X361977Y60881D01*
X361977Y66119D01*
X365681Y69823D01*
X367122Y69823D01*
X367212Y69837D01*
X367303Y69845D01*
X367333Y69857D01*
X367365Y69862D01*
X367446Y69905D01*
X367529Y69941D01*
X367562Y69967D01*
X367582Y69978D01*
X367604Y70001D01*
X367660Y70046D01*
X404906Y107292D01*
X404959Y107365D01*
X405019Y107435D01*
X405031Y107465D01*
X405050Y107491D01*
X405077Y107578D01*
X405111Y107663D01*
X405115Y107704D01*
X405122Y107726D01*
X405121Y107759D01*
X405129Y107830D01*
X405129Y248554D01*
X405115Y248644D01*
X405107Y248735D01*
X405095Y248765D01*
X405090Y248796D01*
X405047Y248877D01*
X405011Y248961D01*
X404985Y248993D01*
X404974Y249014D01*
X404951Y249036D01*
X404906Y249092D01*
X403887Y250111D01*
X403887Y255349D01*
X407591Y259053D01*
X412829Y259053D01*
X416533Y255349D01*
X416533Y250111D01*
X415514Y249092D01*
X415461Y249018D01*
X415401Y248949D01*
X415389Y248918D01*
X415370Y248892D01*
X415343Y248805D01*
X415309Y248720D01*
X415305Y248680D01*
X415298Y248657D01*
X415299Y248625D01*
X415291Y248554D01*
X415291Y103305D01*
X374846Y62860D01*
X374793Y62787D01*
X374733Y62717D01*
X374721Y62687D01*
X374702Y62661D01*
X374675Y62574D01*
X374641Y62489D01*
X374637Y62448D01*
X374630Y62426D01*
X374631Y62393D01*
X374623Y62322D01*
X374623Y60881D01*
X370919Y57177D01*
X365681Y57177D01*
G37*
%LPD*%
%LPC*%
G36*
X72202Y28447D02*
X72202Y28447D01*
X66547Y34102D01*
X66547Y42098D01*
X72202Y47753D01*
X78352Y47753D01*
X78442Y47767D01*
X78533Y47775D01*
X78563Y47787D01*
X78595Y47792D01*
X78676Y47835D01*
X78759Y47871D01*
X78792Y47897D01*
X78812Y47908D01*
X78834Y47931D01*
X78890Y47976D01*
X107726Y76812D01*
X107779Y76885D01*
X107839Y76955D01*
X107851Y76985D01*
X107870Y77011D01*
X107897Y77098D01*
X107931Y77183D01*
X107935Y77224D01*
X107942Y77246D01*
X107941Y77279D01*
X107949Y77350D01*
X107949Y158754D01*
X107935Y158845D01*
X107927Y158935D01*
X107915Y158965D01*
X107910Y158997D01*
X107867Y159078D01*
X107831Y159162D01*
X107805Y159194D01*
X107794Y159215D01*
X107771Y159237D01*
X107726Y159293D01*
X103377Y163642D01*
X103377Y171638D01*
X109032Y177293D01*
X117028Y177293D01*
X122683Y171638D01*
X122683Y163642D01*
X118334Y159293D01*
X118281Y159219D01*
X118221Y159149D01*
X118209Y159119D01*
X118190Y159093D01*
X118163Y159006D01*
X118129Y158921D01*
X118125Y158880D01*
X118118Y158858D01*
X118119Y158826D01*
X118111Y158754D01*
X118111Y72825D01*
X86076Y40790D01*
X86023Y40717D01*
X85963Y40647D01*
X85951Y40617D01*
X85932Y40591D01*
X85905Y40504D01*
X85871Y40419D01*
X85867Y40378D01*
X85860Y40356D01*
X85861Y40323D01*
X85853Y40252D01*
X85853Y34102D01*
X80198Y28447D01*
X72202Y28447D01*
G37*
%LPD*%
%LPC*%
G36*
X307144Y12271D02*
X307144Y12271D01*
X303252Y13883D01*
X300273Y16862D01*
X298661Y20754D01*
X298661Y24966D01*
X300273Y28858D01*
X303252Y31837D01*
X307144Y33449D01*
X311356Y33449D01*
X315248Y31837D01*
X318227Y28858D01*
X319088Y26779D01*
X319126Y26718D01*
X319155Y26652D01*
X319190Y26614D01*
X319218Y26570D01*
X319273Y26524D01*
X319321Y26471D01*
X319367Y26446D01*
X319407Y26413D01*
X319474Y26387D01*
X319537Y26353D01*
X319588Y26343D01*
X319637Y26325D01*
X319708Y26322D01*
X319779Y26309D01*
X319830Y26317D01*
X319882Y26314D01*
X319951Y26334D01*
X320022Y26345D01*
X320069Y26368D01*
X320119Y26383D01*
X320177Y26424D01*
X320241Y26456D01*
X320278Y26494D01*
X320321Y26523D01*
X320363Y26581D01*
X320414Y26632D01*
X320448Y26695D01*
X320467Y26721D01*
X320475Y26743D01*
X320495Y26779D01*
X321121Y28292D01*
X323818Y30989D01*
X327343Y32449D01*
X331157Y32449D01*
X334682Y30989D01*
X337379Y28292D01*
X338547Y25472D01*
X338584Y25411D01*
X338614Y25346D01*
X338649Y25308D01*
X338676Y25263D01*
X338731Y25218D01*
X338780Y25165D01*
X338826Y25140D01*
X338866Y25106D01*
X338933Y25081D01*
X338996Y25046D01*
X339047Y25037D01*
X339095Y25018D01*
X339167Y25015D01*
X339238Y25003D01*
X339289Y25010D01*
X339341Y25008D01*
X339410Y25028D01*
X339481Y25038D01*
X339527Y25062D01*
X339577Y25076D01*
X339636Y25117D01*
X339700Y25150D01*
X339737Y25187D01*
X339779Y25217D01*
X339822Y25274D01*
X339872Y25325D01*
X339907Y25388D01*
X339926Y25414D01*
X339933Y25436D01*
X339953Y25472D01*
X341121Y28292D01*
X343818Y30989D01*
X347343Y32449D01*
X351157Y32449D01*
X354682Y30989D01*
X357379Y28292D01*
X358547Y25472D01*
X358584Y25411D01*
X358614Y25346D01*
X358649Y25308D01*
X358676Y25263D01*
X358731Y25218D01*
X358780Y25165D01*
X358826Y25140D01*
X358866Y25106D01*
X358933Y25081D01*
X358996Y25046D01*
X359047Y25037D01*
X359095Y25018D01*
X359167Y25015D01*
X359238Y25003D01*
X359289Y25010D01*
X359341Y25008D01*
X359410Y25028D01*
X359481Y25038D01*
X359527Y25062D01*
X359577Y25076D01*
X359636Y25117D01*
X359700Y25150D01*
X359737Y25187D01*
X359779Y25217D01*
X359822Y25274D01*
X359872Y25325D01*
X359907Y25388D01*
X359926Y25414D01*
X359933Y25436D01*
X359953Y25472D01*
X361121Y28292D01*
X363818Y30989D01*
X367343Y32449D01*
X371157Y32449D01*
X374682Y30989D01*
X377379Y28292D01*
X378005Y26779D01*
X378043Y26718D01*
X378072Y26652D01*
X378108Y26614D01*
X378135Y26570D01*
X378190Y26524D01*
X378239Y26471D01*
X378284Y26446D01*
X378325Y26413D01*
X378391Y26387D01*
X378454Y26353D01*
X378506Y26344D01*
X378554Y26325D01*
X378626Y26322D01*
X378696Y26309D01*
X378748Y26317D01*
X378800Y26314D01*
X378869Y26334D01*
X378940Y26345D01*
X378986Y26368D01*
X379036Y26383D01*
X379095Y26424D01*
X379159Y26456D01*
X379195Y26494D01*
X379238Y26523D01*
X379281Y26581D01*
X379331Y26632D01*
X379366Y26695D01*
X379385Y26721D01*
X379392Y26743D01*
X379412Y26779D01*
X380273Y28858D01*
X383252Y31837D01*
X387144Y33449D01*
X391356Y33449D01*
X395248Y31837D01*
X398227Y28858D01*
X399839Y24966D01*
X399839Y20754D01*
X398227Y16862D01*
X395248Y13883D01*
X391356Y12271D01*
X387144Y12271D01*
X383252Y13883D01*
X380273Y16862D01*
X379412Y18941D01*
X379374Y19002D01*
X379345Y19068D01*
X379310Y19106D01*
X379282Y19150D01*
X379227Y19196D01*
X379179Y19249D01*
X379133Y19274D01*
X379093Y19307D01*
X379026Y19333D01*
X378963Y19367D01*
X378912Y19377D01*
X378863Y19395D01*
X378792Y19398D01*
X378721Y19411D01*
X378670Y19403D01*
X378618Y19406D01*
X378549Y19386D01*
X378478Y19375D01*
X378431Y19352D01*
X378381Y19337D01*
X378323Y19296D01*
X378259Y19264D01*
X378222Y19226D01*
X378179Y19197D01*
X378137Y19139D01*
X378086Y19088D01*
X378052Y19025D01*
X378033Y18999D01*
X378025Y18977D01*
X378005Y18941D01*
X377379Y17428D01*
X374682Y14731D01*
X371157Y13271D01*
X367343Y13271D01*
X363818Y14731D01*
X361121Y17428D01*
X359953Y20248D01*
X359915Y20309D01*
X359886Y20374D01*
X359851Y20412D01*
X359824Y20457D01*
X359768Y20502D01*
X359720Y20555D01*
X359674Y20580D01*
X359634Y20614D01*
X359567Y20639D01*
X359504Y20674D01*
X359453Y20683D01*
X359405Y20702D01*
X359333Y20705D01*
X359262Y20717D01*
X359211Y20710D01*
X359159Y20712D01*
X359090Y20692D01*
X359019Y20682D01*
X358973Y20658D01*
X358923Y20644D01*
X358864Y20603D01*
X358800Y20570D01*
X358763Y20533D01*
X358721Y20503D01*
X358678Y20446D01*
X358628Y20395D01*
X358593Y20332D01*
X358574Y20306D01*
X358567Y20284D01*
X358547Y20248D01*
X357379Y17428D01*
X354682Y14731D01*
X351157Y13271D01*
X347343Y13271D01*
X343818Y14731D01*
X341121Y17428D01*
X339953Y20248D01*
X339915Y20309D01*
X339886Y20374D01*
X339851Y20412D01*
X339824Y20457D01*
X339768Y20502D01*
X339720Y20555D01*
X339674Y20580D01*
X339634Y20614D01*
X339567Y20639D01*
X339504Y20674D01*
X339453Y20683D01*
X339405Y20702D01*
X339333Y20705D01*
X339262Y20717D01*
X339211Y20710D01*
X339159Y20712D01*
X339090Y20692D01*
X339019Y20682D01*
X338973Y20658D01*
X338923Y20644D01*
X338864Y20603D01*
X338800Y20570D01*
X338763Y20533D01*
X338721Y20503D01*
X338678Y20446D01*
X338628Y20395D01*
X338593Y20332D01*
X338574Y20306D01*
X338567Y20284D01*
X338547Y20248D01*
X337379Y17428D01*
X334682Y14731D01*
X331157Y13271D01*
X327343Y13271D01*
X323818Y14731D01*
X321121Y17428D01*
X320495Y18941D01*
X320457Y19002D01*
X320428Y19068D01*
X320392Y19106D01*
X320365Y19150D01*
X320310Y19196D01*
X320261Y19249D01*
X320216Y19274D01*
X320175Y19307D01*
X320109Y19333D01*
X320046Y19367D01*
X319994Y19376D01*
X319946Y19395D01*
X319874Y19398D01*
X319804Y19411D01*
X319752Y19403D01*
X319700Y19406D01*
X319631Y19386D01*
X319560Y19375D01*
X319514Y19352D01*
X319464Y19337D01*
X319405Y19296D01*
X319341Y19264D01*
X319305Y19226D01*
X319262Y19197D01*
X319219Y19139D01*
X319169Y19088D01*
X319134Y19025D01*
X319115Y18999D01*
X319108Y18977D01*
X319088Y18941D01*
X318227Y16862D01*
X315248Y13883D01*
X311356Y12271D01*
X307144Y12271D01*
G37*
%LPD*%
%LPC*%
G36*
X276672Y34797D02*
X276672Y34797D01*
X271017Y40452D01*
X271017Y48448D01*
X275366Y52797D01*
X275419Y52871D01*
X275479Y52941D01*
X275491Y52971D01*
X275510Y52997D01*
X275537Y53084D01*
X275571Y53169D01*
X275575Y53210D01*
X275582Y53232D01*
X275581Y53264D01*
X275589Y53336D01*
X275589Y106426D01*
X275586Y106446D01*
X275588Y106465D01*
X275566Y106567D01*
X275550Y106669D01*
X275540Y106686D01*
X275536Y106706D01*
X275483Y106795D01*
X275434Y106886D01*
X275420Y106900D01*
X275410Y106917D01*
X275331Y106984D01*
X275256Y107056D01*
X275238Y107064D01*
X275223Y107077D01*
X275127Y107116D01*
X275033Y107159D01*
X275013Y107161D01*
X274995Y107169D01*
X274828Y107187D01*
X272146Y107187D01*
X268598Y108657D01*
X265883Y111372D01*
X264413Y114920D01*
X264413Y118760D01*
X265883Y122308D01*
X268598Y125023D01*
X272146Y126493D01*
X289194Y126493D01*
X292742Y125023D01*
X295457Y122308D01*
X296927Y118760D01*
X296927Y114920D01*
X295457Y111372D01*
X292742Y108657D01*
X289194Y107187D01*
X286512Y107187D01*
X286492Y107184D01*
X286473Y107186D01*
X286371Y107164D01*
X286269Y107148D01*
X286252Y107138D01*
X286232Y107134D01*
X286143Y107081D01*
X286052Y107032D01*
X286038Y107018D01*
X286021Y107008D01*
X285954Y106929D01*
X285882Y106854D01*
X285874Y106836D01*
X285861Y106821D01*
X285822Y106725D01*
X285779Y106631D01*
X285777Y106611D01*
X285769Y106593D01*
X285751Y106426D01*
X285751Y53336D01*
X285765Y53245D01*
X285773Y53155D01*
X285785Y53125D01*
X285790Y53093D01*
X285833Y53012D01*
X285869Y52928D01*
X285895Y52896D01*
X285906Y52875D01*
X285929Y52853D01*
X285974Y52797D01*
X290323Y48448D01*
X290323Y40452D01*
X284668Y34797D01*
X276672Y34797D01*
G37*
%LPD*%
%LPC*%
G36*
X458839Y80161D02*
X458839Y80161D01*
X452481Y82795D01*
X447615Y87661D01*
X444981Y94019D01*
X444981Y100901D01*
X447615Y107259D01*
X452481Y112125D01*
X458839Y114759D01*
X465721Y114759D01*
X472079Y112125D01*
X476945Y107259D01*
X479579Y100901D01*
X479579Y94019D01*
X476945Y87661D01*
X472079Y82795D01*
X465721Y80161D01*
X458839Y80161D01*
G37*
%LPD*%
%LPC*%
G36*
X458839Y7161D02*
X458839Y7161D01*
X452481Y9795D01*
X447615Y14661D01*
X444981Y21019D01*
X444981Y27901D01*
X447615Y34259D01*
X452481Y39125D01*
X458839Y41759D01*
X465721Y41759D01*
X472079Y39125D01*
X476945Y34259D01*
X479579Y27901D01*
X479579Y21019D01*
X476945Y14661D01*
X472079Y9795D01*
X465721Y7161D01*
X458839Y7161D01*
G37*
%LPD*%
%LPC*%
G36*
X272146Y234187D02*
X272146Y234187D01*
X268598Y235657D01*
X265883Y238372D01*
X264413Y241920D01*
X264413Y245760D01*
X265883Y249308D01*
X268598Y252023D01*
X272146Y253493D01*
X289194Y253493D01*
X292742Y252023D01*
X295457Y249308D01*
X296927Y245760D01*
X296927Y241920D01*
X295457Y238372D01*
X292742Y235657D01*
X289194Y234187D01*
X272146Y234187D01*
G37*
%LPD*%
%LPC*%
G36*
X272146Y284987D02*
X272146Y284987D01*
X268598Y286457D01*
X265883Y289172D01*
X264413Y292720D01*
X264413Y296560D01*
X265883Y300108D01*
X268598Y302823D01*
X272146Y304293D01*
X289194Y304293D01*
X292742Y302823D01*
X295457Y300108D01*
X296927Y296560D01*
X296927Y292720D01*
X295457Y289172D01*
X292742Y286457D01*
X289194Y284987D01*
X272146Y284987D01*
G37*
%LPD*%
%LPC*%
G36*
X195946Y310387D02*
X195946Y310387D01*
X192398Y311857D01*
X189683Y314572D01*
X188213Y318120D01*
X188213Y321960D01*
X189683Y325508D01*
X192398Y328223D01*
X195946Y329693D01*
X212994Y329693D01*
X216542Y328223D01*
X219257Y325508D01*
X220727Y321960D01*
X220727Y318120D01*
X219257Y314572D01*
X216542Y311857D01*
X212994Y310387D01*
X195946Y310387D01*
G37*
%LPD*%
%LPC*%
G36*
X272146Y310387D02*
X272146Y310387D01*
X268598Y311857D01*
X265883Y314572D01*
X264413Y318120D01*
X264413Y321960D01*
X265883Y325508D01*
X268598Y328223D01*
X272146Y329693D01*
X289194Y329693D01*
X292742Y328223D01*
X295457Y325508D01*
X296927Y321960D01*
X296927Y318120D01*
X295457Y314572D01*
X292742Y311857D01*
X289194Y310387D01*
X272146Y310387D01*
G37*
%LPD*%
%LPC*%
G36*
X272146Y335787D02*
X272146Y335787D01*
X268598Y337257D01*
X265883Y339972D01*
X264413Y343520D01*
X264413Y347360D01*
X265883Y350908D01*
X268598Y353623D01*
X272146Y355093D01*
X289194Y355093D01*
X292742Y353623D01*
X295457Y350908D01*
X296927Y347360D01*
X296927Y343520D01*
X295457Y339972D01*
X292742Y337257D01*
X289194Y335787D01*
X272146Y335787D01*
G37*
%LPD*%
%LPC*%
G36*
X272146Y361187D02*
X272146Y361187D01*
X268598Y362657D01*
X265883Y365372D01*
X264413Y368920D01*
X264413Y372760D01*
X265883Y376308D01*
X268598Y379023D01*
X272146Y380493D01*
X289194Y380493D01*
X292742Y379023D01*
X295457Y376308D01*
X296927Y372760D01*
X296927Y368920D01*
X295457Y365372D01*
X292742Y362657D01*
X289194Y361187D01*
X272146Y361187D01*
G37*
%LPD*%
%LPC*%
G36*
X195946Y386587D02*
X195946Y386587D01*
X192398Y388057D01*
X189683Y390772D01*
X188213Y394320D01*
X188213Y398160D01*
X189683Y401708D01*
X192398Y404423D01*
X195946Y405893D01*
X212994Y405893D01*
X216542Y404423D01*
X219257Y401708D01*
X220727Y398160D01*
X220727Y394320D01*
X219257Y390772D01*
X216542Y388057D01*
X212994Y386587D01*
X195946Y386587D01*
G37*
%LPD*%
%LPC*%
G36*
X272146Y386587D02*
X272146Y386587D01*
X268598Y388057D01*
X265883Y390772D01*
X264413Y394320D01*
X264413Y398160D01*
X265883Y401708D01*
X268598Y404423D01*
X272146Y405893D01*
X289194Y405893D01*
X292742Y404423D01*
X295457Y401708D01*
X296927Y398160D01*
X296927Y394320D01*
X295457Y390772D01*
X292742Y388057D01*
X289194Y386587D01*
X272146Y386587D01*
G37*
%LPD*%
%LPC*%
G36*
X195946Y107187D02*
X195946Y107187D01*
X192398Y108657D01*
X189683Y111372D01*
X188213Y114920D01*
X188213Y118760D01*
X189683Y122308D01*
X192398Y125023D01*
X195946Y126493D01*
X212994Y126493D01*
X216542Y125023D01*
X219257Y122308D01*
X220727Y118760D01*
X220727Y114920D01*
X219257Y111372D01*
X216542Y108657D01*
X212994Y107187D01*
X195946Y107187D01*
G37*
%LPD*%
%LPC*%
G36*
X195946Y437387D02*
X195946Y437387D01*
X192398Y438857D01*
X189683Y441572D01*
X188213Y445120D01*
X188213Y448960D01*
X189683Y452508D01*
X192398Y455223D01*
X195946Y456693D01*
X212994Y456693D01*
X216542Y455223D01*
X219257Y452508D01*
X220727Y448960D01*
X220727Y445120D01*
X219257Y441572D01*
X216542Y438857D01*
X212994Y437387D01*
X195946Y437387D01*
G37*
%LPD*%
%LPC*%
G36*
X195946Y234187D02*
X195946Y234187D01*
X192398Y235657D01*
X189683Y238372D01*
X188213Y241920D01*
X188213Y245760D01*
X189683Y249308D01*
X192398Y252023D01*
X195946Y253493D01*
X212994Y253493D01*
X216542Y252023D01*
X219257Y249308D01*
X220727Y245760D01*
X220727Y241920D01*
X219257Y238372D01*
X216542Y235657D01*
X212994Y234187D01*
X195946Y234187D01*
G37*
%LPD*%
%LPC*%
G36*
X195946Y208787D02*
X195946Y208787D01*
X192398Y210257D01*
X189683Y212972D01*
X188213Y216520D01*
X188213Y220360D01*
X189683Y223908D01*
X192398Y226623D01*
X195946Y228093D01*
X212994Y228093D01*
X216542Y226623D01*
X219257Y223908D01*
X220727Y220360D01*
X220727Y216520D01*
X219257Y212972D01*
X216542Y210257D01*
X212994Y208787D01*
X195946Y208787D01*
G37*
%LPD*%
%LPC*%
G36*
X272146Y183387D02*
X272146Y183387D01*
X268598Y184857D01*
X265883Y187572D01*
X264413Y191120D01*
X264413Y194960D01*
X265883Y198508D01*
X268598Y201223D01*
X272146Y202693D01*
X289194Y202693D01*
X292742Y201223D01*
X295457Y198508D01*
X296927Y194960D01*
X296927Y191120D01*
X295457Y187572D01*
X292742Y184857D01*
X289194Y183387D01*
X272146Y183387D01*
G37*
%LPD*%
%LPC*%
G36*
X195946Y284987D02*
X195946Y284987D01*
X192398Y286457D01*
X189683Y289172D01*
X188213Y292720D01*
X188213Y296560D01*
X189683Y300108D01*
X192398Y302823D01*
X195946Y304293D01*
X212994Y304293D01*
X216542Y302823D01*
X219257Y300108D01*
X220727Y296560D01*
X220727Y292720D01*
X219257Y289172D01*
X216542Y286457D01*
X212994Y284987D01*
X195946Y284987D01*
G37*
%LPD*%
%LPC*%
G36*
X195946Y157987D02*
X195946Y157987D01*
X192398Y159457D01*
X189683Y162172D01*
X188213Y165720D01*
X188213Y169560D01*
X189683Y173108D01*
X192398Y175823D01*
X195946Y177293D01*
X212994Y177293D01*
X216542Y175823D01*
X219257Y173108D01*
X220727Y169560D01*
X220727Y165720D01*
X219257Y162172D01*
X216542Y159457D01*
X212994Y157987D01*
X195946Y157987D01*
G37*
%LPD*%
%LPC*%
G36*
X272146Y157987D02*
X272146Y157987D01*
X268598Y159457D01*
X265883Y162172D01*
X264413Y165720D01*
X264413Y169560D01*
X265883Y173108D01*
X268598Y175823D01*
X272146Y177293D01*
X289194Y177293D01*
X292742Y175823D01*
X295457Y173108D01*
X296927Y169560D01*
X296927Y165720D01*
X295457Y162172D01*
X292742Y159457D01*
X289194Y157987D01*
X272146Y157987D01*
G37*
%LPD*%
%LPC*%
G36*
X195946Y411987D02*
X195946Y411987D01*
X192398Y413457D01*
X189683Y416172D01*
X188213Y419720D01*
X188213Y423560D01*
X189683Y427108D01*
X192398Y429823D01*
X195946Y431293D01*
X212994Y431293D01*
X216542Y429823D01*
X219257Y427108D01*
X220727Y423560D01*
X220727Y419720D01*
X219257Y416172D01*
X216542Y413457D01*
X212994Y411987D01*
X195946Y411987D01*
G37*
%LPD*%
%LPC*%
G36*
X272146Y259587D02*
X272146Y259587D01*
X268598Y261057D01*
X265883Y263772D01*
X264413Y267320D01*
X264413Y271160D01*
X265883Y274708D01*
X268598Y277423D01*
X272146Y278893D01*
X289194Y278893D01*
X292742Y277423D01*
X295457Y274708D01*
X296927Y271160D01*
X296927Y267320D01*
X295457Y263772D01*
X292742Y261057D01*
X289194Y259587D01*
X272146Y259587D01*
G37*
%LPD*%
%LPC*%
G36*
X272146Y132587D02*
X272146Y132587D01*
X268598Y134057D01*
X265883Y136772D01*
X264413Y140320D01*
X264413Y144160D01*
X265883Y147708D01*
X268598Y150423D01*
X272146Y151893D01*
X289194Y151893D01*
X292742Y150423D01*
X295457Y147708D01*
X296927Y144160D01*
X296927Y140320D01*
X295457Y136772D01*
X292742Y134057D01*
X289194Y132587D01*
X272146Y132587D01*
G37*
%LPD*%
%LPC*%
G36*
X272146Y437387D02*
X272146Y437387D01*
X268598Y438857D01*
X265883Y441572D01*
X264413Y445120D01*
X264413Y448960D01*
X265883Y452508D01*
X268598Y455223D01*
X272146Y456693D01*
X289194Y456693D01*
X292742Y455223D01*
X295457Y452508D01*
X296927Y448960D01*
X296927Y445120D01*
X295457Y441572D01*
X292742Y438857D01*
X289194Y437387D01*
X272146Y437387D01*
G37*
%LPD*%
%LPC*%
G36*
X195946Y132587D02*
X195946Y132587D01*
X192398Y134057D01*
X189683Y136772D01*
X188213Y140320D01*
X188213Y144160D01*
X189683Y147708D01*
X192398Y150423D01*
X195946Y151893D01*
X212994Y151893D01*
X216542Y150423D01*
X219257Y147708D01*
X220727Y144160D01*
X220727Y140320D01*
X219257Y136772D01*
X216542Y134057D01*
X212994Y132587D01*
X195946Y132587D01*
G37*
%LPD*%
%LPC*%
G36*
X163842Y438177D02*
X163842Y438177D01*
X161518Y439140D01*
X159740Y440918D01*
X158777Y443242D01*
X158777Y445758D01*
X159740Y448082D01*
X159796Y448138D01*
X159849Y448212D01*
X159909Y448281D01*
X159921Y448312D01*
X159940Y448338D01*
X159967Y448425D01*
X160001Y448510D01*
X160005Y448551D01*
X160012Y448573D01*
X160011Y448605D01*
X160019Y448676D01*
X160019Y478424D01*
X160005Y478514D01*
X159997Y478605D01*
X159985Y478634D01*
X159980Y478666D01*
X159937Y478747D01*
X159901Y478831D01*
X159875Y478863D01*
X159864Y478884D01*
X159841Y478906D01*
X159796Y478962D01*
X159740Y479018D01*
X158777Y481342D01*
X158777Y483858D01*
X159740Y486182D01*
X161518Y487960D01*
X163842Y488923D01*
X166358Y488923D01*
X168682Y487960D01*
X170460Y486182D01*
X171423Y483858D01*
X171423Y481342D01*
X170460Y479018D01*
X170404Y478962D01*
X170351Y478888D01*
X170291Y478819D01*
X170279Y478788D01*
X170260Y478762D01*
X170233Y478675D01*
X170199Y478590D01*
X170195Y478549D01*
X170188Y478527D01*
X170189Y478495D01*
X170181Y478424D01*
X170181Y448676D01*
X170195Y448586D01*
X170203Y448495D01*
X170215Y448466D01*
X170220Y448434D01*
X170263Y448353D01*
X170299Y448269D01*
X170325Y448237D01*
X170336Y448216D01*
X170359Y448194D01*
X170404Y448138D01*
X170460Y448082D01*
X171423Y445758D01*
X171423Y443242D01*
X170460Y440918D01*
X168682Y439140D01*
X166358Y438177D01*
X163842Y438177D01*
G37*
%LPD*%
%LPC*%
G36*
X61024Y444753D02*
X61024Y444753D01*
X56449Y446648D01*
X52948Y450149D01*
X51053Y454724D01*
X51053Y459676D01*
X52948Y464251D01*
X56449Y467752D01*
X61024Y469647D01*
X65976Y469647D01*
X70551Y467752D01*
X74052Y464251D01*
X75947Y459676D01*
X75947Y454724D01*
X74052Y450149D01*
X70551Y446648D01*
X65976Y444753D01*
X61024Y444753D01*
G37*
%LPD*%
%LPC*%
G36*
X124381Y120677D02*
X124381Y120677D01*
X120677Y124381D01*
X120677Y129619D01*
X121696Y130638D01*
X121749Y130712D01*
X121809Y130781D01*
X121821Y130812D01*
X121840Y130838D01*
X121867Y130925D01*
X121901Y131010D01*
X121905Y131050D01*
X121912Y131073D01*
X121911Y131105D01*
X121919Y131176D01*
X121919Y148224D01*
X121905Y148314D01*
X121897Y148405D01*
X121885Y148435D01*
X121880Y148466D01*
X121837Y148547D01*
X121801Y148631D01*
X121775Y148663D01*
X121764Y148684D01*
X121741Y148706D01*
X121696Y148762D01*
X120677Y149781D01*
X120677Y155019D01*
X124381Y158723D01*
X129619Y158723D01*
X133323Y155019D01*
X133323Y149781D01*
X132304Y148762D01*
X132251Y148688D01*
X132191Y148619D01*
X132179Y148588D01*
X132160Y148562D01*
X132133Y148475D01*
X132099Y148390D01*
X132095Y148350D01*
X132088Y148327D01*
X132089Y148295D01*
X132081Y148224D01*
X132081Y131176D01*
X132095Y131086D01*
X132103Y130995D01*
X132115Y130965D01*
X132120Y130934D01*
X132163Y130853D01*
X132199Y130769D01*
X132225Y130737D01*
X132236Y130716D01*
X132259Y130694D01*
X132304Y130638D01*
X133323Y129619D01*
X133323Y124381D01*
X129619Y120677D01*
X124381Y120677D01*
G37*
%LPD*%
%LPC*%
G36*
X148402Y130047D02*
X148402Y130047D01*
X142747Y135702D01*
X142747Y143698D01*
X148402Y149353D01*
X156398Y149353D01*
X162053Y143698D01*
X162053Y135702D01*
X156398Y130047D01*
X148402Y130047D01*
G37*
%LPD*%
%LPC*%
G36*
X242382Y23367D02*
X242382Y23367D01*
X236727Y29022D01*
X236727Y37018D01*
X242382Y42673D01*
X250378Y42673D01*
X256033Y37018D01*
X256033Y29022D01*
X250378Y23367D01*
X242382Y23367D01*
G37*
%LPD*%
%LPC*%
G36*
X58232Y262127D02*
X58232Y262127D01*
X52577Y267782D01*
X52577Y275778D01*
X58232Y281433D01*
X66228Y281433D01*
X71883Y275778D01*
X71883Y267782D01*
X66228Y262127D01*
X58232Y262127D01*
G37*
%LPD*%
%LPC*%
G36*
X135702Y472947D02*
X135702Y472947D01*
X130047Y478602D01*
X130047Y486598D01*
X135702Y492253D01*
X143698Y492253D01*
X149353Y486598D01*
X149353Y478602D01*
X143698Y472947D01*
X135702Y472947D01*
G37*
%LPD*%
%LPC*%
G36*
X237302Y472947D02*
X237302Y472947D01*
X231647Y478602D01*
X231647Y486598D01*
X237302Y492253D01*
X245298Y492253D01*
X250953Y486598D01*
X250953Y478602D01*
X245298Y472947D01*
X237302Y472947D01*
G37*
%LPD*%
%LPC*%
G36*
X336362Y437387D02*
X336362Y437387D01*
X330707Y443042D01*
X330707Y451038D01*
X336362Y456693D01*
X344358Y456693D01*
X350013Y451038D01*
X350013Y443042D01*
X344358Y437387D01*
X336362Y437387D01*
G37*
%LPD*%
%LPC*%
G36*
X223332Y10667D02*
X223332Y10667D01*
X217677Y16322D01*
X217677Y24318D01*
X223332Y29973D01*
X231328Y29973D01*
X236983Y24318D01*
X236983Y16322D01*
X231328Y10667D01*
X223332Y10667D01*
G37*
%LPD*%
%LPC*%
G36*
X175072Y11937D02*
X175072Y11937D01*
X169417Y17592D01*
X169417Y25588D01*
X175072Y31243D01*
X183068Y31243D01*
X188723Y25588D01*
X188723Y17592D01*
X183068Y11937D01*
X175072Y11937D01*
G37*
%LPD*%
%LPC*%
G36*
X130160Y6857D02*
X130160Y6857D01*
X126612Y8327D01*
X123897Y11042D01*
X122427Y14590D01*
X122427Y18430D01*
X123897Y21978D01*
X126612Y24693D01*
X130160Y26163D01*
X134000Y26163D01*
X137548Y24693D01*
X140263Y21978D01*
X141733Y18430D01*
X141733Y14590D01*
X140263Y11042D01*
X137548Y8327D01*
X134000Y6857D01*
X130160Y6857D01*
G37*
%LPD*%
%LPC*%
G36*
X333360Y234187D02*
X333360Y234187D01*
X329812Y235657D01*
X327097Y238372D01*
X325627Y241920D01*
X325627Y245760D01*
X327097Y249308D01*
X329812Y252023D01*
X333360Y253493D01*
X337200Y253493D01*
X340748Y252023D01*
X343463Y249308D01*
X344933Y245760D01*
X344933Y241920D01*
X343463Y238372D01*
X340748Y235657D01*
X337200Y234187D01*
X333360Y234187D01*
G37*
%LPD*%
%LPC*%
G36*
X282193Y219963D02*
X282193Y219963D01*
X282193Y227585D01*
X288175Y227585D01*
X289941Y227233D01*
X291606Y226544D01*
X293104Y225543D01*
X294377Y224270D01*
X295378Y222772D01*
X296067Y221107D01*
X296295Y219963D01*
X282193Y219963D01*
G37*
%LPD*%
%LPC*%
G36*
X282193Y423163D02*
X282193Y423163D01*
X282193Y430785D01*
X288175Y430785D01*
X289941Y430433D01*
X291606Y429744D01*
X293104Y428743D01*
X294377Y427470D01*
X295378Y425972D01*
X296067Y424307D01*
X296295Y423163D01*
X282193Y423163D01*
G37*
%LPD*%
%LPC*%
G36*
X205993Y270763D02*
X205993Y270763D01*
X205993Y278385D01*
X211975Y278385D01*
X213741Y278033D01*
X215406Y277344D01*
X216904Y276343D01*
X218177Y275070D01*
X219178Y273572D01*
X219867Y271907D01*
X220095Y270763D01*
X205993Y270763D01*
G37*
%LPD*%
%LPC*%
G36*
X265045Y219963D02*
X265045Y219963D01*
X265273Y221107D01*
X265962Y222772D01*
X266963Y224270D01*
X268236Y225543D01*
X269734Y226544D01*
X271399Y227233D01*
X273165Y227585D01*
X279147Y227585D01*
X279147Y219963D01*
X265045Y219963D01*
G37*
%LPD*%
%LPC*%
G36*
X265045Y423163D02*
X265045Y423163D01*
X265273Y424307D01*
X265962Y425972D01*
X266963Y427470D01*
X268236Y428743D01*
X269734Y429744D01*
X271399Y430433D01*
X273165Y430785D01*
X279147Y430785D01*
X279147Y423163D01*
X265045Y423163D01*
G37*
%LPD*%
%LPC*%
G36*
X188845Y270763D02*
X188845Y270763D01*
X189073Y271907D01*
X189762Y273572D01*
X190763Y275070D01*
X192036Y276343D01*
X193534Y277344D01*
X195199Y278033D01*
X196965Y278385D01*
X202947Y278385D01*
X202947Y270763D01*
X188845Y270763D01*
G37*
%LPD*%
%LPC*%
G36*
X282193Y209295D02*
X282193Y209295D01*
X282193Y216917D01*
X296295Y216917D01*
X296067Y215773D01*
X295378Y214108D01*
X294377Y212610D01*
X293104Y211337D01*
X291606Y210336D01*
X289941Y209647D01*
X288175Y209295D01*
X282193Y209295D01*
G37*
%LPD*%
%LPC*%
G36*
X282193Y412495D02*
X282193Y412495D01*
X282193Y420117D01*
X296295Y420117D01*
X296067Y418973D01*
X295378Y417308D01*
X294377Y415810D01*
X293104Y414537D01*
X291606Y413536D01*
X289941Y412847D01*
X288175Y412495D01*
X282193Y412495D01*
G37*
%LPD*%
%LPC*%
G36*
X205993Y260095D02*
X205993Y260095D01*
X205993Y267717D01*
X220095Y267717D01*
X219867Y266573D01*
X219178Y264908D01*
X218177Y263410D01*
X216904Y262137D01*
X215406Y261136D01*
X213741Y260447D01*
X211975Y260095D01*
X205993Y260095D01*
G37*
%LPD*%
%LPC*%
G36*
X273165Y412495D02*
X273165Y412495D01*
X271399Y412847D01*
X269734Y413536D01*
X268236Y414537D01*
X266963Y415810D01*
X265962Y417308D01*
X265273Y418973D01*
X265045Y420117D01*
X279147Y420117D01*
X279147Y412495D01*
X273165Y412495D01*
G37*
%LPD*%
%LPC*%
G36*
X196965Y260095D02*
X196965Y260095D01*
X195199Y260447D01*
X193534Y261136D01*
X192036Y262137D01*
X190763Y263410D01*
X189762Y264908D01*
X189073Y266573D01*
X188845Y267717D01*
X202947Y267717D01*
X202947Y260095D01*
X196965Y260095D01*
G37*
%LPD*%
%LPC*%
G36*
X273165Y209295D02*
X273165Y209295D01*
X271399Y209647D01*
X269734Y210336D01*
X268236Y211337D01*
X266963Y212610D01*
X265962Y214108D01*
X265273Y215773D01*
X265045Y216917D01*
X279147Y216917D01*
X279147Y209295D01*
X273165Y209295D01*
G37*
%LPD*%
%LPC*%
G36*
X115823Y458723D02*
X115823Y458723D01*
X115823Y469046D01*
X117096Y468845D01*
X118883Y468264D01*
X120557Y467411D01*
X122078Y466306D01*
X123406Y464978D01*
X124511Y463457D01*
X125364Y461783D01*
X125945Y459996D01*
X126146Y458723D01*
X115823Y458723D01*
G37*
%LPD*%
%LPC*%
G36*
X14223Y163577D02*
X14223Y163577D01*
X24546Y163577D01*
X24345Y162304D01*
X23764Y160517D01*
X22911Y158843D01*
X21806Y157322D01*
X20478Y155994D01*
X18957Y154889D01*
X17283Y154036D01*
X15496Y153455D01*
X14223Y153254D01*
X14223Y163577D01*
G37*
%LPD*%
%LPC*%
G36*
X115823Y455677D02*
X115823Y455677D01*
X126146Y455677D01*
X125945Y454404D01*
X125364Y452617D01*
X124511Y450943D01*
X123406Y449422D01*
X122078Y448094D01*
X120557Y446989D01*
X118883Y446136D01*
X117096Y445555D01*
X115823Y445354D01*
X115823Y455677D01*
G37*
%LPD*%
%LPC*%
G36*
X102454Y458723D02*
X102454Y458723D01*
X102655Y459996D01*
X103236Y461783D01*
X104089Y463457D01*
X105194Y464978D01*
X106522Y466306D01*
X108043Y467411D01*
X109717Y468264D01*
X111504Y468845D01*
X112777Y469046D01*
X112777Y458723D01*
X102454Y458723D01*
G37*
%LPD*%
%LPC*%
G36*
X7204Y105663D02*
X7204Y105663D01*
X7405Y106936D01*
X7986Y108723D01*
X8839Y110397D01*
X9944Y111918D01*
X11272Y113246D01*
X12793Y114351D01*
X14467Y115204D01*
X16254Y115785D01*
X17527Y115986D01*
X17527Y105663D01*
X7204Y105663D01*
G37*
%LPD*%
%LPC*%
G36*
X111504Y445555D02*
X111504Y445555D01*
X109717Y446136D01*
X108043Y446989D01*
X106522Y448094D01*
X105194Y449422D01*
X104089Y450943D01*
X103236Y452617D01*
X102655Y454404D01*
X102454Y455677D01*
X112777Y455677D01*
X112777Y445354D01*
X111504Y445555D01*
G37*
%LPD*%
%LPC*%
G36*
X486154Y155995D02*
X486154Y155995D01*
X484367Y156576D01*
X482693Y157429D01*
X481172Y158534D01*
X479844Y159862D01*
X478739Y161383D01*
X477886Y163057D01*
X477305Y164844D01*
X477104Y166117D01*
X487427Y166117D01*
X487427Y155794D01*
X486154Y155995D01*
G37*
%LPD*%
%LPC*%
G36*
X16254Y92495D02*
X16254Y92495D01*
X14467Y93076D01*
X12793Y93929D01*
X11272Y95034D01*
X9944Y96362D01*
X8839Y97883D01*
X7986Y99557D01*
X7405Y101344D01*
X7204Y102617D01*
X17527Y102617D01*
X17527Y92294D01*
X16254Y92495D01*
G37*
%LPD*%
%LPC*%
G36*
X114553Y270763D02*
X114553Y270763D01*
X114553Y278385D01*
X116818Y278385D01*
X122175Y273028D01*
X122175Y270763D01*
X114553Y270763D01*
G37*
%LPD*%
%LPC*%
G36*
X153923Y115823D02*
X153923Y115823D01*
X153923Y123445D01*
X156188Y123445D01*
X161545Y118088D01*
X161545Y115823D01*
X153923Y115823D01*
G37*
%LPD*%
%LPC*%
G36*
X87883Y273303D02*
X87883Y273303D01*
X87883Y280925D01*
X90148Y280925D01*
X95505Y275568D01*
X95505Y273303D01*
X87883Y273303D01*
G37*
%LPD*%
%LPC*%
G36*
X341883Y423163D02*
X341883Y423163D01*
X341883Y430785D01*
X344148Y430785D01*
X349505Y425428D01*
X349505Y423163D01*
X341883Y423163D01*
G37*
%LPD*%
%LPC*%
G36*
X133603Y68833D02*
X133603Y68833D01*
X133603Y76455D01*
X135868Y76455D01*
X141225Y71098D01*
X141225Y68833D01*
X133603Y68833D01*
G37*
%LPD*%
%LPC*%
G36*
X387603Y245363D02*
X387603Y245363D01*
X387603Y252985D01*
X389868Y252985D01*
X395225Y247628D01*
X395225Y245363D01*
X387603Y245363D01*
G37*
%LPD*%
%LPC*%
G36*
X282193Y20573D02*
X282193Y20573D01*
X282193Y28195D01*
X284458Y28195D01*
X289815Y22838D01*
X289815Y20573D01*
X282193Y20573D01*
G37*
%LPD*%
%LPC*%
G36*
X180593Y48513D02*
X180593Y48513D01*
X180593Y56135D01*
X182858Y56135D01*
X188215Y50778D01*
X188215Y48513D01*
X180593Y48513D01*
G37*
%LPD*%
%LPC*%
G36*
X228853Y47243D02*
X228853Y47243D01*
X228853Y54865D01*
X231118Y54865D01*
X236475Y49508D01*
X236475Y47243D01*
X228853Y47243D01*
G37*
%LPD*%
%LPC*%
G36*
X376935Y245363D02*
X376935Y245363D01*
X376935Y247628D01*
X382292Y252985D01*
X384557Y252985D01*
X384557Y245363D01*
X376935Y245363D01*
G37*
%LPD*%
%LPC*%
G36*
X271525Y20573D02*
X271525Y20573D01*
X271525Y22838D01*
X276882Y28195D01*
X279147Y28195D01*
X279147Y20573D01*
X271525Y20573D01*
G37*
%LPD*%
%LPC*%
G36*
X122935Y68833D02*
X122935Y68833D01*
X122935Y71098D01*
X128292Y76455D01*
X130557Y76455D01*
X130557Y68833D01*
X122935Y68833D01*
G37*
%LPD*%
%LPC*%
G36*
X133603Y58165D02*
X133603Y58165D01*
X133603Y65787D01*
X141225Y65787D01*
X141225Y63522D01*
X135868Y58165D01*
X133603Y58165D01*
G37*
%LPD*%
%LPC*%
G36*
X169925Y48513D02*
X169925Y48513D01*
X169925Y50778D01*
X175282Y56135D01*
X177547Y56135D01*
X177547Y48513D01*
X169925Y48513D01*
G37*
%LPD*%
%LPC*%
G36*
X218185Y47243D02*
X218185Y47243D01*
X218185Y49508D01*
X223542Y54865D01*
X225807Y54865D01*
X225807Y47243D01*
X218185Y47243D01*
G37*
%LPD*%
%LPC*%
G36*
X180593Y37845D02*
X180593Y37845D01*
X180593Y45467D01*
X188215Y45467D01*
X188215Y43202D01*
X182858Y37845D01*
X180593Y37845D01*
G37*
%LPD*%
%LPC*%
G36*
X153923Y105155D02*
X153923Y105155D01*
X153923Y112777D01*
X161545Y112777D01*
X161545Y110512D01*
X156188Y105155D01*
X153923Y105155D01*
G37*
%LPD*%
%LPC*%
G36*
X228853Y36575D02*
X228853Y36575D01*
X228853Y44197D01*
X236475Y44197D01*
X236475Y41932D01*
X231118Y36575D01*
X228853Y36575D01*
G37*
%LPD*%
%LPC*%
G36*
X282193Y9905D02*
X282193Y9905D01*
X282193Y17527D01*
X289815Y17527D01*
X289815Y15262D01*
X284458Y9905D01*
X282193Y9905D01*
G37*
%LPD*%
%LPC*%
G36*
X114553Y260095D02*
X114553Y260095D01*
X114553Y267717D01*
X122175Y267717D01*
X122175Y265452D01*
X116818Y260095D01*
X114553Y260095D01*
G37*
%LPD*%
%LPC*%
G36*
X77215Y273303D02*
X77215Y273303D01*
X77215Y275568D01*
X82572Y280925D01*
X84837Y280925D01*
X84837Y273303D01*
X77215Y273303D01*
G37*
%LPD*%
%LPC*%
G36*
X103885Y270763D02*
X103885Y270763D01*
X103885Y273028D01*
X109242Y278385D01*
X111507Y278385D01*
X111507Y270763D01*
X103885Y270763D01*
G37*
%LPD*%
%LPC*%
G36*
X87883Y262635D02*
X87883Y262635D01*
X87883Y270257D01*
X95505Y270257D01*
X95505Y267992D01*
X90148Y262635D01*
X87883Y262635D01*
G37*
%LPD*%
%LPC*%
G36*
X341883Y412495D02*
X341883Y412495D01*
X341883Y420117D01*
X349505Y420117D01*
X349505Y417852D01*
X344148Y412495D01*
X341883Y412495D01*
G37*
%LPD*%
%LPC*%
G36*
X331215Y423163D02*
X331215Y423163D01*
X331215Y425428D01*
X336572Y430785D01*
X338837Y430785D01*
X338837Y423163D01*
X331215Y423163D01*
G37*
%LPD*%
%LPC*%
G36*
X143255Y115823D02*
X143255Y115823D01*
X143255Y118088D01*
X148612Y123445D01*
X150877Y123445D01*
X150877Y115823D01*
X143255Y115823D01*
G37*
%LPD*%
%LPC*%
G36*
X387603Y234695D02*
X387603Y234695D01*
X387603Y242317D01*
X395225Y242317D01*
X395225Y240052D01*
X389868Y234695D01*
X387603Y234695D01*
G37*
%LPD*%
%LPC*%
G36*
X276882Y9905D02*
X276882Y9905D01*
X271525Y15262D01*
X271525Y17527D01*
X279147Y17527D01*
X279147Y9905D01*
X276882Y9905D01*
G37*
%LPD*%
%LPC*%
G36*
X148612Y105155D02*
X148612Y105155D01*
X143255Y110512D01*
X143255Y112777D01*
X150877Y112777D01*
X150877Y105155D01*
X148612Y105155D01*
G37*
%LPD*%
%LPC*%
G36*
X336572Y412495D02*
X336572Y412495D01*
X331215Y417852D01*
X331215Y420117D01*
X338837Y420117D01*
X338837Y412495D01*
X336572Y412495D01*
G37*
%LPD*%
%LPC*%
G36*
X223542Y36575D02*
X223542Y36575D01*
X218185Y41932D01*
X218185Y44197D01*
X225807Y44197D01*
X225807Y36575D01*
X223542Y36575D01*
G37*
%LPD*%
%LPC*%
G36*
X82572Y262635D02*
X82572Y262635D01*
X77215Y267992D01*
X77215Y270257D01*
X84837Y270257D01*
X84837Y262635D01*
X82572Y262635D01*
G37*
%LPD*%
%LPC*%
G36*
X175282Y37845D02*
X175282Y37845D01*
X169925Y43202D01*
X169925Y45467D01*
X177547Y45467D01*
X177547Y37845D01*
X175282Y37845D01*
G37*
%LPD*%
%LPC*%
G36*
X109242Y260095D02*
X109242Y260095D01*
X103885Y265452D01*
X103885Y267717D01*
X111507Y267717D01*
X111507Y260095D01*
X109242Y260095D01*
G37*
%LPD*%
%LPC*%
G36*
X128292Y58165D02*
X128292Y58165D01*
X122935Y63522D01*
X122935Y65787D01*
X130557Y65787D01*
X130557Y58165D01*
X128292Y58165D01*
G37*
%LPD*%
%LPC*%
G36*
X382292Y234695D02*
X382292Y234695D01*
X376935Y240052D01*
X376935Y242317D01*
X384557Y242317D01*
X384557Y234695D01*
X382292Y234695D01*
G37*
%LPD*%
%LPC*%
G36*
X402324Y78483D02*
X402324Y78483D01*
X402548Y79609D01*
X403233Y81261D01*
X404227Y82749D01*
X405491Y84013D01*
X406979Y85007D01*
X408631Y85692D01*
X409757Y85916D01*
X409757Y78483D01*
X402324Y78483D01*
G37*
%LPD*%
%LPC*%
G36*
X340359Y421639D02*
X340359Y421639D01*
X340359Y421641D01*
X340361Y421641D01*
X340361Y421639D01*
X340359Y421639D01*
G37*
%LPD*%
%LPC*%
G36*
X152399Y114299D02*
X152399Y114299D01*
X152399Y114301D01*
X152401Y114301D01*
X152401Y114299D01*
X152399Y114299D01*
G37*
%LPD*%
%LPC*%
G36*
X280669Y421639D02*
X280669Y421639D01*
X280669Y421641D01*
X280671Y421641D01*
X280671Y421639D01*
X280669Y421639D01*
G37*
%LPD*%
%LPC*%
G36*
X114299Y457199D02*
X114299Y457199D01*
X114299Y457201D01*
X114301Y457201D01*
X114301Y457199D01*
X114299Y457199D01*
G37*
%LPD*%
%LPC*%
G36*
X280669Y19049D02*
X280669Y19049D01*
X280669Y19051D01*
X280671Y19051D01*
X280671Y19049D01*
X280669Y19049D01*
G37*
%LPD*%
%LPC*%
G36*
X86359Y271779D02*
X86359Y271779D01*
X86359Y271781D01*
X86361Y271781D01*
X86361Y271779D01*
X86359Y271779D01*
G37*
%LPD*%
%LPC*%
G36*
X227329Y45719D02*
X227329Y45719D01*
X227329Y45721D01*
X227331Y45721D01*
X227331Y45719D01*
X227329Y45719D01*
G37*
%LPD*%
%LPC*%
G36*
X179069Y46989D02*
X179069Y46989D01*
X179069Y46991D01*
X179071Y46991D01*
X179071Y46989D01*
X179069Y46989D01*
G37*
%LPD*%
%LPC*%
G36*
X204469Y269239D02*
X204469Y269239D01*
X204469Y269241D01*
X204471Y269241D01*
X204471Y269239D01*
X204469Y269239D01*
G37*
%LPD*%
%LPC*%
G36*
X113029Y269239D02*
X113029Y269239D01*
X113029Y269241D01*
X113031Y269241D01*
X113031Y269239D01*
X113029Y269239D01*
G37*
%LPD*%
%LPC*%
G36*
X386079Y243839D02*
X386079Y243839D01*
X386079Y243841D01*
X386081Y243841D01*
X386081Y243839D01*
X386079Y243839D01*
G37*
%LPD*%
%LPC*%
G36*
X132079Y67309D02*
X132079Y67309D01*
X132079Y67311D01*
X132081Y67311D01*
X132081Y67309D01*
X132079Y67309D01*
G37*
%LPD*%
%LPC*%
G36*
X280669Y218439D02*
X280669Y218439D01*
X280669Y218441D01*
X280671Y218441D01*
X280671Y218439D01*
X280669Y218439D01*
G37*
%LPD*%
D10*
X0Y0D02*
X500000Y0D01*
X500000Y500000D01*
X0Y500000D01*
X0Y0D01*
D11*
X340360Y447040D03*
X340360Y421640D03*
X152400Y139700D03*
X152400Y114300D03*
X280670Y44450D03*
X280670Y19050D03*
D12*
X179070Y21590D03*
X179070Y46990D03*
D13*
X335280Y243840D03*
D14*
X386080Y243840D03*
D13*
X132080Y16510D03*
D12*
X132080Y67310D03*
D15*
X411280Y44960D03*
X411280Y60960D03*
X411280Y76960D03*
X423280Y52960D03*
X423280Y68960D03*
D16*
X462280Y97460D03*
X462280Y24460D03*
D17*
X488950Y167640D03*
X488950Y193040D03*
X488950Y218440D03*
X488950Y243840D03*
X488950Y269240D03*
X488950Y294640D03*
X488950Y320040D03*
X488950Y345440D03*
X12700Y165100D03*
X12700Y190500D03*
X12700Y215900D03*
X12700Y241300D03*
X12700Y266700D03*
X12700Y292100D03*
X12700Y317500D03*
X12700Y342900D03*
D12*
X76200Y12700D03*
X76200Y38100D03*
X31750Y13970D03*
X31750Y39370D03*
D11*
X113030Y269240D03*
X113030Y167640D03*
X86360Y271780D03*
X86360Y170180D03*
D14*
X139700Y482600D03*
X241300Y482600D03*
D12*
X62230Y170180D03*
X62230Y271780D03*
D18*
X197866Y447040D02*
X211074Y447040D01*
X211074Y421640D02*
X197866Y421640D01*
X197866Y396240D02*
X211074Y396240D01*
X211074Y370840D02*
X197866Y370840D01*
X197866Y345440D02*
X211074Y345440D01*
X211074Y320040D02*
X197866Y320040D01*
X197866Y294640D02*
X211074Y294640D01*
X211074Y269240D02*
X197866Y269240D01*
X197866Y243840D02*
X211074Y243840D01*
X211074Y218440D02*
X197866Y218440D01*
X197866Y193040D02*
X211074Y193040D01*
X211074Y167640D02*
X197866Y167640D01*
X197866Y142240D02*
X211074Y142240D01*
X211074Y116840D02*
X197866Y116840D01*
X274066Y116840D02*
X287274Y116840D01*
X287274Y142240D02*
X274066Y142240D01*
X274066Y167640D02*
X287274Y167640D01*
X287274Y193040D02*
X274066Y193040D01*
X274066Y218440D02*
X287274Y218440D01*
X287274Y243840D02*
X274066Y243840D01*
X274066Y269240D02*
X287274Y269240D01*
X287274Y294640D02*
X274066Y294640D01*
X274066Y320040D02*
X287274Y320040D01*
X287274Y345440D02*
X274066Y345440D01*
X274066Y370840D02*
X287274Y370840D01*
X287274Y396240D02*
X274066Y396240D01*
X274066Y421640D02*
X287274Y421640D01*
X287274Y447040D02*
X274066Y447040D01*
D19*
X309250Y22860D03*
X389250Y22860D03*
D15*
X329250Y22860D03*
X349250Y22860D03*
X369250Y22860D03*
D11*
X227330Y20320D03*
X246380Y33020D03*
X227330Y45720D03*
D17*
X63500Y457200D03*
X114300Y457200D03*
X69850Y104140D03*
X19050Y104140D03*
X12700Y469900D03*
X12700Y444500D03*
X12700Y419100D03*
X12700Y393700D03*
X12700Y368300D03*
X165100Y200660D03*
X165100Y226060D03*
X165100Y251460D03*
D20*
X280670Y116840D02*
X280670Y44450D01*
D21*
X165100Y444500D03*
D20*
X165100Y482600D01*
D21*
X165100Y482600D03*
D20*
X113030Y167640D02*
X113030Y74930D01*
X76200Y38100D01*
X86360Y99060D02*
X86360Y170180D01*
X86360Y99060D02*
X31750Y39370D01*
X35560Y370840D02*
X204470Y370840D01*
X35560Y370840D02*
X12700Y393700D01*
X35560Y345440D02*
X204470Y345440D01*
X35560Y345440D02*
X12700Y368300D01*
X12700Y241300D02*
X62230Y191770D01*
X62230Y170180D01*
X62230Y191770D02*
X63500Y193040D01*
X175800Y193040D02*
X204470Y193040D01*
X175800Y193040D02*
X170466Y187706D01*
X159734Y187706D01*
X154400Y193040D01*
X63500Y193040D01*
X62230Y170180D02*
X69850Y162560D01*
X69850Y104140D01*
X38100Y190500D02*
X12700Y215900D01*
X38100Y190500D02*
X38100Y127000D01*
D22*
X127000Y152400D03*
D20*
X127000Y127000D01*
D22*
X127000Y127000D03*
X50800Y127000D03*
D20*
X38100Y127000D01*
D22*
X38100Y101600D03*
D20*
X38100Y127000D01*
D22*
X431800Y254000D03*
D20*
X431800Y74718D01*
X433376Y73142D01*
X433376Y63056D01*
X423280Y52960D01*
D22*
X410210Y252730D03*
D20*
X410210Y105410D01*
X368300Y63500D01*
D22*
X368300Y63500D03*
M02*
